<svg xmlns="http://www.w3.org/2000/svg" width="681.536" height="209.996" viewBox="0 0 681.536 209.996"><g transform="translate(58 16478.925)"><g transform="translate(-58 -16478.926)"><g transform="translate(0 27.001)"><path d="M76.135,0A76.135,76.135,0,1,1,0,76.135,76.135,76.135,0,0,1,76.135,0Z" transform="translate(41.746)" fill="#04bf8a"/><g transform="translate(0 26.818)"><g transform="translate(0)"><rect width="167.603" height="99.303" rx="49.651" fill="#182a74"/><circle cx="49.883" cy="49.883" r="49.883" fill="#ff6d00"/><circle cx="25.183" cy="25.183" r="25.183" transform="translate(24.699 24.699)" fill="#fff"/></g></g></g><g transform="translate(96.95)"><ellipse cx="5.722" cy="7.673" rx="5.722" ry="7.673" transform="translate(38.905)" fill="#182a74"/><ellipse cx="5.722" cy="7.673" rx="5.722" ry="7.673" fill="#182a74"/></g><g transform="translate(74.187 189.77)"><g transform="translate(0 0)"><path d="M366.523,911.815a58.883,58.883,0,0,0,87.945,0" transform="translate(-366.523 -911.815)" fill="none" stroke="#182a74" stroke-linecap="round" stroke-miterlimit="10" stroke-width="1"/></g></g></g><g transform="translate(253.915 -16478.785)"><g transform="translate(5.646 189.629)"><path d="M366.523,911.815a58.883,58.883,0,0,0,87.945,0" transform="translate(-366.523 -911.815)" fill="none" stroke="#182a74" stroke-linecap="round" stroke-miterlimit="10" stroke-width="1"/></g><g transform="translate(99.765) rotate(90)"><g transform="translate(0)"><rect width="167.603" height="99.303" rx="49.651" fill="#182a74"/><circle cx="49.883" cy="49.883" r="49.883" fill="#ff6d00"/></g></g><g transform="translate(24.699 118.415)"><ellipse cx="5.722" cy="7.673" rx="5.722" ry="7.673" transform="translate(38.905)" fill="#fff"/><ellipse cx="5.722" cy="7.673" rx="5.722" ry="7.673" fill="#fff"/></g></g><g transform="translate(471.267 -16450.514)"><path d="M76.135,0A76.135,76.135,0,1,1,0,76.135,76.135,76.135,0,0,1,76.135,0Z" transform="translate(0 0)" fill="#04bf8a"/><g transform="translate(50.81 16.752)"><ellipse cx="5.722" cy="7.673" rx="5.722" ry="7.673" transform="translate(38.905)" fill="#182a74"/><ellipse cx="5.722" cy="7.673" rx="5.722" ry="7.673" fill="#182a74"/></g><circle cx="49.883" cy="49.883" r="49.883" transform="translate(125.876 40.18) rotate(90)" fill="#ff6d00"/><g transform="translate(26.816 92.394)"><g transform="translate(0)"><path d="M366.523,911.815a66.151,66.151,0,0,0,98.8,0" transform="translate(-366.523 -911.815)" fill="none" stroke="#182a74" stroke-linecap="round" stroke-miterlimit="10" stroke-width="1"/></g></g></g></g></svg>