<svg xmlns="http://www.w3.org/2000/svg" width="264" height="308.254" viewBox="0 0 264 308.254"><g transform="translate(-124 -99.746)"><path d="M172,204V324a24.071,24.071,0,0,0,24,24h8v40a20,20,0,0,0,40,0V348h24v40a20,20,0,0,0,40,0V348h8a24.071,24.071,0,0,0,24-24V204H172Z" fill="#fff"/><path d="M144,200a20,20,0,0,0-20,20v80a20,20,0,0,0,40,0V220A20,20,0,0,0,144,200Z" fill="#fff"/><path d="M301.464,125.432l10.8-19.764a4,4,0,0,0-7.02-3.836l-10.7,19.584a83.581,83.581,0,0,0-77.08,0l-10.7-19.584a4,4,0,1,0-7.02,3.836l10.8,19.764A83.873,83.873,0,0,0,172,196H340A83.873,83.873,0,0,0,301.464,125.432ZM220,168a8,8,0,1,1,8-8A8,8,0,0,1,220,168Zm72,0a8,8,0,1,1,8-8A8,8,0,0,1,292,168Z" fill="#fff"/><path d="M368,200a20,20,0,0,0-20,20v80a20,20,0,0,0,40,0V220A20,20,0,0,0,368,200Z" fill="#fff"/></g></svg>