<svg xmlns="http://www.w3.org/2000/svg" width="355.943" height="83.036" viewBox="0 0 355.943 83.036"><g transform="translate(-222.071 -148.896)"><g transform="translate(222.071 148.896)"><path d="M278.478,288.549c-.088-10.5,8.593-15.6,8.975-15.838a19.452,19.452,0,0,0-15.222-8.241c-6.394-.675-12.611,3.842-15.867,3.842-3.314,0-8.359-3.754-13.755-3.666a20.225,20.225,0,0,0-17.04,10.412c-7.362,12.758-1.877,31.529,5.191,41.853,3.549,5.045,7.655,10.705,13.081,10.5,5.279-.205,7.274-3.373,13.638-3.373,6.335,0,8.183,3.373,13.7,3.255,5.69-.088,9.239-5.074,12.67-10.177a41.373,41.373,0,0,0,5.778-11.79,18.292,18.292,0,0,1-11.145-16.776" transform="translate(-222.072 -244.38)" fill="#fff"/><path d="M428.1,162.211a18.608,18.608,0,0,0,4.253-13.315c-4.106.176-9.268,2.845-12.23,6.335-2.61,3.08-4.957,8.095-4.37,12.817,4.634.352,9.385-2.346,12.348-5.837" transform="translate(-382.102 -148.896)" fill="#fff"/></g><g transform="translate(318.541 172.501)"><path d="M815.153,331.948h-7.391l-4.047-12.729H789.637l-3.842,12.729h-7.186l13.931-43.319h8.623l13.99,43.319Zm-12.641-18.067-3.666-11.292c-.381-1.173-1.115-3.872-2.17-8.154h-.147c-.44,1.848-1.115,4.575-2.053,8.154l-3.608,11.292Z" transform="translate(-778.609 -288.013)" fill="#fff"/><path d="M1052.518,370.513c0,5.309-1.437,9.5-4.341,12.582a12.645,12.645,0,0,1-9.62,4.106c-4.135,0-7.1-1.466-8.916-4.429v16.395h-6.951v-33.64c0-3.344-.088-6.746-.264-10.265h6.1l.381,4.957h.117c2.317-3.725,5.837-5.6,10.529-5.6a11.581,11.581,0,0,1,9.209,4.37c2.522,2.933,3.754,6.746,3.754,11.526Zm-7.068.235a12.751,12.751,0,0,0-2.053-7.508,7.109,7.109,0,0,0-6.042-3.08,7.371,7.371,0,0,0-4.663,1.7,7.855,7.855,0,0,0-2.728,4.458,9.5,9.5,0,0,0-.323,2.112v5.22a8.4,8.4,0,0,0,2.082,5.748,6.93,6.93,0,0,0,5.426,2.346,7.16,7.16,0,0,0,6.1-3.021,13.25,13.25,0,0,0,2.2-7.978Z" transform="translate(-980.163 -342.563)" fill="#fff"/><path d="M1259.619,370.513c0,5.309-1.437,9.5-4.341,12.582a12.645,12.645,0,0,1-9.62,4.106c-4.135,0-7.1-1.466-8.916-4.429v16.395h-6.951v-33.64c0-3.344-.088-6.746-.264-10.265h6.1l.381,4.957h.117c2.317-3.725,5.837-5.6,10.529-5.6a11.581,11.581,0,0,1,9.209,4.37c2.522,2.933,3.754,6.746,3.754,11.526Zm-7.068.235a12.751,12.751,0,0,0-2.053-7.508,7.109,7.109,0,0,0-6.042-3.08,7.371,7.371,0,0,0-4.663,1.7,8.013,8.013,0,0,0-2.728,4.458,9.5,9.5,0,0,0-.323,2.112v5.22a8.4,8.4,0,0,0,2.082,5.748,6.93,6.93,0,0,0,5.426,2.346,7.124,7.124,0,0,0,6.1-3.021,13.052,13.052,0,0,0,2.2-7.978Z" transform="translate(-1151.365 -342.563)" fill="#fff"/><path d="M1506.948,316.869a11.6,11.6,0,0,1-3.842,9q-4.223,3.784-11.79,3.783c-4.663,0-8.388-.909-11.2-2.7l1.613-5.778a19.48,19.48,0,0,0,10.031,2.7,9.446,9.446,0,0,0,6.1-1.76,5.748,5.748,0,0,0,2.2-4.722,6.108,6.108,0,0,0-1.789-4.429,16.748,16.748,0,0,0-5.983-3.343c-7.655-2.845-11.438-6.98-11.438-12.406a11,11,0,0,1,4.018-8.74c2.669-2.258,6.218-3.4,10.646-3.4a20.929,20.929,0,0,1,9.825,2.053l-1.76,5.631a17.31,17.31,0,0,0-8.329-1.994,8.641,8.641,0,0,0-5.748,1.789,5.205,5.205,0,0,0-1.73,3.93,5.266,5.266,0,0,0,1.995,4.223,22.38,22.38,0,0,0,6.306,3.344,21.142,21.142,0,0,1,8.212,5.279,10.974,10.974,0,0,1,2.669,7.537" transform="translate(-1358.514 -285.076)" fill="#fff"/><path d="M1676.946,326.495h-7.655v15.163c0,3.842,1.349,5.778,4.047,5.778a12.877,12.877,0,0,0,3.08-.323l.205,5.279a16.1,16.1,0,0,1-5.4.763,8.306,8.306,0,0,1-6.423-2.522c-1.555-1.672-2.317-4.487-2.317-8.417v-15.75h-4.546v-5.191h4.546v-5.719l6.8-2.053v7.772h7.655v5.22" transform="translate(-1505.518 -308.575)" fill="#fff"/><path d="M1820.338,370.771a17.157,17.157,0,0,1-4.106,11.819,14.7,14.7,0,0,1-11.438,4.751,14.076,14.076,0,0,1-10.969-4.546,16.512,16.512,0,0,1-4.077-11.5,17.035,17.035,0,0,1,4.194-11.878c2.816-3.08,6.6-4.634,11.35-4.634a14.273,14.273,0,0,1,11.057,4.575c2.669,2.933,3.989,6.746,3.989,11.409Zm-7.186.147a14,14,0,0,0-1.848-7.362,7.2,7.2,0,0,0-12.611,0,15.881,15.881,0,0,0,0,14.87,7.124,7.124,0,0,0,12.553-.059A14.213,14.213,0,0,0,1813.153,370.918Z" transform="translate(-1614.478 -342.703)" fill="#fff"/><path d="M2016.641,361.363a12.874,12.874,0,0,0-2.2-.176,6.548,6.548,0,0,0-5.661,2.757,10.463,10.463,0,0,0-1.73,6.159V386.5H2000.1v-21.41c0-3.608-.059-6.892-.205-9.825h6.042l.264,5.983h.205a10.648,10.648,0,0,1,3.461-4.957,8.442,8.442,0,0,1,5.015-1.672,14.618,14.618,0,0,1,1.73.117l.03,6.628" transform="translate(-1788.197 -342.563)" fill="#fff"/><path d="M2143.063,368.98a15.863,15.863,0,0,1-.264,3.138h-20.823a9.053,9.053,0,0,0,3.021,7.068,10.4,10.4,0,0,0,6.8,2.17,23.367,23.367,0,0,0,8.417-1.466l1.085,4.81a26.061,26.061,0,0,1-10.47,1.936c-4.839,0-8.652-1.437-11.409-4.282s-4.135-6.687-4.135-11.468a17.921,17.921,0,0,1,3.871-11.761,13.289,13.289,0,0,1,10.911-5.015c4.487,0,7.919,1.672,10.206,5.015a16.963,16.963,0,0,1,2.786,9.855Zm-6.628-1.789a9.351,9.351,0,0,0-1.349-5.338,6.055,6.055,0,0,0-5.514-2.9,6.591,6.591,0,0,0-5.514,2.816,10.429,10.429,0,0,0-2.053,5.4l14.43.029Z" transform="translate(-1883.59 -342.144)" fill="#fff"/></g></g></svg>