<svg xmlns="http://www.w3.org/2000/svg" width="269.537" height="328.411" viewBox="0 0 269.537 328.411"><g transform="translate(-101.91 -74)"><path d="M362.185,203.6c-53.893-57.078-99.616-16.325-122.056-16.325-22.421,0-89.476-49.1-130.233,38.768C82.587,284.9,133.24,367.287,143.536,381.021c40.1,53.428,71.166,16.325,99.177,16.325,37.1,0,70.3,56.664,128.735-68.919-33.417-19.989-45.483-40.4-45.483-66.1S342.351,217.482,362.185,203.6Z" transform="translate(0 -7.685)" fill="#fff"/><path d="M312.95,74c-28.469,2.494-67.144,29.266-65.343,73.151C280.622,151.041,319.847,110.709,312.95,74Z" transform="translate(-11.285)" fill="#fff"/></g></svg>