<svg xmlns="http://www.w3.org/2000/svg" width="298.563" height="298.563" viewBox="0 0 298.563 298.563"><ellipse cx="55.524" cy="55.524" rx="55.524" ry="55.524" transform="translate(93.758 93.758)" fill="#fff"/><path d="M158.949,95.123v0H293.125A149.306,149.306,0,0,0,42.114,68.775L93.3,156.314A66.166,66.166,0,0,1,158.949,95.123Zm.333,132.321a66.188,66.188,0,0,1-62.227-43.637L35.274,78.152a149.307,149.307,0,0,0,102.5,230.863l51.5-88.748A65.893,65.893,0,0,1,159.282,227.444ZM297.888,105.758H195.271a66.2,66.2,0,0,1,22.156,87.117l.038.023L149.374,310.228c3.276.214,6.578.335,9.908.335A149.353,149.353,0,0,0,297.888,105.758Z" transform="translate(-10 -12)" fill="#fff"/></svg>