<svg xmlns="http://www.w3.org/2000/svg" width="444.015" height="209.996" viewBox="0 0 444.015 209.996"><g transform="translate(308 15824.555)"><g transform="translate(-58 -15824.555)"><g transform="translate(0 27.001)"><path d="M76.135,0A76.135,76.135,0,1,1,0,76.135,76.135,76.135,0,0,1,76.135,0Z" transform="translate(41.746)" fill="#ffdc20"/><g transform="translate(0 26.818)"><g transform="translate(0)"><rect width="167.603" height="99.303" rx="49.651" fill="#182a74"/><circle cx="49.883" cy="49.883" r="49.883" fill="#ff6d00"/><circle cx="25.183" cy="25.183" r="25.183" transform="translate(24.699 24.699)" fill="#fff"/></g></g></g><g transform="translate(96.95)"><ellipse cx="5.722" cy="7.673" rx="5.722" ry="7.673" transform="translate(38.905)" fill="#182a74"/><ellipse cx="5.722" cy="7.673" rx="5.722" ry="7.673" fill="#182a74"/></g><g transform="translate(74.187 189.77)"><g transform="translate(0 0)"><path d="M366.523,911.815a58.883,58.883,0,0,0,87.945,0" transform="translate(-366.523 -911.815)" fill="none" stroke="#182a74" stroke-linecap="round" stroke-miterlimit="10" stroke-width="1"/></g></g></g><g transform="translate(-308 -15824.555)"><g transform="translate(0 27.001)"><path d="M76.135,0A76.135,76.135,0,1,0,152.27,76.135,76.135,76.135,0,0,0,76.135,0Z" transform="translate(0)" fill="#182a74"/><g transform="translate(26.412 26.818)"><rect width="167.603" height="99.303" rx="49.651" fill="#04bf8a"/><path d="M49.883,0A49.883,49.883,0,1,1,0,49.883,49.883,49.883,0,0,1,49.883,0Z" transform="translate(67.838)" fill="red"/><ellipse cx="25.183" cy="25.183" rx="25.183" ry="25.183" transform="translate(92.537 24.699)" fill="#ffdc20"/></g></g><g transform="translate(46.716)"><ellipse cx="5.722" cy="7.673" rx="5.722" ry="7.673" transform="translate(0)" fill="#182a74"/><ellipse cx="5.722" cy="7.673" rx="5.722" ry="7.673" transform="translate(38.905)" fill="#182a74"/></g><g transform="translate(31.883 189.77)"><g transform="translate(0 0)"><path d="M454.468,911.815a58.883,58.883,0,0,1-87.945,0" transform="translate(-366.523 -911.815)" fill="none" stroke="#182a74" stroke-linecap="round" stroke-miterlimit="10" stroke-width="1"/></g></g></g></g></svg>