<svg xmlns="http://www.w3.org/2000/svg" width="696" height="281" viewBox="0 0 696 281"><g transform="translate(-11824 13551)"><g transform="translate(11684 -16404)"><g transform="translate(56 2636)"><ellipse cx="141" cy="140.5" rx="141" ry="140.5" transform="translate(84 217)" fill="#96d5ef"/><path d="M-2654.111,5959.1c-12.492,0-19.975-6.349-19.975-14.184s7.481-14.184,19.975-14.184h0c12.492,0,19.975,6.351,19.975,14.184S-2641.618,5959.1-2654.111,5959.1Z" transform="translate(2848.741 -5642.187)" fill="#fff"/><circle cx="8.131" cy="8.131" r="8.131" transform="translate(192.497 294.596)"/><path d="M-2588.547,5959.1c-12.493,0-19.974-6.349-19.974-14.184s7.48-14.184,19.974-14.184h0c12.492,0,19.974,6.351,19.974,14.184S-2576.055,5959.1-2588.547,5959.1Z" transform="translate(2844.3 -5642.187)" fill="#fff"/><circle cx="8.131" cy="8.131" r="8.131" transform="translate(253.621 294.596)"/><g transform="translate(202.9 398.211)"><path d="M465.631,242.411a3.923,3.923,0,0,1,5.549,0" transform="translate(-427.443 -241.262)" fill="rgba(0,0,0,0)" stroke="#182a74" stroke-linecap="round" stroke-miterlimit="10" stroke-width="1"/><path d="M406.754,242.411a3.924,3.924,0,0,1,5.549,0" transform="translate(-406.754 -241.262)" fill="rgba(0,0,0,0)" stroke="#182a74" stroke-linecap="round" stroke-miterlimit="10" stroke-width="1"/><path d="M449.283,242.149c0,5.44-6.341,14.836-19.126,14.836s-19.126-9.4-19.126-14.836" transform="translate(-408.257 -241.574)" fill="rgba(0,0,0,0)" stroke="#182a74" stroke-linecap="round" stroke-miterlimit="10" stroke-width="1"/></g></g><g transform="translate(554 2853)"><g fill="none" stroke="#182a74" stroke-width="1"><ellipse cx="141" cy="140.5" rx="141" ry="140.5" stroke="none"/><ellipse cx="141" cy="140.5" rx="140.5" ry="140" fill="none"/></g><path d="M-2654.111,5959.1c12.492,0,19.975-6.349,19.975-14.184s-7.481-14.184-19.975-14.184h0c-12.492,0-19.975,6.351-19.975,14.184S-2666.6,5959.1-2654.111,5959.1Z" transform="translate(2825.481 -5859.187)" fill="none" stroke="#182a74" stroke-width="1"/><circle cx="8.131" cy="8.131" r="8.131" transform="translate(157.24 77.596)" fill="#182a74"/><path d="M-2588.547,5959.1c12.493,0,19.974-6.349,19.974-14.184s-7.48-14.184-19.974-14.184h0c-12.492,0-19.974,6.351-19.974,14.184S-2601.04,5959.1-2588.547,5959.1Z" transform="translate(2698.794 -5859.187)" fill="none" stroke="#182a74" stroke-width="1"/><circle cx="8.131" cy="8.131" r="8.131" transform="translate(96.116 77.596)" fill="#182a74"/><g transform="translate(119.363 181.211)"><path d="M471.18,242.411a3.923,3.923,0,0,0-5.549,0" transform="translate(-465.631 -241.262)" fill="rgba(0,0,0,0)" stroke="#182a74" stroke-linecap="round" stroke-miterlimit="10" stroke-width="1"/><path d="M412.3,242.411a3.924,3.924,0,0,0-5.549,0" transform="translate(-368.566 -241.262)" fill="rgba(0,0,0,0)" stroke="#182a74" stroke-linecap="round" stroke-miterlimit="10" stroke-width="1"/><path d="M411.032,242.149c0,5.44,6.341,14.836,19.126,14.836s19.126-9.4,19.126-14.836" transform="translate(-408.321 -241.574)" fill="rgba(0,0,0,0)" stroke="#182a74" stroke-linecap="round" stroke-miterlimit="10" stroke-width="1"/></g></g><g transform="translate(87.998 3142.559)"><g transform="translate(373.517 -200.322)"><path d="M465.492-185.158" transform="translate(-334.975 206.676)" fill="#fff"/><path d="M465.492-174.966" transform="translate(-334.975 210.947)" fill="#fff"/><path d="M501.668-165.159H469.52s-18.563-35.163-53.972-35.163l-21.7.751s-20.332,1.7-20.332,24.175,20.332,23.086,20.332,23.086h9.2c10.766,0,16.936,9.791,27.952,19.583,6.884,6.12,13.417,8.825,16.459,7.423,6.542-3.015,2.387-8.135-.732-11.209-6.87-6.766-11.193-9.9-1.833-13.567,7.922-3.108,56.77-1.693,56.77-1.693a6.693,6.693,0,0,0,6.694-6.692A6.694,6.694,0,0,0,501.668-165.159Z" transform="translate(-373.517 200.322)" fill="#fff"/></g><path d="M440.645-169.525S429.9-189.874,409.41-189.874" transform="translate(15.041 4.378)" fill="none" stroke="#182a74" stroke-linecap="round" stroke-linejoin="round" stroke-width="2"/><path d="M425.028-172.529S419.657-182.7,409.41-182.7" transform="translate(15.041 7.383)" fill="none" stroke="#000" stroke-linecap="round" stroke-linejoin="round" stroke-width="2"/></g></g></g></svg>