<svg xmlns="http://www.w3.org/2000/svg" width="123.445" height="84.509" viewBox="0 0 123.445 84.509"><g transform="translate(-5070.76 -2417.124)"><path d="M5145.72,2417.624h0a47.977,47.977,0,0,0-42.225,25.17h-11.453a20.782,20.782,0,0,0-20.782,20.782h0a20.782,20.782,0,0,0,20.782,20.782h101.663V2465.61A47.986,47.986,0,0,0,5145.72,2417.624Z" fill="#fff" stroke="#182a74" stroke-miterlimit="10" stroke-width="1"/><g transform="translate(5148.014 2467.582)"><g transform="translate(0.003)"><path d="M5262.409,2547.9v-16.781h0a16.781,16.781,0,0,0-16.775,16.781h16.775Z" transform="translate(-5245.634 -2531.118)" fill="#182a74" stroke="#182a74" stroke-miterlimit="10" stroke-width="1"/><path d="M5300.523,2569.236h-16.779v16.772A16.779,16.779,0,0,0,5300.523,2569.236Z" transform="translate(-5266.969 -2552.457)" fill="#182a74" stroke="#182a74" stroke-miterlimit="10" stroke-width="1"/></g><g transform="translate(0 0.004)"><path d="M5283.744,2547.9h16.779a16.78,16.78,0,0,0-16.779-16.775h0Z" transform="translate(-5266.966 -2531.126)" fill="none" stroke="#182a74" stroke-width="1"/><path d="M5262.405,2586.008v-16.772h-16.778A16.778,16.778,0,0,0,5262.405,2586.008Z" transform="translate(-5245.627 -2552.461)" fill="none" stroke="#182a74" stroke-width="1"/></g></g><g transform="translate(5093.27 2467.582)"><g transform="translate(0.003)"><path d="M5262.409,2547.9v-16.781h0a16.781,16.781,0,0,0-16.775,16.781h16.775Z" transform="translate(-5245.634 -2531.118)" fill="#182a74" stroke="#182a74" stroke-miterlimit="10" stroke-width="1"/><path d="M5300.523,2569.236h-16.779v16.772A16.779,16.779,0,0,0,5300.523,2569.236Z" transform="translate(-5266.969 -2552.457)" fill="#182a74" stroke="#182a74" stroke-miterlimit="10" stroke-width="1"/></g><g transform="translate(0 0.004)"><path d="M5283.744,2547.9h16.779a16.78,16.78,0,0,0-16.779-16.775h0Z" transform="translate(-5266.966 -2531.126)" fill="none" stroke="#182a74" stroke-width="1"/><path d="M5262.405,2586.008v-16.772h-16.778A16.778,16.778,0,0,0,5262.405,2586.008Z" transform="translate(-5245.627 -2552.461)" fill="none" stroke="#182a74" stroke-width="1"/></g></g></g></svg>