<svg xmlns="http://www.w3.org/2000/svg" width="1920" height="1080" viewBox="0 0 1920 1080"><rect width="1920" height="1080" fill="#ffdc20"/><g transform="translate(1243.634 916.209)"><g transform="translate(0 0)"><g transform="translate(0)"><ellipse cx="18.23" cy="18.23" rx="18.23" ry="18.23" fill="#fff"/></g></g></g><g transform="translate(171.463 253.021)"><g transform="translate(212.986 71.243)"><path d="M278.313,200.136h0a42.158,42.158,0,0,1,42.157,42.157v90.516H236.151V242.3A42.167,42.167,0,0,1,278.313,200.136Z" transform="translate(-236.147 -200.136)" fill="none" stroke="#182a74" stroke-linecap="round" stroke-miterlimit="10" stroke-width="2"/><path d="M255.882,260.553V482.819a16.494,16.494,0,0,1-16.49,16.5h-.008" transform="translate(-230.676 -97.9)" fill="none" stroke="#182a74" stroke-linecap="round" stroke-miterlimit="10" stroke-width="2"/><path d="M256.743,260.553V335.1a16.5,16.5,0,0,0,16.5,16.5h0" transform="translate(-201.302 -97.9)" fill="none" stroke="#182a74" stroke-linecap="round" stroke-miterlimit="10" stroke-width="2"/><rect width="84.327" height="29.979" transform="translate(0 132.673)" fill="none" stroke="#182a74" stroke-linecap="round" stroke-miterlimit="10" stroke-width="2"/><g transform="translate(17.686 40.544)"><path d="M242.719,229.395a10.992,10.992,0,0,1,15.545-.016l.016.016" transform="translate(-242.719 -226.167)" fill="none" stroke="#182a74" stroke-linecap="round" stroke-miterlimit="10" stroke-width="2"/><path d="M254.034,229.395a10.992,10.992,0,0,1,15.545-.016l.016.016" transform="translate(-223.572 -226.167)" fill="none" stroke="#182a74" stroke-linecap="round" stroke-miterlimit="10" stroke-width="2"/><path d="M258.675,224.224" transform="translate(-215.719 -199.919)" fill="none" stroke="#182a74" stroke-linecap="round" stroke-miterlimit="10" stroke-width="1"/><ellipse cx="6.547" cy="8.779" rx="6.547" ry="8.779" transform="translate(32.566 38.851)" fill="#182a74"/><ellipse cx="6.547" cy="8.779" rx="6.547" ry="8.779" transform="translate(1.903 38.851)" fill="#182a74"/></g></g><g transform="translate(853.293 0)"><g transform="translate(0 99.56)"><ellipse cx="230.043" cy="230.043" rx="230.043" ry="230.043" fill="#ffdc20" stroke="#182a74" stroke-miterlimit="10" stroke-width="2"/><path d="M661.912,241.547H795.177A146.876,146.876,0,0,1,942.054,388.421v.005h0A146.879,146.879,0,0,1,795.177,535.3H661.909A146.878,146.878,0,0,1,515.038,388.426h0A146.877,146.877,0,0,1,661.912,241.547Z" transform="translate(-404.529 -158.379)" fill="#ffdc20" stroke="#182a74" stroke-miterlimit="10" stroke-width="2"/><path d="M146.876,0A146.876,146.876,0,1,1,0,146.876,146.876,146.876,0,0,1,146.876,0Z" transform="translate(245.639 83.168)" fill="#ffdc20" stroke="#182a74" stroke-width="2"/><g transform="translate(-260.146 -142.98)"><g style="isolation:isolate"><g style="isolation:isolate"><path d="M587.389,349.4h21.184a14.374,14.374,0,0,1,10.144,3.562q3.863,3.561,3.863,10.006a14.553,14.553,0,0,1-3.447,9.652q-3.447,4.107-10.55,4.109H593.8V396.74h-6.413Zm24.874,6.51a13.775,13.775,0,0,0-5.791-1H593.8v16.4h12.67a12.049,12.049,0,0,0,6.959-1.836Q616.1,367.64,616.1,363,616.1,357.779,612.263,355.909Z" fill="#182a74"/><path d="M633.372,349.4h6.413v41.7h23.751v5.639H633.372Z" fill="#182a74"/><path d="M686.412,349.4h7.252L710.84,396.74h-7.026l-4.8-14.179H680.29l-5.124,14.179h-6.575Zm10.539,27.941-7.187-20.915-7.638,20.915Z" fill="#182a74"/><path d="M710.729,349.4h7.478l13.609,22.752,13.61-22.752h7.543l-17.93,28.263V396.74h-6.414V377.662Z" fill="#182a74"/></g></g></g></g><ellipse cx="16.346" cy="21.909" rx="16.346" ry="21.909" transform="translate(269.103)" fill="#182a74"/><ellipse cx="16.346" cy="21.909" rx="16.346" ry="21.909" transform="translate(162.73)" fill="#182a74"/></g><line x1="519.362" transform="translate(333.931 331.537)" fill="none" stroke="#182a74" stroke-miterlimit="10" stroke-width="1" stroke-dasharray="12"/><line x1="185.942" transform="translate(1390.818 331.537)" fill="none" stroke="#182a74" stroke-miterlimit="10" stroke-width="1" stroke-dasharray="12"/><line x1="185.942" transform="translate(0 472.658)" fill="none" stroke="#182a74" stroke-miterlimit="10" stroke-width="1" stroke-dasharray="12"/></g></svg>