<?xml version="1.0" encoding="utf-8"?><svg id="diagram" image-rendering="optimizeSpeed" baseProfile="basic" version="1.1" x="0px" y="0px" width="1920" height="1080" xmlns="http://www.w3.org/2000/svg" xmlns:xlink="http://www.w3.org/1999/xlink"><defs><g id="worm eye_0.5" overflow="visible"><path fill="#192D72" stroke="none" d="M5.05 -6.75Q3 -9.55 .05 -9.55 -2.9 -9.55 -5.05 -6.75 -7.15 -3.95 -7.15 -.05 -7.15 3.9 -5.05 6.7 -3 9.5 .05 9.5 3 9.5 5.05 6.7 7.1 3.9 7.1 -.05 7.1 -3.95 5.05 -6.75Z"/></g><g id="worm eye_0.15" overflow="visible"><path fill="#192D72" stroke="none" d="M5.05 -6.75Q3 -9.55 .05 -9.55 -2.9 -9.55 -5.05 -6.75 -7.15 -3.95 -7.15 -.05 -7.15 3.9 -5.05 6.7 -3 9.5 .05 9.5 3 9.5 5.05 6.7 7.1 3.9 7.1 -.05 7.1 -3.95 5.05 -6.75Z"/></g><g id="worm-eye" overflow="visible"><g display="none"><use xlink:href="#worm eye_0.15"/><animate attributeName="display" repeatCount="indefinite" dur="1.133s" keyTimes="0;.441;1" values="none;inline;inline"/></g><g display="none"><use xlink:href="#Tween-2" transform="matrix(1 0 0 .315 0 0)"><animateTransform attributeName="transform" additive="replace" type="scale" repeatCount="indefinite" dur="1.133s" keyTimes="0;.41199;.412;1" values="1,.315;1,.315;1,.657;1,.657" calcMode="discrete"/></use><animate attributeName="display" repeatCount="indefinite" dur="1.133s" keyTimes="0;.382;.441;1" values="none;inline;none;none"/></g><g display="none"><use xlink:href="#Tween-1"><animateTransform attributeName="transform" additive="replace" type="scale" repeatCount="indefinite" dur="1.133s" keyTimes="0;.35299;.353;1" values="1,1;1,1;1,.358;1,.358" calcMode="discrete"/></use><animate attributeName="display" repeatCount="indefinite" dur="1.133s" keyTimes="0;.324;.382;1" values="none;inline;none;none"/></g><g display="none"><use xlink:href="#worm eye_0.5"/><animate attributeName="display" repeatCount="indefinite" dur="1.133s" keyTimes="0;.147;.324;1" values="none;inline;none;none"/></g><g display="none"><use xlink:href="#Tween-2" transform="matrix(1 0 0 .315 0 0)"><animateTransform attributeName="transform" additive="replace" type="scale" repeatCount="indefinite" dur="1.133s" keyTimes="0;.11799;.118;1" values="1,.315;1,.315;1,.657;1,.657" calcMode="discrete"/></use><animate attributeName="display" repeatCount="indefinite" dur="1.133s" keyTimes="0;.088;.147;1" values="none;inline;none;none"/></g><g><use xlink:href="#Tween-1"><animateTransform attributeName="transform" additive="replace" type="scale" repeatCount="indefinite" dur="1.133s" keyTimes="0;.02899;.029;.05899;.059;1" values="1,1;1,1;1,.45;1,.45;1,.323;1,.323" calcMode="discrete"/></use><animate attributeName="display" repeatCount="indefinite" dur="1.133s" keyTimes="0;.088;1" values="inline;none;none"/></g></g><g id="worm-eyet4d34" overflow="visible"><g display="none"><use xlink:href="#worm eye_0.15"/><animate attributeName="display" repeatCount="indefinite" dur="1.133s" keyTimes="0;.324;.882;1" values="none;inline;none;none"/></g><g display="none"><use xlink:href="#Tween-2" transform="matrix(1 0 0 .315 0 0)"><animateTransform attributeName="transform" additive="replace" type="scale" repeatCount="indefinite" dur="1.133s" keyTimes="0;.29399;.294;1" values="1,.315;1,.315;1,.657;1,.657" calcMode="discrete"/></use><animate attributeName="display" repeatCount="indefinite" dur="1.133s" keyTimes="0;.265;.324;1" values="none;inline;none;none"/></g><g display="none"><use xlink:href="#Tween-1"><animateTransform attributeName="transform" additive="replace" type="scale" repeatCount="indefinite" dur="1.133s" keyTimes="0;.23499;.235;1" values="1,1;1,1;1,.358;1,.358" calcMode="discrete"/></use><animate attributeName="display" repeatCount="indefinite" dur="1.133s" keyTimes="0;.206;.265;1" values="none;inline;none;none"/></g><g display="none"><use xlink:href="#worm eye_0.5"/><animate attributeName="display" repeatCount="indefinite" dur="1.133s" keyTimes="0;.029;.206;.912;1" values="none;inline;none;inline;inline"/></g><g><use xlink:href="#Tween-2" transform="matrix(1 0 0 .657 0 0)"/><animate attributeName="display" repeatCount="indefinite" dur="1.133s" keyTimes="0;.029;.882;.912;1" values="inline;none;inline;none;none"/></g></g><g id="Tween-1" overflow="visible"><path fill="#192D72" stroke="none" d="M5.05 -6.75Q3 -9.55 .05 -9.55 -2.9 -9.55 -5.05 -6.75 -7.15 -3.95 -7.15 -.05 -7.15 3.9 -5.05 6.7 -3 9.5 .05 9.5 3 9.5 5.05 6.7 7.1 3.9 7.1 -.05 7.1 -3.95 5.05 -6.75Z"/></g><g id="Tween-2" overflow="visible"><path fill="#192D72" stroke="none" d="M5.05 -6.75Q3 -9.55 .05 -9.55 -2.9 -9.55 -5.05 -6.75 -7.15 -3.95 -7.15 -.05 -7.15 3.9 -5.05 6.7 -3 9.5 .05 9.5 3 9.5 5.05 6.7 7.1 3.9 7.1 -.05 7.1 -3.95 5.05 -6.75Z"/></g></defs><g id="Scene-1" overflow="visible"><g id="Symbol-5" transform="translate(914.3 506.15)"><use xlink:href="#worm-eye" transform="matrix(2.37 0 0 2.37 242.75 -258.6)"/><use xlink:href="#worm-eye" transform="matrix(2.37 0 0 2.37 349.15 -258.6)"/><use xlink:href="#worm-eyet4d34" transform="matrix(1.042 0 0 1.042 -548.6 -121.5)"/><use xlink:href="#worm-eyet4d34" transform="matrix(1.042 0 0 1.042 -517.9 -121.5)"/><g id="currentd34" transform="translate(-.3 -.8)"><g mask="url(#mask_1)"><g id="Symbol-9" transform="translate(-178.45 192.85)"><animateTransform attributeName="transform" additive="replace" type="translate" repeatCount="indefinite" dur="1.133s" keyTimes="0;.02899;.029;.05899;.059;.08799;.088;.11799;.118;.14699;.147;.17699;.177;.20599;.206;.23499;.235;.26499;.265;.29399;.294;.32399;.324;.35299;.353;.38199;.382;.41199;.412;.44099;.441;.47099;.471;.49999;.5;.52999;.53;.55899;.559;.58799;.588;.61799;.618;.64699;.647;.67699;.677;.70599;.706;.73599;.736;.76499;.765;.79399;.794;.82399;.824;.85299;.853;.88299;.883;.91199;.912;.94099;.941;.97099;.971;1" values="-178.45,192.85;-178.45,192.85;-247.8,192.85;-247.8,192.85;-317.1,192.85;-317.1,192.85;-386.45,192.85;-386.45,192.85;-455.75,192.85;-455.75,192.85;-525.1,192.85;-525.1,192.85;-594.45,192.85;-594.45,192.85;-663.75,192.85;-663.75,192.85;-733.15,192.85;-733.15,192.85;-802.45,192.85;-802.45,192.85;-871.8,192.85;-871.8,192.85;-941.1,192.85;-941.1,192.85;-1010.45,192.85;-1010.45,192.85;-1079.8,192.85;-1079.8,192.85;-1149.1,192.85;-1149.1,192.85;-1218.45,192.85;-1218.45,192.85;-178.45,192.85;-178.45,192.85;-247.8,192.85;-247.8,192.85;-317.1,192.85;-317.1,192.85;-386.45,192.85;-386.45,192.85;-455.75,192.85;-455.75,192.85;-525.1,192.85;-525.1,192.85;-594.45,192.85;-594.45,192.85;-663.75,192.85;-663.75,192.85;-733.15,192.85;-733.15,192.85;-802.45,192.85;-802.45,192.85;-871.8,192.85;-871.8,192.85;-941.1,192.85;-941.1,192.85;-1010.45,192.85;-1010.45,192.85;-1079.8,192.85;-1079.8,192.85;-1149.1,192.85;-1149.1,192.85;-1218.45,192.85;-1218.45,192.85;-178.45,192.85;-178.45,192.85;-247.8,192.85;-247.8,192.85" calcMode="discrete"/><path fill="#192D72" stroke="none" d="M602.1 -1Q601.689 -.996 601.4 -.7 601.103 -.410 601.1 0 601.103 .410 601.4 .7 601.689 .996 602.1 1L614.1 1Q614.510 .996 614.8 .7 615.096 .410 615.1 0 615.096 -.410 614.8 -.7 614.510 -.996 614.1 -1L602.1 -1M589.8 -.7Q589.510 -.996 589.1 -1L577.1 -1Q576.689 -.996 576.4 -.7 576.103 -.410 576.1 0 576.103 .410 576.4 .7 576.689 .996 577.1 1L589.1 1Q589.510 .996 589.8 .7 590.096 .410 590.1 0 590.096 -.410 589.8 -.7M564.8 -.7Q564.510 -.996 564.1 -1L552.1 -1Q551.689 -.996 551.4 -.7 551.103 -.410 551.1 0 551.103 .410 551.4 .7 551.689 .996 552.1 1L564.1 1Q564.510 .996 564.8 .7 565.096 .410 565.1 0 565.096 -.410 564.8 -.7M539.8 -.7Q539.510 -.996 539.1 -1L527.1 -1Q526.689 -.996 526.4 -.7 526.103 -.410 526.1 0 526.103 .410 526.4 .7 526.689 .996 527.1 1L539.1 1Q539.510 .996 539.8 .7 540.096 .410 540.1 0 540.096 -.410 539.8 -.7M514.8 -.7Q514.510 -.996 514.1 -1L502.1 -1Q501.689 -.996 501.4 -.7 501.103 -.410 501.1 0 501.103 .410 501.4 .7 501.689 .996 502.1 1L514.1 1Q514.510 .996 514.8 .7 515.096 .410 515.1 0 515.096 -.410 514.8 -.7M477.1 -1Q476.689 -.996 476.4 -.7 476.103 -.410 476.1 0 476.103 .410 476.4 .7 476.689 .996 477.1 1L489.1 1Q489.510 .996 489.8 .7 490.096 .410 490.1 0 490.096 -.410 489.8 -.7 489.510 -.996 489.1 -1L477.1 -1M464.8 -.7Q464.510 -.996 464.1 -1L452.1 -1Q451.689 -.996 451.4 -.7 451.103 -.410 451.1 0 451.103 .410 451.4 .7 451.689 .996 452.1 1L464.1 1Q464.510 .996 464.8 .7 465.096 .410 465.1 0 465.096 -.410 464.8 -.7M439.8 -.7Q439.510 -.996 439.1 -1L427.1 -1Q426.689 -.996 426.4 -.7 426.103 -.410 426.1 0 426.103 .410 426.4 .7 426.689 .996 427.1 1L439.1 1Q439.510 .996 439.8 .7 440.096 .410 440.1 0 440.096 -.410 439.8 -.7M402.1 -1Q401.689 -.996 401.4 -.7 401.103 -.410 401.1 0 401.103 .410 401.4 .7 401.689 .996 402.1 1L414.1 1Q414.510 .996 414.8 .7 415.096 .410 415.1 0 415.096 -.410 414.8 -.7 414.510 -.996 414.1 -1L402.1 -1M389.8 -.7Q389.510 -.996 389.1 -1L377.1 -1Q376.689 -.996 376.4 -.7 376.103 -.410 376.1 0 376.103 .410 376.4 .7 376.689 .996 377.1 1L389.1 1Q389.510 .996 389.8 .7 390.096 .410 390.1 0 390.096 -.410 389.8 -.7M352.1 -1Q351.689 -.996 351.4 -.7 351.103 -.410 351.1 0 351.103 .410 351.4 .7 351.689 .996 352.1 1L364.1 1Q364.510 .996 364.8 .7 365.096 .410 365.1 0 365.096 -.410 364.8 -.7 364.510 -.996 364.1 -1L352.1 -1M339.8 -.7Q339.510 -.996 339.1 -1L327.1 -1Q326.689 -.996 326.4 -.7 326.103 -.410 326.1 0 326.103 .410 326.4 .7 326.689 .996 327.1 1L339.1 1Q339.510 .996 339.8 .7 340.096 .410 340.1 0 340.096 -.410 339.8 -.7M314.8 -.7Q314.510 -.996 314.1 -1L302.1 -1Q301.689 -.996 301.4 -.7 301.103 -.410 301.1 0 301.103 .410 301.4 .7 301.689 .996 302.1 1L314.1 1Q314.510 .996 314.8 .7 315.096 .410 315.1 0 315.096 -.410 314.8 -.7M277.1 -1Q276.689 -.996 276.4 -.7 276.103 -.410 276.1 0 276.103 .410 276.4 .7 276.689 .996 277.1 1L289.1 1Q289.510 .996 289.8 .7 290.096 .410 290.1 0 290.096 -.410 289.8 -.7 289.510 -.996 289.1 -1L277.1 -1M264.8 -.7Q264.510 -.996 264.1 -1L252.1 -1Q251.689 -.996 251.4 -.7 251.103 -.410 251.1 0 251.103 .410 251.4 .7 251.689 .996 252.1 1L264.1 1Q264.510 .996 264.8 .7 265.096 .410 265.1 0 265.096 -.410 264.8 -.7M239.8 -.7Q239.510 -.996 239.1 -1L227.1 -1Q226.689 -.996 226.4 -.7 226.103 -.410 226.1 0 226.103 .410 226.4 .7 226.689 .996 227.1 1L239.1 1Q239.510 .996 239.8 .7 240.096 .410 240.1 0 240.096 -.410 239.8 -.7M202.1 -1Q201.689 -.996 201.4 -.7 201.103 -.410 201.1 0 201.103 .410 201.4 .7 201.689 .996 202.1 1L214.1 1Q214.510 .996 214.8 .7 215.096 .410 215.1 0 215.096 -.410 214.8 -.7 214.510 -.996 214.1 -1L202.1 -1M189.8 -.7Q189.510 -.996 189.1 -1L177.1 -1Q176.689 -.996 176.4 -.7 176.103 -.410 176.1 0 176.103 .410 176.4 .7 176.689 .996 177.1 1L189.1 1Q189.510 .996 189.8 .7 190.096 .410 190.1 0 190.096 -.410 189.8 -.7M152.1 -1Q151.689 -.996 151.4 -.7 151.103 -.410 151.1 0 151.103 .410 151.4 .7 151.689 .996 152.1 1L164.1 1Q164.510 .996 164.8 .7 165.096 .410 165.1 0 165.096 -.410 164.8 -.7 164.510 -.996 164.1 -1L152.1 -1M139.8 -.7Q139.510 -.996 139.1 -1L127.1 -1Q126.689 -.996 126.4 -.7 126.103 -.410 126.1 0 126.103 .410 126.4 .7 126.689 .996 127.1 1L139.1 1Q139.510 .996 139.8 .7 140.096 .410 140.1 0 140.096 -.410 139.8 -.7M114.8 -.7Q114.510 -.996 114.1 -1L102.1 -1Q101.689 -.996 101.4 -.7 101.103 -.410 101.1 0 101.103 .410 101.4 .7 101.689 .996 102.1 1L114.1 1Q114.510 .996 114.8 .7 115.096 .410 115.1 0 115.096 -.410 114.8 -.7M77.1 -1Q76.689 -.996 76.4 -.7 76.103 -.410 76.1 0 76.103 .410 76.4 .7 76.689 .996 77.1 1L89.1 1Q89.510 .996 89.8 .7 90.096 .410 90.1 0 90.096 -.410 89.8 -.7 89.510 -.996 89.1 -1L77.1 -1M64.8 -.7Q64.510 -.996 64.1 -1L52.1 -1Q51.689 -.996 51.4 -.7 51.103 -.410 51.1 0 51.103 .410 51.4 .7 51.689 .996 52.1 1L64.1 1Q64.510 .996 64.8 .7 65.096 .410 65.1 0 65.096 -.410 64.8 -.7M39.8 -.7Q39.510 -.996 39.1 -1L27.1 -1Q26.689 -.996 26.4 -.7 26.103 -.410 26.1 0 26.103 .410 26.4 .7 26.689 .996 27.1 1L39.1 1Q39.510 .996 39.8 .7 40.096 .410 40.1 0 40.096 -.410 39.8 -.7M14.8 -.7Q14.510 -.996 14.1 -1L2.1 -1Q1.689 -.996 1.4 -.7 1.103 -.410 1.1 0 1.103 .410 1.4 .7 1.689 .996 2.1 1L14.1 1Q14.510 .996 14.8 .7 15.096 .410 15.1 0 15.096 -.410 14.8 -.7M-10.2 -.7Q-10.489 -.996 -10.9 -1L-22.9 -1Q-23.310 -.996 -23.6 -.7 -23.896 -.410 -23.9 0 -23.896 .410 -23.6 .7 -23.310 .996 -22.9 1L-10.9 1Q-10.489 .996 -10.2 .7 -9.903 .410 -9.9 0 -9.903 -.410 -10.2 -.7M-47.9 -1Q-48.310 -.996 -48.6 -.7 -48.896 -.410 -48.9 0 -48.896 .410 -48.6 .7 -48.310 .996 -47.9 1L-35.9 1Q-35.489 .996 -35.2 .7 -34.903 .410 -34.9 0 -34.903 -.410 -35.2 -.7 -35.489 -.996 -35.9 -1L-47.9 -1M-60.2 -.7Q-60.489 -.996 -60.9 -1L-72.9 -1Q-73.310 -.996 -73.6 -.7 -73.896 -.410 -73.9 0 -73.896 .410 -73.6 .7 -73.310 .996 -72.9 1L-60.9 1Q-60.489 .996 -60.2 .7 -59.903 .410 -59.9 0 -59.903 -.410 -60.2 -.7M-85.2 -.7Q-85.489 -.996 -85.9 -1L-97.9 -1Q-98.310 -.996 -98.6 -.7 -98.896 -.410 -98.9 0 -98.896 .410 -98.6 .7 -98.310 .996 -97.9 1L-85.9 1Q-85.489 .996 -85.2 .7 -84.903 .410 -84.9 0 -84.903 -.410 -85.2 -.7M-122.9 -1Q-123.310 -.996 -123.6 -.7 -123.896 -.410 -123.9 0 -123.896 .410 -123.6 .7 -123.310 .996 -122.9 1L-110.9 1Q-110.489 .996 -110.2 .7 -109.903 .410 -109.9 0 -109.903 -.410 -110.2 -.7 -110.489 -.996 -110.9 -1L-122.9 -1M-135.2 -.7Q-135.489 -.996 -135.9 -1L-147.9 -1Q-148.310 -.996 -148.6 -.7 -148.896 -.410 -148.9 0 -148.896 .410 -148.6 .7 -148.310 .996 -147.9 1L-135.9 1Q-135.489 .996 -135.2 .7 -134.903 .410 -134.9 0 -134.903 -.410 -135.2 -.7M-172.9 -1Q-173.310 -.996 -173.6 -.7 -173.896 -.410 -173.9 0 -173.896 .410 -173.6 .7 -173.310 .996 -172.9 1L-160.9 1Q-160.489 .996 -160.2 .7 -159.903 .410 -159.9 0 -159.903 -.410 -160.2 -.7 -160.489 -.996 -160.9 -1L-172.9 -1M-185.2 -.7Q-185.489 -.996 -185.9 -1L-197.9 -1Q-198.310 -.996 -198.6 -.7 -198.896 -.410 -198.9 0 -198.896 .410 -198.6 .7 -198.310 .996 -197.9 1L-185.9 1Q-185.489 .996 -185.2 .7 -184.903 .410 -184.9 0 -184.903 -.410 -185.2 -.7M-210.2 -.7Q-210.489 -.996 -210.9 -1L-222.9 -1Q-223.310 -.996 -223.6 -.7 -223.896 -.410 -223.9 0 -223.896 .410 -223.6 .7 -223.310 .996 -222.9 1L-210.9 1Q-210.489 .996 -210.2 .7 -209.903 .410 -209.9 0 -209.903 -.410 -210.2 -.7M-247.9 -1Q-248.310 -.996 -248.6 -.7 -248.896 -.410 -248.9 0 -248.896 .410 -248.6 .7 -248.310 .996 -247.9 1L-235.9 1Q-235.489 .996 -235.2 .7 -234.903 .410 -234.9 0 -234.903 -.410 -235.2 -.7 -235.489 -.996 -235.9 -1L-247.9 -1M-260.2 -.7Q-260.489 -.996 -260.9 -1L-272.9 -1Q-273.310 -.996 -273.6 -.7 -273.896 -.410 -273.9 0 -273.896 .410 -273.6 .7 -273.310 .996 -272.9 1L-260.9 1Q-260.489 .996 -260.2 .7 -259.903 .410 -259.9 0 -259.903 -.410 -260.2 -.7M-285.2 -.7Q-285.489 -.996 -285.9 -1L-297.9 -1Q-298.310 -.996 -298.6 -.7 -298.896 -.410 -298.9 0 -298.896 .410 -298.6 .7 -298.310 .996 -297.9 1L-285.9 1Q-285.489 .996 -285.2 .7 -284.903 .410 -284.9 0 -284.903 -.410 -285.2 -.7M-310.2 -.7Q-310.489 -.996 -310.9 -1L-322.9 -1Q-323.310 -.996 -323.6 -.7 -323.896 -.410 -323.9 0 -323.896 .410 -323.6 .7 -323.310 .996 -322.9 1L-310.9 1Q-310.489 .996 -310.2 .7 -309.903 .410 -309.9 0 -309.903 -.410 -310.2 -.7M-335.2 -.7Q-335.489 -.996 -335.9 -1L-347.9 -1Q-348.310 -.996 -348.6 -.7 -348.896 -.410 -348.9 0 -348.896 .410 -348.6 .7 -348.310 .996 -347.9 1L-335.9 1Q-335.489 .996 -335.2 .7 -334.903 .410 -334.9 0 -334.903 -.410 -335.2 -.7M-372.9 -1Q-373.310 -.996 -373.6 -.7 -373.896 -.410 -373.9 0 -373.896 .410 -373.6 .7 -373.310 .996 -372.9 1L-360.9 1Q-360.489 .996 -360.2 .7 -359.903 .410 -359.9 0 -359.903 -.410 -360.2 -.7 -360.489 -.996 -360.9 -1L-372.9 -1M-385.2 -.7Q-385.489 -.996 -385.9 -1L-397.9 -1Q-398.310 -.996 -398.6 -.7 -398.896 -.410 -398.9 0 -398.896 .410 -398.6 .7 -398.310 .996 -397.9 1L-385.9 1Q-385.489 .996 -385.2 .7 -384.903 .410 -384.9 0 -384.903 -.410 -385.2 -.7M-410.2 -.7Q-410.489 -.996 -410.9 -1L-422.9 -1Q-423.310 -.996 -423.6 -.7 -423.896 -.410 -423.9 0 -423.896 .410 -423.6 .7 -423.310 .996 -422.9 1L-410.9 1Q-410.489 .996 -410.2 .7 -409.903 .410 -409.9 0 -409.903 -.410 -410.2 -.7M-447.9 -1Q-448.310 -.996 -448.6 -.7 -448.896 -.410 -448.9 0 -448.896 .410 -448.6 .7 -448.310 .996 -447.9 1L-435.9 1Q-435.489 .996 -435.2 .7 -434.903 .410 -434.9 0 -434.903 -.410 -435.2 -.7 -435.489 -.996 -435.9 -1L-447.9 -1M-460.2 -.7Q-460.489 -.996 -460.9 -1L-472.9 -1Q-473.310 -.996 -473.6 -.7 -473.896 -.410 -473.9 0 -473.896 .410 -473.6 .7 -473.310 .996 -472.9 1L-460.9 1Q-460.489 .996 -460.2 .7 -459.903 .410 -459.9 0 -459.903 -.410 -460.2 -.7M-497.9 -1Q-498.310 -.996 -498.6 -.7 -498.896 -.410 -498.9 0 -498.896 .410 -498.6 .7 -498.310 .996 -497.9 1L-485.9 1Q-485.489 .996 -485.2 .7 -484.903 .410 -484.9 0 -484.903 -.410 -485.2 -.7 -485.489 -.996 -485.9 -1L-497.9 -1M-510.2 -.7Q-510.489 -.996 -510.9 -1L-522.9 -1Q-523.310 -.996 -523.6 -.7 -523.896 -.410 -523.9 0 -523.896 .410 -523.6 .7 -523.310 .996 -522.9 1L-510.9 1Q-510.489 .996 -510.2 .7 -509.903 .410 -509.9 0 -509.903 -.410 -510.2 -.7M-535.2 -.7Q-535.489 -.996 -535.9 -1L-547.9 -1Q-548.310 -.996 -548.6 -.7 -548.896 -.410 -548.9 0 -548.896 .410 -548.6 .7 -548.310 .996 -547.9 1L-535.9 1Q-535.489 .996 -535.2 .7 -534.903 .410 -534.9 0 -534.903 -.410 -535.2 -.7M-572.9 -1Q-573.310 -.996 -573.6 -.7 -573.896 -.410 -573.9 0 -573.896 .410 -573.6 .7 -573.310 .996 -572.9 1L-560.9 1Q-560.489 .996 -560.2 .7 -559.903 .410 -559.9 0 -559.903 -.410 -560.2 -.7 -560.489 -.996 -560.9 -1L-572.9 -1M-585.2 -.7Q-585.489 -.996 -585.9 -1L-597.9 -1Q-598.310 -.996 -598.6 -.7 -598.896 -.410 -598.9 0 -598.896 .410 -598.6 .7 -598.310 .996 -597.9 1L-585.9 1Q-585.489 .996 -585.2 .7 -584.903 .410 -584.9 0 -584.903 -.410 -585.2 -.7M-610.2 -.7Q-610.489 -.996 -610.9 -1L-622.9 -1Q-623.310 -.996 -623.6 -.7 -623.896 -.410 -623.9 0 -623.896 .410 -623.6 .7 -623.310 .996 -622.9 1L-610.9 1Q-610.489 .996 -610.2 .7 -609.903 .410 -609.9 0 -609.903 -.410 -610.2 -.7Z"/></g></g><mask id="mask_1"><g><g id="current_2.0"><g><g id="Layer4_0_FILL"><path fill="#FFF" stroke="none" d="M-601.5 233.1L-601.5 165 -787.8 165 -787.8 233.1 -601.5 233.1Z" fill-opacity="1"/></g></g></g></g></mask><g mask="url(#mask_)"><g id="Symbol-8" transform="translate(1087.6 50.75)"><animateTransform attributeName="transform" additive="replace" type="translate" repeatCount="indefinite" dur="1.133s" keyTimes="0;.02899;.029;.05899;.059;.08799;.088;.11799;.118;.14699;.147;.17699;.177;.20599;.206;.23499;.235;.26499;.265;.29399;.294;.32399;.324;.35299;.353;.38199;.382;.41199;.412;.44099;.441;.47099;.471;.49999;.5;.52999;.53;.55899;.559;.58799;.588;.61799;.618;.64699;.647;.67699;.677;.70599;.706;.73599;.736;.76499;.765;.79399;.794;.82399;.824;.85299;.853;.88299;.883;.91199;.912;.94099;.941;.97099;.971;1" values="1087.6,50.75;1087.6,50.75;970.25,50.75;970.25,50.75;852.95,50.75;852.95,50.75;735.6,50.75;735.6,50.75;618.3,50.75;618.3,50.75;500.95,50.75;500.95,50.75;383.6,50.75;383.6,50.75;266.3,50.75;266.3,50.75;148.9,50.75;148.9,50.75;31.6,50.75;31.6,50.75;-85.75,50.75;-85.75,50.75;-203.05,50.75;-203.05,50.75;-320.4,50.75;-320.4,50.75;-437.75,50.75;-437.75,50.75;-555.05,50.75;-555.05,50.75;-672.4,50.75;-672.4,50.75;1087.6,50.75;1087.6,50.75;970.25,50.75;970.25,50.75;852.95,50.75;852.95,50.75;735.6,50.75;735.6,50.75;618.3,50.75;618.3,50.75;500.95,50.75;500.95,50.75;383.6,50.75;383.6,50.75;266.3,50.75;266.3,50.75;148.9,50.75;148.9,50.75;31.6,50.75;31.6,50.75;-85.75,50.75;-85.75,50.75;-203.05,50.75;-203.05,50.75;-320.4,50.75;-320.4,50.75;-437.75,50.75;-437.75,50.75;-555.05,50.75;-555.05,50.75;-672.4,50.75;-672.4,50.75;1087.6,50.75;1087.6,50.75;970.25,50.75;970.25,50.75" calcMode="discrete"/><g transform="translate(-2047.6 -590.75)" id="Layer8_0_STROKES_1_FILL"><path fill="#192D72" stroke="none" d="M629 591.45Q629.289 591.746 629.7 591.75L641.7 591.75Q642.110 591.746 642.4 591.45 642.696 591.160 642.7 590.75 642.696 590.339 642.4 590.05 642.110 589.753 641.7 589.75L629.7 589.75Q629.289 589.753 629 590.05 628.703 590.339 628.7 590.75 628.703 591.160 629 591.45M604 591.45Q604.289 591.746 604.7 591.75L616.7 591.75Q617.110 591.746 617.4 591.45 617.696 591.160 617.7 590.75 617.696 590.339 617.4 590.05 617.110 589.753 616.7 589.75L604.7 589.75Q604.289 589.753 604 590.05 603.703 590.339 603.7 590.75 603.703 591.160 604 591.45M579.7 589.75Q579.289 589.753 579 590.05 578.703 590.339 578.7 590.75 578.703 591.160 579 591.45 579.289 591.746 579.7 591.75L591.7 591.75Q592.110 591.746 592.4 591.45 592.696 591.160 592.7 590.75 592.696 590.339 592.4 590.05 592.110 589.753 591.7 589.75L579.7 589.75M554 591.45Q554.289 591.746 554.7 591.75L566.7 591.75Q567.110 591.746 567.4 591.45 567.696 591.160 567.7 590.75 567.696 590.339 567.4 590.05 567.110 589.753 566.7 589.75L554.7 589.75Q554.289 589.753 554 590.05 553.703 590.339 553.7 590.75 553.703 591.160 554 591.45M529 591.45Q529.289 591.746 529.7 591.75L541.7 591.75Q542.110 591.746 542.4 591.45 542.696 591.160 542.7 590.75 542.696 590.339 542.4 590.05 542.110 589.753 541.7 589.75L529.7 589.75Q529.289 589.753 529 590.05 528.703 590.339 528.7 590.75 528.703 591.160 529 591.45M504.7 589.75Q504.289 589.753 504 590.05 503.703 590.339 503.7 590.75 503.703 591.160 504 591.45 504.289 591.746 504.7 591.75L516.7 591.75Q517.110 591.746 517.4 591.45 517.696 591.160 517.7 590.75 517.696 590.339 517.4 590.05 517.110 589.753 516.7 589.75L504.7 589.75M1104.7 589.75Q1104.289 589.753 1104 590.05 1103.703 590.339 1103.7 590.75 1103.703 591.160 1104 591.45 1104.289 591.746 1104.7 591.75L1116.7 591.75Q1117.110 591.746 1117.4 591.45 1117.696 591.160 1117.7 590.75 1117.696 590.339 1117.4 590.05 1117.110 589.753 1116.7 589.75L1104.7 589.75M1079 591.45Q1079.289 591.746 1079.7 591.75L1091.7 591.75Q1092.110 591.746 1092.4 591.45 1092.696 591.160 1092.7 590.75 1092.696 590.339 1092.4 590.05 1092.110 589.753 1091.7 589.75L1079.7 589.75Q1079.289 589.753 1079 590.05 1078.703 590.339 1078.7 590.75 1078.703 591.160 1079 591.45M1054 591.45Q1054.289 591.746 1054.7 591.75L1066.7 591.75Q1067.110 591.746 1067.4 591.45 1067.696 591.160 1067.7 590.75 1067.696 590.339 1067.4 590.05 1067.110 589.753 1066.7 589.75L1054.7 589.75Q1054.289 589.753 1054 590.05 1053.703 590.339 1053.7 590.75 1053.703 591.160 1054 591.45M1029.7 589.75Q1029.289 589.753 1029 590.05 1028.703 590.339 1028.7 590.75 1028.703 591.160 1029 591.45 1029.289 591.746 1029.7 591.75L1041.7 591.75Q1042.110 591.746 1042.4 591.45 1042.696 591.160 1042.7 590.75 1042.696 590.339 1042.4 590.05 1042.110 589.753 1041.7 589.75L1029.7 589.75M1004 591.45Q1004.289 591.746 1004.7 591.75L1016.7 591.75Q1017.110 591.746 1017.4 591.45 1017.696 591.160 1017.7 590.75 1017.696 590.339 1017.4 590.05 1017.110 589.753 1016.7 589.75L1004.7 589.75Q1004.289 589.753 1004 590.05 1003.703 590.339 1003.7 590.75 1003.703 591.160 1004 591.45M991.7 589.75L979.7 589.75Q979.289 589.753 979 590.05 978.703 590.339 978.7 590.75 978.703 591.160 979 591.45 979.289 591.746 979.7 591.75L991.7 591.75Q992.110 591.746 992.4 591.45 992.696 591.160 992.7 590.75 992.696 590.339 992.4 590.05 992.110 589.753 991.7 589.75M1279 591.45Q1279.289 591.746 1279.7 591.75L1291.7 591.75Q1292.110 591.746 1292.4 591.45 1292.696 591.160 1292.7 590.75 1292.696 590.339 1292.4 590.05 1292.110 589.753 1291.7 589.75L1279.7 589.75Q1279.289 589.753 1279 590.05 1278.703 590.339 1278.7 590.75 1278.703 591.160 1279 591.45M1254 591.45Q1254.289 591.746 1254.7 591.75L1266.7 591.75Q1267.110 591.746 1267.4 591.45 1267.696 591.160 1267.7 590.75 1267.696 590.339 1267.4 590.05 1267.110 589.753 1266.7 589.75L1254.7 589.75Q1254.289 589.753 1254 590.05 1253.703 590.339 1253.7 590.75 1253.703 591.160 1254 591.45M1229.7 589.75Q1229.289 589.753 1229 590.05 1228.703 590.339 1228.7 590.75 1228.703 591.160 1229 591.45 1229.289 591.746 1229.7 591.75L1241.7 591.75Q1242.110 591.746 1242.4 591.45 1242.696 591.160 1242.7 590.75 1242.696 590.339 1242.4 590.05 1242.110 589.753 1241.7 589.75L1229.7 589.75M1204 591.45Q1204.289 591.746 1204.7 591.75L1216.7 591.75Q1217.110 591.746 1217.4 591.45 1217.696 591.160 1217.7 590.75 1217.696 590.339 1217.4 590.05 1217.110 589.753 1216.7 589.75L1204.7 589.75Q1204.289 589.753 1204 590.05 1203.703 590.339 1203.7 590.75 1203.703 591.160 1204 591.45M1179 591.45Q1179.289 591.746 1179.7 591.75L1191.7 591.75Q1192.110 591.746 1192.4 591.45 1192.696 591.160 1192.7 590.75 1192.696 590.339 1192.4 590.05 1192.110 589.753 1191.7 589.75L1179.7 589.75Q1179.289 589.753 1179 590.05 1178.703 590.339 1178.7 590.75 1178.703 591.160 1179 591.45M1154 590.05Q1153.703 590.339 1153.7 590.75 1153.703 591.160 1154 591.45 1154.289 591.746 1154.7 591.75L1166.7 591.75Q1167.110 591.746 1167.4 591.45 1167.696 591.160 1167.7 590.75 1167.696 590.339 1167.4 590.05 1167.110 589.753 1166.7 589.75L1154.7 589.75Q1154.289 589.753 1154 590.05M1142.4 590.05Q1142.110 589.753 1141.7 589.75L1129.7 589.75Q1129.289 589.753 1129 590.05 1128.703 590.339 1128.7 590.75 1128.703 591.160 1129 591.45 1129.289 591.746 1129.7 591.75L1141.7 591.75Q1142.110 591.746 1142.4 591.45 1142.696 591.160 1142.7 590.75 1142.696 590.339 1142.4 590.05M779.7 589.75Q779.289 589.753 779 590.05 778.703 590.339 778.7 590.75 778.703 591.160 779 591.45 779.289 591.746 779.7 591.75L791.7 591.75Q792.110 591.746 792.4 591.45 792.696 591.160 792.7 590.75 792.696 590.339 792.4 590.05 792.110 589.753 791.7 589.75L779.7 589.75M754 591.45Q754.289 591.746 754.7 591.75L766.7 591.75Q767.110 591.746 767.4 591.45 767.696 591.160 767.7 590.75 767.696 590.339 767.4 590.05 767.110 589.753 766.7 589.75L754.7 589.75Q754.289 589.753 754 590.05 753.703 590.339 753.7 590.75 753.703 591.160 754 591.45M742.4 590.05Q742.110 589.753 741.7 589.75L729.7 589.75Q729.289 589.753 729 590.05 728.703 590.339 728.7 590.75 728.703 591.160 729 591.45 729.289 591.746 729.7 591.75L741.7 591.75Q742.110 591.746 742.4 591.45 742.696 591.160 742.7 590.75 742.696 590.339 742.4 590.05M704.7 589.75Q704.289 589.753 704 590.05 703.703 590.339 703.7 590.75 703.703 591.160 704 591.45 704.289 591.746 704.7 591.75L716.7 591.75Q717.110 591.746 717.4 591.45 717.696 591.160 717.7 590.75 717.696 590.339 717.4 590.05 717.110 589.753 716.7 589.75L704.7 589.75M679 591.45Q679.289 591.746 679.7 591.75L691.7 591.75Q692.110 591.746 692.4 591.45 692.696 591.160 692.7 590.75 692.696 590.339 692.4 590.05 692.110 589.753 691.7 589.75L679.7 589.75Q679.289 589.753 679 590.05 678.703 590.339 678.7 590.75 678.703 591.160 679 591.45M654 591.45Q654.289 591.746 654.7 591.75L666.7 591.75Q667.110 591.746 667.4 591.45 667.696 591.160 667.7 590.75 667.696 590.339 667.4 590.05 667.110 589.753 666.7 589.75L654.7 589.75Q654.289 589.753 654 590.05 653.703 590.339 653.7 590.75 653.703 591.160 654 591.45M954 591.45Q954.289 591.746 954.7 591.75L966.7 591.75Q967.110 591.746 967.4 591.45 967.696 591.160 967.7 590.75 967.696 590.339 967.4 590.05 967.110 589.753 966.7 589.75L954.7 589.75Q954.289 589.753 954 590.05 953.703 590.339 953.7 590.75 953.703 591.160 954 591.45M929 591.45Q929.289 591.746 929.7 591.75L941.7 591.75Q942.110 591.746 942.4 591.45 942.696 591.160 942.7 590.75 942.696 590.339 942.4 590.05 942.110 589.753 941.7 589.75L929.7 589.75Q929.289 589.753 929 590.05 928.703 590.339 928.7 590.75 928.703 591.160 929 591.45M904.7 589.75Q904.289 589.753 904 590.05 903.703 590.339 903.7 590.75 903.703 591.160 904 591.45 904.289 591.746 904.7 591.75L916.7 591.75Q917.110 591.746 917.4 591.45 917.696 591.160 917.7 590.75 917.696 590.339 917.4 590.05 917.110 589.753 916.7 589.75L904.7 589.75M879 591.45Q879.289 591.746 879.7 591.75L891.7 591.75Q892.110 591.746 892.4 591.45 892.696 591.160 892.7 590.75 892.696 590.339 892.4 590.05 892.110 589.753 891.7 589.75L879.7 589.75Q879.289 589.753 879 590.05 878.703 590.339 878.7 590.75 878.703 591.160 879 591.45M854 591.45Q854.289 591.746 854.7 591.75L866.7 591.75Q867.110 591.746 867.4 591.45 867.696 591.160 867.7 590.75 867.696 590.339 867.4 590.05 867.110 589.753 866.7 589.75L854.7 589.75Q854.289 589.753 854 590.05 853.703 590.339 853.7 590.75 853.703 591.160 854 591.45M829.7 589.75Q829.289 589.753 829 590.05 828.703 590.339 828.7 590.75 828.703 591.160 829 591.45 829.289 591.746 829.7 591.75L841.7 591.75Q842.110 591.746 842.4 591.45 842.696 591.160 842.7 590.75 842.696 590.339 842.4 590.05 842.110 589.753 841.7 589.75L829.7 589.75M817.4 590.05Q817.110 589.753 816.7 589.75L804.7 589.75Q804.289 589.753 804 590.05 803.703 590.339 803.7 590.75 803.703 591.160 804 591.45 804.289 591.746 804.7 591.75L816.7 591.75Q817.110 591.746 817.4 591.45 817.696 591.160 817.7 590.75 817.696 590.339 817.4 590.05M1754.7 589.75Q1754.289 589.753 1754 590.05 1753.703 590.339 1753.7 590.75 1753.703 591.160 1754 591.45 1754.289 591.746 1754.7 591.75L1766.7 591.75Q1767.110 591.746 1767.4 591.45 1767.696 591.160 1767.7 590.75 1767.696 590.339 1767.4 590.05 1767.110 589.753 1766.7 589.75L1754.7 589.75M1729 591.45Q1729.289 591.746 1729.7 591.75L1741.7 591.75Q1742.110 591.746 1742.4 591.45 1742.696 591.160 1742.7 590.75 1742.696 590.339 1742.4 590.05 1742.110 589.753 1741.7 589.75L1729.7 589.75Q1729.289 589.753 1729 590.05 1728.703 590.339 1728.7 590.75 1728.703 591.160 1729 591.45M1704 591.45Q1704.289 591.746 1704.7 591.75L1716.7 591.75Q1717.110 591.746 1717.4 591.45 1717.696 591.160 1717.7 590.75 1717.696 590.339 1717.4 590.05 1717.110 589.753 1716.7 589.75L1704.7 589.75Q1704.289 589.753 1704 590.05 1703.703 590.339 1703.7 590.75 1703.703 591.160 1704 591.45M1679.7 589.75Q1679.289 589.753 1679 590.05 1678.703 590.339 1678.7 590.75 1678.703 591.160 1679 591.45 1679.289 591.746 1679.7 591.75L1691.7 591.75Q1692.110 591.746 1692.4 591.45 1692.696 591.160 1692.7 590.75 1692.696 590.339 1692.4 590.05 1692.110 589.753 1691.7 589.75L1679.7 589.75M1654.7 589.75Q1654.289 589.753 1654 590.05 1653.703 590.339 1653.7 590.75 1653.703 591.160 1654 591.45 1654.289 591.746 1654.7 591.75L1666.7 591.75Q1667.110 591.746 1667.4 591.45 1667.696 591.160 1667.7 590.75 1667.696 590.339 1667.4 590.05 1667.110 589.753 1666.7 589.75L1654.7 589.75M1629.7 589.75Q1629.289 589.753 1629 590.05 1628.703 590.339 1628.7 590.75 1628.703 591.160 1629 591.45 1629.289 591.746 1629.7 591.75L1641.7 591.75Q1642.110 591.746 1642.4 591.45 1642.696 591.160 1642.7 590.75 1642.696 590.339 1642.4 590.05 1642.110 589.753 1641.7 589.75L1629.7 589.75M1929 591.45Q1929.289 591.746 1929.7 591.75L1941.7 591.75Q1942.110 591.746 1942.4 591.45 1942.696 591.160 1942.7 590.75 1942.696 590.339 1942.4 590.05 1942.110 589.753 1941.7 589.75L1929.7 589.75Q1929.289 589.753 1929 590.05 1928.703 590.339 1928.7 590.75 1928.703 591.160 1929 591.45M1904 591.45Q1904.289 591.746 1904.7 591.75L1916.7 591.75Q1917.110 591.746 1917.4 591.45 1917.696 591.160 1917.7 590.75 1917.696 590.339 1917.4 590.05 1917.110 589.753 1916.7 589.75L1904.7 589.75Q1904.289 589.753 1904 590.05 1903.703 590.339 1903.7 590.75 1903.703 591.160 1904 591.45M1879.7 589.75Q1879.289 589.753 1879 590.05 1878.703 590.339 1878.7 590.75 1878.703 591.160 1879 591.45 1879.289 591.746 1879.7 591.75L1891.7 591.75Q1892.110 591.746 1892.4 591.45 1892.696 591.160 1892.7 590.75 1892.696 590.339 1892.4 590.05 1892.110 589.753 1891.7 589.75L1879.7 589.75M1854 591.45Q1854.289 591.746 1854.7 591.75L1866.7 591.75Q1867.110 591.746 1867.4 591.45 1867.696 591.160 1867.7 590.75 1867.696 590.339 1867.4 590.05 1867.110 589.753 1866.7 589.75L1854.7 589.75Q1854.289 589.753 1854 590.05 1853.703 590.339 1853.7 590.75 1853.703 591.160 1854 591.45M1829 591.45Q1829.289 591.746 1829.7 591.75L1841.7 591.75Q1842.110 591.746 1842.4 591.45 1842.696 591.160 1842.7 590.75 1842.696 590.339 1842.4 590.05 1842.110 589.753 1841.7 589.75L1829.7 589.75Q1829.289 589.753 1829 590.05 1828.703 590.339 1828.7 590.75 1828.703 591.160 1829 591.45M1804 591.45Q1804.289 591.746 1804.7 591.75L1816.7 591.75Q1817.110 591.746 1817.4 591.45 1817.696 591.160 1817.7 590.75 1817.696 590.339 1817.4 590.05 1817.110 589.753 1816.7 589.75L1804.7 589.75Q1804.289 589.753 1804 590.05 1803.703 590.339 1803.7 590.75 1803.703 591.160 1804 591.45M1792.4 590.05Q1792.110 589.753 1791.7 589.75L1779.7 589.75Q1779.289 589.753 1779 590.05 1778.703 590.339 1778.7 590.75 1778.703 591.160 1779 591.45 1779.289 591.746 1779.7 591.75L1791.7 591.75Q1792.110 591.746 1792.4 591.45 1792.696 591.160 1792.7 590.75 1792.696 590.339 1792.4 590.05M1429.7 589.75Q1429.289 589.753 1429 590.05 1428.703 590.339 1428.7 590.75 1428.703 591.160 1429 591.45 1429.289 591.746 1429.7 591.75L1441.7 591.75Q1442.110 591.746 1442.4 591.45 1442.696 591.160 1442.7 590.75 1442.696 590.339 1442.4 590.05 1442.110 589.753 1441.7 589.75L1429.7 589.75M1417.4 590.05Q1417.110 589.753 1416.7 589.75L1404.7 589.75Q1404.289 589.753 1404 590.05 1403.703 590.339 1403.7 590.75 1403.703 591.160 1404 591.45 1404.289 591.746 1404.7 591.75L1416.7 591.75Q1417.110 591.746 1417.4 591.45 1417.696 591.160 1417.7 590.75 1417.696 590.339 1417.4 590.05M1379 591.45Q1379.289 591.746 1379.7 591.75L1391.7 591.75Q1392.110 591.746 1392.4 591.45 1392.696 591.160 1392.7 590.75 1392.696 590.339 1392.4 590.05 1392.110 589.753 1391.7 589.75L1379.7 589.75Q1379.289 589.753 1379 590.05 1378.703 590.339 1378.7 590.75 1378.703 591.160 1379 591.45M1354.7 589.75Q1354.289 589.753 1354 590.05 1353.703 590.339 1353.7 590.75 1353.703 591.160 1354 591.45 1354.289 591.746 1354.7 591.75L1366.7 591.75Q1367.110 591.746 1367.4 591.45 1367.696 591.160 1367.7 590.75 1367.696 590.339 1367.4 590.05 1367.110 589.753 1366.7 589.75L1354.7 589.75M1329.7 589.75Q1329.289 589.753 1329 590.05 1328.703 590.339 1328.7 590.75 1328.703 591.160 1329 591.45 1329.289 591.746 1329.7 591.75L1341.7 591.75Q1342.110 591.746 1342.4 591.45 1342.696 591.160 1342.7 590.75 1342.696 590.339 1342.4 590.05 1342.110 589.753 1341.7 589.75L1329.7 589.75M1304.7 589.75Q1304.289 589.753 1304 590.05 1303.703 590.339 1303.7 590.75 1303.703 591.160 1304 591.45 1304.289 591.746 1304.7 591.75L1316.7 591.75Q1317.110 591.746 1317.4 591.45 1317.696 591.160 1317.7 590.75 1317.696 590.339 1317.4 590.05 1317.110 589.753 1316.7 589.75L1304.7 589.75M1604 591.45Q1604.289 591.746 1604.7 591.75L1616.7 591.75Q1617.110 591.746 1617.4 591.45 1617.696 591.160 1617.7 590.75 1617.696 590.339 1617.4 590.05 1617.110 589.753 1616.7 589.75L1604.7 589.75Q1604.289 589.753 1604 590.05 1603.703 590.339 1603.7 590.75 1603.703 591.160 1604 591.45M1578.7 590.75Q1578.703 591.160 1579 591.45 1579.289 591.746 1579.7 591.75L1591.7 591.75Q1592.110 591.746 1592.4 591.45 1592.696 591.160 1592.7 590.75 1592.696 590.339 1592.4 590.05 1592.110 589.753 1591.7 589.75L1579.7 589.75Q1579.289 589.753 1579 590.05 1578.703 590.339 1578.7 590.75M1554.7 589.75Q1554.289 589.753 1554 590.05 1553.703 590.339 1553.7 590.75 1553.703 591.160 1554 591.45 1554.289 591.746 1554.7 591.75L1566.7 591.75Q1567.110 591.746 1567.4 591.45 1567.696 591.160 1567.7 590.75 1567.696 590.339 1567.4 590.05 1567.110 589.753 1566.7 589.75L1554.7 589.75M1529 591.45Q1529.289 591.746 1529.7 591.75L1541.7 591.75Q1542.110 591.746 1542.4 591.45 1542.696 591.160 1542.7 590.75 1542.696 590.339 1542.4 590.05 1542.110 589.753 1541.7 589.75L1529.7 589.75Q1529.289 589.753 1529 590.05 1528.703 590.339 1528.7 590.75 1528.703 591.160 1529 591.45M1504 591.45Q1504.289 591.746 1504.7 591.75L1516.7 591.75Q1517.110 591.746 1517.4 591.45 1517.696 591.160 1517.7 590.75 1517.696 590.339 1517.4 590.05 1517.110 589.753 1516.7 589.75L1504.7 589.75Q1504.289 589.753 1504 590.05 1503.703 590.339 1503.7 590.75 1503.703 591.160 1504 591.45M1479 591.45Q1479.289 591.746 1479.7 591.75L1491.7 591.75Q1492.110 591.746 1492.4 591.45 1492.696 591.160 1492.7 590.75 1492.696 590.339 1492.4 590.05 1492.110 589.753 1491.7 589.75L1479.7 589.75Q1479.289 589.753 1479 590.05 1478.703 590.339 1478.7 590.75 1478.703 591.160 1479 591.45M1467.4 590.05Q1467.110 589.753 1466.7 589.75L1454.7 589.75Q1454.289 589.753 1454 590.05 1453.703 590.339 1453.7 590.75 1453.703 591.160 1454 591.45 1454.289 591.746 1454.7 591.75L1466.7 591.75Q1467.110 591.746 1467.4 591.45 1467.696 591.160 1467.7 590.75 1467.696 590.339 1467.4 590.05M2404.7 589.75Q2404.289 589.753 2404 590.05 2403.703 590.339 2403.7 590.75 2403.703 591.160 2404 591.45 2404.289 591.746 2404.7 591.75L2416.7 591.75Q2417.110 591.746 2417.4 591.45 2417.696 591.160 2417.7 590.75 2417.696 590.339 2417.4 590.05 2417.110 589.753 2416.7 589.75L2404.7 589.75M2379 591.45Q2379.289 591.746 2379.7 591.75L2391.7 591.75Q2392.110 591.746 2392.4 591.45 2392.696 591.160 2392.7 590.75 2392.696 590.339 2392.4 590.05 2392.110 589.753 2391.7 589.75L2379.7 589.75Q2379.289 589.753 2379 590.05 2378.703 590.339 2378.7 590.75 2378.703 591.160 2379 591.45M2354 591.45Q2354.289 591.746 2354.7 591.75L2366.7 591.75Q2367.110 591.746 2367.4 591.45 2367.696 591.160 2367.7 590.75 2367.696 590.339 2367.4 590.05 2367.110 589.753 2366.7 589.75L2354.7 589.75Q2354.289 589.753 2354 590.05 2353.703 590.339 2353.7 590.75 2353.703 591.160 2354 591.45M2329 591.45Q2329.289 591.746 2329.7 591.75L2341.7 591.75Q2342.110 591.746 2342.4 591.45 2342.696 591.160 2342.7 590.75 2342.696 590.339 2342.4 590.05 2342.110 589.753 2341.7 589.75L2329.7 589.75Q2329.289 589.753 2329 590.05 2328.703 590.339 2328.7 590.75 2328.703 591.160 2329 591.45M2304.7 589.75Q2304.289 589.753 2304 590.05 2303.703 590.339 2303.7 590.75 2303.703 591.160 2304 591.45 2304.289 591.746 2304.7 591.75L2316.7 591.75Q2317.110 591.746 2317.4 591.45 2317.696 591.160 2317.7 590.75 2317.696 590.339 2317.4 590.05 2317.110 589.753 2316.7 589.75L2304.7 589.75M2279.7 589.75Q2279.289 589.753 2279 590.05 2278.703 590.339 2278.7 590.75 2278.703 591.160 2279 591.45 2279.289 591.746 2279.7 591.75L2291.7 591.75Q2292.110 591.746 2292.4 591.45 2292.696 591.160 2292.7 590.75 2292.696 590.339 2292.4 590.05 2292.110 589.753 2291.7 589.75L2279.7 589.75M2554 591.45Q2554.289 591.746 2554.7 591.75L2566.7 591.75Q2567.110 591.746 2567.4 591.45 2567.696 591.160 2567.7 590.75 2567.696 590.339 2567.4 590.05 2567.110 589.753 2566.7 589.75L2554.7 589.75Q2554.289 589.753 2554 590.05 2553.703 590.339 2553.7 590.75 2553.703 591.160 2554 591.45M2529.7 589.75Q2529.289 589.753 2529 590.05 2528.703 590.339 2528.7 590.75 2528.703 591.160 2529 591.45 2529.289 591.746 2529.7 591.75L2541.7 591.75Q2542.110 591.746 2542.4 591.45 2542.696 591.160 2542.7 590.75 2542.696 590.339 2542.4 590.05 2542.110 589.753 2541.7 589.75L2529.7 589.75M2504.7 589.75Q2504.289 589.753 2504 590.05 2503.703 590.339 2503.7 590.75 2503.703 591.160 2504 591.45 2504.289 591.746 2504.7 591.75L2516.7 591.75Q2517.110 591.746 2517.4 591.45 2517.696 591.160 2517.7 590.75 2517.696 590.339 2517.4 590.05 2517.110 589.753 2516.7 589.75L2504.7 589.75M2479.7 589.75Q2479.289 589.753 2479 590.05 2478.703 590.339 2478.7 590.75 2478.703 591.160 2479 591.45 2479.289 591.746 2479.7 591.75L2491.7 591.75Q2492.110 591.746 2492.4 591.45 2492.696 591.160 2492.7 590.75 2492.696 590.339 2492.4 590.05 2492.110 589.753 2491.7 589.75L2479.7 589.75M2454 591.45Q2454.289 591.746 2454.7 591.75L2466.7 591.75Q2467.110 591.746 2467.4 591.45 2467.696 591.160 2467.7 590.75 2467.696 590.339 2467.4 590.05 2467.110 589.753 2466.7 589.75L2454.7 589.75Q2454.289 589.753 2454 590.05 2453.703 590.339 2453.7 590.75 2453.703 591.160 2454 591.45M2442.4 590.05Q2442.110 589.753 2441.7 589.75L2429.7 589.75Q2429.289 589.753 2429 590.05 2428.703 590.339 2428.7 590.75 2428.703 591.160 2429 591.45 2429.289 591.746 2429.7 591.75L2441.7 591.75Q2442.110 591.746 2442.4 591.45 2442.696 591.160 2442.7 590.75 2442.696 590.339 2442.4 590.05M2079.7 589.75Q2079.289 589.753 2079 590.05 2078.703 590.339 2078.7 590.75 2078.703 591.160 2079 591.45 2079.289 591.746 2079.7 591.75L2091.7 591.75Q2092.110 591.746 2092.4 591.45 2092.696 591.160 2092.7 590.75 2092.696 590.339 2092.4 590.05 2092.110 589.753 2091.7 589.75L2079.7 589.75M2054 591.45Q2054.289 591.746 2054.7 591.75L2066.7 591.75Q2067.110 591.746 2067.4 591.45 2067.696 591.160 2067.7 590.75 2067.696 590.339 2067.4 590.05 2067.110 589.753 2066.7 589.75L2054.7 589.75Q2054.289 589.753 2054 590.05 2053.703 590.339 2053.7 590.75 2053.703 591.160 2054 591.45M2029 591.45Q2029.289 591.746 2029.7 591.75L2041.7 591.75Q2042.110 591.746 2042.4 591.45 2042.696 591.160 2042.7 590.75 2042.696 590.339 2042.4 590.05 2042.110 589.753 2041.7 589.75L2029.7 589.75Q2029.289 589.753 2029 590.05 2028.703 590.339 2028.7 590.75 2028.703 591.160 2029 591.45M2004.7 589.75Q2004.289 589.753 2004 590.05 2003.703 590.339 2003.7 590.75 2003.703 591.160 2004 591.45 2004.289 591.746 2004.7 591.75L2016.7 591.75Q2017.110 591.746 2017.4 591.45 2017.696 591.160 2017.7 590.75 2017.696 590.339 2017.4 590.05 2017.110 589.753 2016.7 589.75L2004.7 589.75M1979.7 589.75Q1979.289 589.753 1979 590.05 1978.703 590.339 1978.7 590.75 1978.703 591.160 1979 591.45 1979.289 591.746 1979.7 591.75L1991.7 591.75Q1992.110 591.746 1992.4 591.45 1992.696 591.160 1992.7 590.75 1992.696 590.339 1992.4 590.05 1992.110 589.753 1991.7 589.75L1979.7 589.75M1954.7 589.75Q1954.289 589.753 1954 590.05 1953.703 590.339 1953.7 590.75 1953.703 591.160 1954 591.45 1954.289 591.746 1954.7 591.75L1966.7 591.75Q1967.110 591.746 1967.4 591.45 1967.696 591.160 1967.7 590.75 1967.696 590.339 1967.4 590.05 1967.110 589.753 1966.7 589.75L1954.7 589.75M2254 591.45Q2254.289 591.746 2254.7 591.75L2266.7 591.75Q2267.110 591.746 2267.4 591.45 2267.696 591.160 2267.7 590.75 2267.696 590.339 2267.4 590.05 2267.110 589.753 2266.7 589.75L2254.7 589.75Q2254.289 589.753 2254 590.05 2253.703 590.339 2253.7 590.75 2253.703 591.160 2254 591.45M2229 591.45Q2229.289 591.746 2229.7 591.75L2241.7 591.75Q2242.110 591.746 2242.4 591.45 2242.696 591.160 2242.7 590.75 2242.696 590.339 2242.4 590.05 2242.110 589.753 2241.7 589.75L2229.7 589.75Q2229.289 589.753 2229 590.05 2228.703 590.339 2228.7 590.75 2228.703 591.160 2229 591.45M2204.7 589.75Q2204.289 589.753 2204 590.05 2203.703 590.339 2203.7 590.75 2203.703 591.160 2204 591.45 2204.289 591.746 2204.7 591.75L2216.7 591.75Q2217.110 591.746 2217.4 591.45 2217.696 591.160 2217.7 590.75 2217.696 590.339 2217.4 590.05 2217.110 589.753 2216.7 589.75L2204.7 589.75M2179 591.45Q2179.289 591.746 2179.7 591.75L2191.7 591.75Q2192.110 591.746 2192.4 591.45 2192.696 591.160 2192.7 590.75 2192.696 590.339 2192.4 590.05 2192.110 589.753 2191.7 589.75L2179.7 589.75Q2179.289 589.753 2179 590.05 2178.703 590.339 2178.7 590.75 2178.703 591.160 2179 591.45M2166.7 589.75L2154.7 589.75Q2154.289 589.753 2154 590.05 2153.703 590.339 2153.7 590.75 2153.703 591.160 2154 591.45 2154.289 591.746 2154.7 591.75L2166.7 591.75Q2167.110 591.746 2167.4 591.45 2167.696 591.160 2167.7 590.75 2167.696 590.339 2167.4 590.05 2167.110 589.753 2166.7 589.75M2129 591.45Q2129.289 591.746 2129.7 591.75L2141.7 591.75Q2142.110 591.746 2142.4 591.45 2142.696 591.160 2142.7 590.75 2142.696 590.339 2142.4 590.05 2142.110 589.753 2141.7 589.75L2129.7 589.75Q2129.289 589.753 2129 590.05 2128.703 590.339 2128.7 590.75 2128.703 591.160 2129 591.45M2117.4 590.05Q2117.110 589.753 2116.7 589.75L2104.7 589.75Q2104.289 589.753 2104 590.05 2103.703 590.339 2103.7 590.75 2103.703 591.160 2104 591.45 2104.289 591.746 2104.7 591.75L2116.7 591.75Q2117.110 591.746 2117.4 591.45 2117.696 591.160 2117.7 590.75 2117.696 590.339 2117.4 590.05M3054.7 589.75Q3054.289 589.753 3054 590.05 3053.703 590.339 3053.7 590.75 3053.703 591.160 3054 591.45 3054.289 591.746 3054.7 591.75L3066.7 591.75Q3067.110 591.746 3067.4 591.45 3067.696 591.160 3067.7 590.75 3067.696 590.339 3067.4 590.05 3067.110 589.753 3066.7 589.75L3054.7 589.75M3029 591.45Q3029.289 591.746 3029.7 591.75L3041.7 591.75Q3042.110 591.746 3042.4 591.45 3042.696 591.160 3042.7 590.75 3042.696 590.339 3042.4 590.05 3042.110 589.753 3041.7 589.75L3029.7 589.75Q3029.289 589.753 3029 590.05 3028.703 590.339 3028.7 590.75 3028.703 591.160 3029 591.45M3016.7 589.75L3004.7 589.75Q3004.289 589.753 3004 590.05 3003.703 590.339 3003.7 590.75 3003.703 591.160 3004 591.45 3004.289 591.746 3004.7 591.75L3016.7 591.75Q3017.110 591.746 3017.4 591.45 3017.696 591.160 3017.7 590.75 3017.696 590.339 3017.4 590.05 3017.110 589.753 3016.7 589.75M2979 591.45Q2979.289 591.746 2979.7 591.75L2991.7 591.75Q2992.110 591.746 2992.4 591.45 2992.696 591.160 2992.7 590.75 2992.696 590.339 2992.4 590.05 2992.110 589.753 2991.7 589.75L2979.7 589.75Q2979.289 589.753 2979 590.05 2978.703 590.339 2978.7 590.75 2978.703 591.160 2979 591.45M2954 591.45Q2954.289 591.746 2954.7 591.75L2966.7 591.75Q2967.110 591.746 2967.4 591.45 2967.696 591.160 2967.7 590.75 2967.696 590.339 2967.4 590.05 2967.110 589.753 2966.7 589.75L2954.7 589.75Q2954.289 589.753 2954 590.05 2953.703 590.339 2953.7 590.75 2953.703 591.160 2954 591.45M2929.7 589.75Q2929.289 589.753 2929 590.05 2928.703 590.339 2928.7 590.75 2928.703 591.160 2929 591.45 2929.289 591.746 2929.7 591.75L2941.7 591.75Q2942.110 591.746 2942.4 591.45 2942.696 591.160 2942.7 590.75 2942.696 590.339 2942.4 590.05 2942.110 589.753 2941.7 589.75L2929.7 589.75M3204 591.45Q3204.289 591.746 3204.7 591.75L3216.7 591.75Q3217.110 591.746 3217.4 591.45 3217.696 591.160 3217.7 590.75 3217.696 590.339 3217.4 590.05 3217.110 589.753 3216.7 589.75L3204.7 589.75Q3204.289 589.753 3204 590.05 3203.703 590.339 3203.7 590.75 3203.703 591.160 3204 591.45M3179 590.05Q3178.703 590.339 3178.7 590.75 3178.703 591.160 3179 591.45 3179.289 591.746 3179.7 591.75L3191.7 591.75Q3192.110 591.746 3192.4 591.45 3192.696 591.160 3192.7 590.75 3192.696 590.339 3192.4 590.05 3192.110 589.753 3191.7 589.75L3179.7 589.75Q3179.289 589.753 3179 590.05M3154.7 589.75Q3154.289 589.753 3154 590.05 3153.703 590.339 3153.7 590.75 3153.703 591.160 3154 591.45 3154.289 591.746 3154.7 591.75L3166.7 591.75Q3167.110 591.746 3167.4 591.45 3167.696 591.160 3167.7 590.75 3167.696 590.339 3167.4 590.05 3167.110 589.753 3166.7 589.75L3154.7 589.75M3129.7 589.75Q3129.289 589.753 3129 590.05 3128.703 590.339 3128.7 590.75 3128.703 591.160 3129 591.45 3129.289 591.746 3129.7 591.75L3141.7 591.75Q3142.110 591.746 3142.4 591.45 3142.696 591.160 3142.7 590.75 3142.696 590.339 3142.4 590.05 3142.110 589.753 3141.7 589.75L3129.7 589.75M3104 591.45Q3104.289 591.746 3104.7 591.75L3116.7 591.75Q3117.110 591.746 3117.4 591.45 3117.696 591.160 3117.7 590.75 3117.696 590.339 3117.4 590.05 3117.110 589.753 3116.7 589.75L3104.7 589.75Q3104.289 589.753 3104 590.05 3103.703 590.339 3103.7 590.75 3103.703 591.160 3104 591.45M3079 591.45Q3079.289 591.746 3079.7 591.75L3091.7 591.75Q3092.110 591.746 3092.4 591.45 3092.696 591.160 3092.7 590.75 3092.696 590.339 3092.4 590.05 3092.110 589.753 3091.7 589.75L3079.7 589.75Q3079.289 589.753 3079 590.05 3078.703 590.339 3078.7 590.75 3078.703 591.160 3079 591.45M2729.7 589.75Q2729.289 589.753 2729 590.05 2728.703 590.339 2728.7 590.75 2728.703 591.160 2729 591.45 2729.289 591.746 2729.7 591.75L2741.7 591.75Q2742.110 591.746 2742.4 591.45 2742.696 591.160 2742.7 590.75 2742.696 590.339 2742.4 590.05 2742.110 589.753 2741.7 589.75L2729.7 589.75M2704 591.45Q2704.289 591.746 2704.7 591.75L2716.7 591.75Q2717.110 591.746 2717.4 591.45 2717.696 591.160 2717.7 590.75 2717.696 590.339 2717.4 590.05 2717.110 589.753 2716.7 589.75L2704.7 589.75Q2704.289 589.753 2704 590.05 2703.703 590.339 2703.7 590.75 2703.703 591.160 2704 591.45M2679 591.45Q2679.289 591.746 2679.7 591.75L2691.7 591.75Q2692.110 591.746 2692.4 591.45 2692.696 591.160 2692.7 590.75 2692.696 590.339 2692.4 590.05 2692.110 589.753 2691.7 589.75L2679.7 589.75Q2679.289 589.753 2679 590.05 2678.703 590.339 2678.7 590.75 2678.703 591.160 2679 591.45M2654 591.45Q2654.289 591.746 2654.7 591.75L2666.7 591.75Q2667.110 591.746 2667.4 591.45 2667.696 591.160 2667.7 590.75 2667.696 590.339 2667.4 590.05 2667.110 589.753 2666.7 589.75L2654.7 589.75Q2654.289 589.753 2654 590.05 2653.703 590.339 2653.7 590.75 2653.703 591.160 2654 591.45M2629 591.45Q2629.289 591.746 2629.7 591.75L2641.7 591.75Q2642.110 591.746 2642.4 591.45 2642.696 591.160 2642.7 590.75 2642.696 590.339 2642.4 590.05 2642.110 589.753 2641.7 589.75L2629.7 589.75Q2629.289 589.753 2629 590.05 2628.703 590.339 2628.7 590.75 2628.703 591.160 2629 591.45M2604.7 589.75Q2604.289 589.753 2604 590.05 2603.703 590.339 2603.7 590.75 2603.703 591.160 2604 591.45 2604.289 591.746 2604.7 591.75L2616.7 591.75Q2617.110 591.746 2617.4 591.45 2617.696 591.160 2617.7 590.75 2617.696 590.339 2617.4 590.05 2617.110 589.753 2616.7 589.75L2604.7 589.75M2592.7 590.75Q2592.696 590.339 2592.4 590.05 2592.110 589.753 2591.7 589.75L2579.7 589.75Q2579.289 589.753 2579 590.05 2578.703 590.339 2578.7 590.75 2578.703 591.160 2579 591.45 2579.289 591.746 2579.7 591.75L2591.7 591.75Q2592.110 591.746 2592.4 591.45 2592.696 591.160 2592.7 590.75M2904 591.45Q2904.289 591.746 2904.7 591.75L2916.7 591.75Q2917.110 591.746 2917.4 591.45 2917.696 591.160 2917.7 590.75 2917.696 590.339 2917.4 590.05 2917.110 589.753 2916.7 589.75L2904.7 589.75Q2904.289 589.753 2904 590.05 2903.703 590.339 2903.7 590.75 2903.703 591.160 2904 591.45M2879 591.45Q2879.289 591.746 2879.7 591.75L2891.7 591.75Q2892.110 591.746 2892.4 591.45 2892.696 591.160 2892.7 590.75 2892.696 590.339 2892.4 590.05 2892.110 589.753 2891.7 589.75L2879.7 589.75Q2879.289 589.753 2879 590.05 2878.703 590.339 2878.7 590.75 2878.703 591.160 2879 591.45M2854.7 589.75Q2854.289 589.753 2854 590.05 2853.703 590.339 2853.7 590.75 2853.703 591.160 2854 591.45 2854.289 591.746 2854.7 591.75L2866.7 591.75Q2867.110 591.746 2867.4 591.45 2867.696 591.160 2867.7 590.75 2867.696 590.339 2867.4 590.05 2867.110 589.753 2866.7 589.75L2854.7 589.75M2829.7 589.75Q2829.289 589.753 2829 590.05 2828.703 590.339 2828.7 590.75 2828.703 591.160 2829 591.45 2829.289 591.746 2829.7 591.75L2841.7 591.75Q2842.110 591.746 2842.4 591.45 2842.696 591.160 2842.7 590.75 2842.696 590.339 2842.4 590.05 2842.110 589.753 2841.7 589.75L2829.7 589.75M2804.7 589.75Q2804.289 589.753 2804 590.05 2803.703 590.339 2803.7 590.75 2803.703 591.160 2804 591.45 2804.289 591.746 2804.7 591.75L2816.7 591.75Q2817.110 591.746 2817.4 591.45 2817.696 591.160 2817.7 590.75 2817.696 590.339 2817.4 590.05 2817.110 589.753 2816.7 589.75L2804.7 589.75M2779 591.45Q2779.289 591.746 2779.7 591.75L2791.7 591.75Q2792.110 591.746 2792.4 591.45 2792.696 591.160 2792.7 590.75 2792.696 590.339 2792.4 590.05 2792.110 589.753 2791.7 589.75L2779.7 589.75Q2779.289 589.753 2779 590.05 2778.703 590.339 2778.7 590.75 2778.703 591.160 2779 591.45M2767.4 590.05Q2767.110 589.753 2766.7 589.75L2754.7 589.75Q2754.289 589.753 2754 590.05 2753.703 590.339 2753.7 590.75 2753.703 591.160 2754 591.45 2754.289 591.746 2754.7 591.75L2766.7 591.75Q2767.110 591.746 2767.4 591.45 2767.696 591.160 2767.7 590.75 2767.696 590.339 2767.4 590.05M3579.7 589.75Q3579.289 589.753 3579 590.05 3578.703 590.339 3578.7 590.75 3578.703 591.160 3579 591.45 3579.289 591.746 3579.7 591.75L3590.5 591.75Q3590.910 591.746 3591.2 591.45 3591.496 591.160 3591.5 590.75 3591.496 590.339 3591.2 590.05 3590.910 589.753 3590.5 589.75L3579.7 589.75M3379.7 589.75Q3379.289 589.753 3379 590.05 3378.703 590.339 3378.7 590.75 3378.703 591.160 3379 591.45 3379.289 591.746 3379.7 591.75L3391.7 591.75Q3392.110 591.746 3392.4 591.45 3392.696 591.160 3392.7 590.75 3392.696 590.339 3392.4 590.05 3392.110 589.753 3391.7 589.75L3379.7 589.75M3354.7 589.75Q3354.289 589.753 3354 590.05 3353.703 590.339 3353.7 590.75 3353.703 591.160 3354 591.45 3354.289 591.746 3354.7 591.75L3366.7 591.75Q3367.110 591.746 3367.4 591.45 3367.696 591.160 3367.7 590.75 3367.696 590.339 3367.4 590.05 3367.110 589.753 3366.7 589.75L3354.7 589.75M3329.7 589.75Q3329.289 589.753 3329 590.05 3328.703 590.339 3328.7 590.75 3328.703 591.160 3329 591.45 3329.289 591.746 3329.7 591.75L3341.7 591.75Q3342.110 591.746 3342.4 591.45 3342.696 591.160 3342.7 590.75 3342.696 590.339 3342.4 590.05 3342.110 589.753 3341.7 589.75L3329.7 589.75M3304 591.45Q3304.289 591.746 3304.7 591.75L3316.7 591.75Q3317.110 591.746 3317.4 591.45 3317.696 591.160 3317.7 590.75 3317.696 590.339 3317.4 590.05 3317.110 589.753 3316.7 589.75L3304.7 589.75Q3304.289 589.753 3304 590.05 3303.703 590.339 3303.7 590.75 3303.703 591.160 3304 591.45M3279 591.45Q3279.289 591.746 3279.7 591.75L3291.7 591.75Q3292.110 591.746 3292.4 591.45 3292.696 591.160 3292.7 590.75 3292.696 590.339 3292.4 590.05 3292.110 589.753 3291.7 589.75L3279.7 589.75Q3279.289 589.753 3279 590.05 3278.703 590.339 3278.7 590.75 3278.703 591.160 3279 591.45M3254.7 589.75Q3254.289 589.753 3254 590.05 3253.703 590.339 3253.7 590.75 3253.703 591.160 3254 591.45 3254.289 591.746 3254.7 591.75L3266.7 591.75Q3267.110 591.746 3267.4 591.45 3267.696 591.160 3267.7 590.75 3267.696 590.339 3267.4 590.05 3267.110 589.753 3266.7 589.75L3254.7 589.75M3242.4 590.05Q3242.110 589.753 3241.7 589.75L3229.7 589.75Q3229.289 589.753 3229 590.05 3228.703 590.339 3228.7 590.75 3228.703 591.160 3229 591.45 3229.289 591.746 3229.7 591.75L3241.7 591.75Q3242.110 591.746 3242.4 591.45 3242.696 591.160 3242.7 590.75 3242.696 590.339 3242.4 590.05M3554 591.45Q3554.289 591.746 3554.7 591.75L3566.7 591.75Q3567.110 591.746 3567.4 591.45 3567.696 591.160 3567.7 590.75 3567.696 590.339 3567.4 590.05 3567.110 589.753 3566.7 589.75L3554.7 589.75Q3554.289 589.753 3554 590.05 3553.703 590.339 3553.7 590.75 3553.703 591.160 3554 591.45M3529 591.45Q3529.289 591.746 3529.7 591.75L3541.7 591.75Q3542.110 591.746 3542.4 591.45 3542.696 591.160 3542.7 590.75 3542.696 590.339 3542.4 590.05 3542.110 589.753 3541.7 589.75L3529.7 589.75Q3529.289 589.753 3529 590.05 3528.703 590.339 3528.7 590.75 3528.703 591.160 3529 591.45M3504 591.45Q3504.289 591.746 3504.7 591.75L3516.7 591.75Q3517.110 591.746 3517.4 591.45 3517.696 591.160 3517.7 590.75 3517.696 590.339 3517.4 590.05 3517.110 589.753 3516.7 589.75L3504.7 589.75Q3504.289 589.753 3504 590.05 3503.703 590.339 3503.7 590.75 3503.703 591.160 3504 591.45M3479.7 589.75Q3479.289 589.753 3479 590.05 3478.703 590.339 3478.7 590.75 3478.703 591.160 3479 591.45 3479.289 591.746 3479.7 591.75L3491.7 591.75Q3492.110 591.746 3492.4 591.45 3492.696 591.160 3492.7 590.75 3492.696 590.339 3492.4 590.05 3492.110 589.753 3491.7 589.75L3479.7 589.75M3454.7 589.75Q3454.289 589.753 3454 590.05 3453.703 590.339 3453.7 590.75 3453.703 591.160 3454 591.45 3454.289 591.746 3454.7 591.75L3466.7 591.75Q3467.110 591.746 3467.4 591.45 3467.696 591.160 3467.7 590.75 3467.696 590.339 3467.4 590.05 3467.110 589.753 3466.7 589.75L3454.7 589.75M3442.4 590.05Q3442.110 589.753 3441.7 589.75L3429.7 589.75Q3429.289 589.753 3429 590.05 3428.703 590.339 3428.7 590.75 3428.703 591.160 3429 591.45 3429.289 591.746 3429.7 591.75L3441.7 591.75Q3442.110 591.746 3442.4 591.45 3442.696 591.160 3442.7 590.75 3442.696 590.339 3442.4 590.05M3404 591.45Q3404.289 591.746 3404.7 591.75L3416.7 591.75Q3417.110 591.746 3417.4 591.45 3417.696 591.160 3417.7 590.75 3417.696 590.339 3417.4 590.05 3417.110 589.753 3416.7 589.75L3404.7 589.75Q3404.289 589.753 3404 590.05 3403.703 590.339 3403.7 590.75 3403.703 591.160 3404 591.45Z"/></g></g></g><mask id="mask_"><g><g id="current_0.0"><g><g id="Layer3_0_FILL"><path fill="#FFF" stroke="none" d="M64.95 86.35L64.95 18.25 -457.85 18.25 -457.85 86.35 64.95 86.35M866.65 86.35L866.65 18.25 604.3 18.25 604.3 86.35 866.65 86.35Z" fill-opacity="1"/></g></g></g></g></mask></g><path fill="#FFF" stroke="none" d="M264.9 375.8Q259.55 381.1 259.55 388.65 259.55 396.25 264.9 401.55 270.25 406.9 277.8 406.9 285.35 406.9 290.65 401.55 296 396.2 296 388.65 296 381.1 290.65 375.8 285.35 370.45 277.8 370.45 270.25 370.45 264.9 375.8Z"/><path id="Layer2_0_1_STROKES" stroke="#192D72" stroke-width="2" stroke-linejoin="miter" stroke-linecap="butt" stroke-miterlimit="10" fill="none" d="M457.4 196.7L324.15 196.7Q294.25 196.7 266.95 185.15 240.6 173.95 220.25 153.65 199.95 133.3 188.8 106.95 177.25 79.65 177.25 49.8 177.25 19.95 188.8 -7.35 199.95 -33.7 220.25 -54.05 240.6 -74.35 266.95 -85.55 294.25 -97.1 324.15 -97.1L457.4 -97.1Q464.55 -97.1 472.65 -96.3 440.35 -135.5 394.8 -157.5 347.65 -180.25 294.9 -180.25 248.1 -180.25 205.35 -162.15 164.1 -144.7 132.25 -112.85 100.4 -81 82.95 -39.75 64.9 3 64.9 49.8 64.9 96.6 82.95 139.35 100.45 180.65 132.25 212.45 164.1 244.3 205.35 261.75 248.1 279.85 294.9 279.85 347.65 279.85 394.8 257.1 440.35 235.1 472.6 195.9 464.6 196.7 457.4 196.7Z"/><path id="Layer2_0_2_STROKES" stroke="#192D72" stroke-width="2" stroke-linejoin="miter" stroke-linecap="round" stroke-miterlimit="10" fill="none" d="M-527.3 -164.8Q-524.05 -168 -519.5 -168 -514.95 -168 -511.75 -164.8M-566.7 192.85Q-559.85 192.85 -555.05 188 -550.2 183.2 -550.2 176.35L-550.2 -45.9 -575.45 -45.9 -575.45 -75.9 -575.4 -75.9 -575.4 -166.4Q-575.4 -183.85 -563.05 -196.2 -550.7 -208.55 -533.25 -208.55 -515.8 -208.55 -503.45 -196.2 -491.1 -183.85 -491.1 -166.4L-491.1 -75.9 -491.1 -45.9 -520 -45.9 -520 28.65Q-520 35.5 -515.15 40.3 -510.3 45.15 -503.5 45.15M-557.75 -164.8Q-554.5 -168 -549.95 -168 -545.4 -168 -542.2 -164.8M-520 -45.9L-550.2 -45.9M-491.1 -75.9L-575.4 -75.9"/><path id="Layer1_0_1_STROKES" stroke="#192D72" stroke-width="2" stroke-linejoin="miter" stroke-linecap="butt" stroke-miterlimit="10" fill="none" d="M324.15 -97.1L457.4 -97.1Q487.25 -97.1 514.55 -85.55 540.9 -74.4 561.25 -54.05 581.55 -33.75 592.7 -7.35 604.25 19.9 604.25 49.8 604.25 79.7 592.7 106.95 581.55 133.35 561.25 153.65 540.9 174 514.55 185.15 487.3 196.7 457.4 196.7L324.15 196.7Q294.25 196.7 266.95 185.15 240.6 173.95 220.25 153.65 199.95 133.3 188.8 106.95 177.25 79.65 177.25 49.8 177.25 19.95 188.8 -7.35 199.95 -33.7 220.25 -54.05 240.6 -74.35 266.95 -85.55 294.25 -97.1 324.15 -97.1Z"/><g id="Symbol-6"><g id="Symbol-7" transform="translate(457.35 49.8)"><animateTransform attributeName="transform" additive="replace" type="translate" repeatCount="indefinite" dur="1.133s" keyTimes="0;.02899;.029;.05899;.059;.08799;.088;.11799;.118;.14699;.147;.17699;.177;.20599;.206;.23499;.235;.64699;.647;.67699;.677;.70599;.706;.73599;.736;1" values="457.35,49.8;457.35,49.8;457.44,49.936;457.44,49.936;457.434,49.839;457.434,49.839;457.398,49.847;457.398,49.847;457.35,49.8;457.35,49.8;457.44,49.936;457.44,49.936;457.434,49.839;457.434,49.839;457.447,49.897;457.447,49.897;457.35,49.8;457.35,49.8;457.44,49.936;457.44,49.936;457.434,49.839;457.434,49.839;457.447,49.897;457.447,49.897;457.35,49.8;457.35,49.8" calcMode="discrete"/><animateTransform attributeName="transform" additive="sum" type="scale" repeatCount="indefinite" dur="1.133s" keyTimes="0;.02899;.029;.05899;.059;.08799;.088;.11799;.118;.14699;.147;.17699;.177;.20599;.206;.23499;.235;.64699;.647;.67699;.677;.70599;.706;.73599;.736;1" values="1,1;1,1;.904,.904;.904,.904;.891,.891;.891,.891;.986,.986;.986,.986;1,1;1,1;.904,.904;.904,.904;.891,.891;.891,.891;.986,.986;.986,.986;1,1;1,1;.904,.904;.904,.904;.891,.891;.891,.891;.986,.986;.986,.986;1,1;1,1" calcMode="discrete"/><animateTransform attributeName="transform" additive="sum" type="translate" repeatCount="indefinite" dur="1.133s" keyTimes="0;.02899;.029;.05899;.059;.08799;.088;.11799;.118;.14699;.147;.17699;.177;.20599;.206;.23499;.235;.64699;.647;.67699;.677;.70599;.706;.73599;.736;1" values="0,0;0,0;-.1,-.15;-.1,-.15;-.15,-.1;-.15,-.1;-.15,-.2;-.15,-.2;0,0;0,0;-.1,-.15;-.1,-.15;-.15,-.1;-.15,-.1;-.2,-.2;-.2,-.2;0,0;0,0;-.1,-.15;-.1,-.15;-.15,-.1;-.15,-.1;-.2,-.2;-.2,-.2;0,0;0,0" calcMode="discrete"/><path fill="#192D72" stroke="none" d="M-44.05 -23.6L-65.25 -23.6 -65.25 23.7 -58.8 23.7 -58.8 3.7 -44.05 3.7Q-36.95 3.7 -33.5 -.4 -29.95 -4.55 -30.05 -10.05 -30.05 -16.55 -33.9 -20.05 -38.3 -23.9 -44.05 -23.6M-58.8 -18.1L-46.15 -18.1Q-43.2 -18.25 -40.35 -17.1 -36.5 -15.2 -36.5 -10 -36.5 -5.35 -39.2 -3.55 -42.35 -1.55 -46.15 -1.7L-58.8 -1.7 -58.8 -18.1M10.9 23.7L10.9 18.1 -12.85 18.1 -12.85 -23.6 -19.25 -23.6 -19.25 23.7 10.9 23.7M41.05 -23.6L33.8 -23.6 16 23.7 22.55 23.7 27.7 9.55 46.4 9.55 51.2 23.7 58.25 23.7 41.05 -23.6M44.35 4.3L29.5 4.3 37.15 -16.6 44.35 4.3M65.6 -23.6L58.1 -23.6 76 4.65 76 23.7 82.4 23.7 82.4 4.65 100.35 -23.6 92.8 -23.6 79.2 -.85 65.6 -23.6Z"/><path id="Layer7_0_1_STROKES" stroke="#192D72" stroke-width="2" stroke-linejoin="miter" stroke-linecap="butt" stroke-miterlimit="4" fill="none" d="M.05 -146.9Q29.9 -146.9 57.2 -135.35 83.55 -124.2 103.9 -103.85 124.2 -83.55 135.35 -57.15 146.9 -29.9 146.9 0 146.9 29.9 135.35 57.15 124.2 83.55 103.9 103.85 83.55 124.2 57.2 135.35 29.95 146.9 .05 146.9 -29.85 146.9 -57.1 135.35 -83.5 124.2 -103.8 103.85 -124.15 83.55 -135.3 57.15 -146.85 29.85 -146.85 0 -146.85 -29.85 -135.3 -57.15 -124.15 -83.55 -103.8 -103.85 -83.5 -124.2 -57.1 -135.35 -29.8 -146.9 .05 -146.9Z"/></g></g></g></g></svg>