<svg xmlns="http://www.w3.org/2000/svg" width="161.894" height="100.848" viewBox="0 0 161.894 100.848"><g transform="translate(-784 16523.313)"><path d="M145.6,257.938V258h5.413v-.059Z" transform="translate(714.162 -16719.158)" fill="#182a74"/><path d="M176.042,280.161a3.179,3.179,0,1,1,3.2-3.2,3.183,3.183,0,0,1-3.2,3.2" transform="translate(714.162 -16719.158)" fill="#182a74"/><g transform="translate(-0.408)"><path d="M162.146,242.861a3.814,3.814,0,1,0-3.814-3.815,3.812,3.812,0,0,0,3.814,3.815" transform="translate(714.162 -16719.158)" fill="#182a74"/><path d="M134.137,235.233a3.814,3.814,0,1,0,3.812,3.814,3.816,3.816,0,0,0-3.812-3.814" transform="translate(714.162 -16719.158)" fill="#182a74"/><path d="M162.471,257.938H134.136a18.89,18.89,0,1,1,0-37.78h28.335a18.89,18.89,0,1,1,0,37.78m-28.335-30.225a11.335,11.335,0,1,0,0,22.669h28.335a11.335,11.335,0,0,0,0-22.669Z" transform="translate(714.162 -16719.158)" fill="#182a74"/></g><path d="M99.152,296.043H94.579V283.277c0-2.85-1.621-4.919-3.856-4.919-2.3,0-3.9,2.023-3.9,4.919v12.766H82.208V283.277c0-3.23-1.962-4.919-3.9-4.919-2.3,0-3.9,2.023-3.9,4.919v12.766H69.838V283.49c0-5.714,3.483-9.7,8.471-9.7a7.933,7.933,0,0,1,6.152,2.965,8.1,8.1,0,0,1,6.262-2.965c4.963,0,8.429,3.991,8.429,9.7Z" transform="translate(714.162 -16719.158)" fill="#182a74"/><path d="M105.186,271.179a2.936,2.936,0,0,1-2.946-2.989,2.88,2.88,0,0,1,2.946-2.944,2.934,2.934,0,0,1,2.987,2.944,2.991,2.991,0,0,1-2.987,2.989m2.307,24.864h-4.615v-21.7h4.615Z" transform="translate(714.162 -16719.158)" fill="#182a74"/><path d="M122.132,296.6a11.017,11.017,0,0,1-7.927-3.363,11.405,11.405,0,0,1,7.927-19.447,10.839,10.839,0,0,1,8.057,3.235l.59.6-3.3,3.36-.614-.552a6.813,6.813,0,1,0-.008,9.567l.59-.545,3.392,3.188-.693.626a11.764,11.764,0,0,1-8.019,3.327" transform="translate(714.162 -16719.158)" fill="#182a74"/><path d="M138.844,296.043h-4.869V285.191c0-6.961,3.011-10.307,9.762-10.849l.931-.076v4.554l-.766.085c-3.688.411-5.058,2.044-5.058,6.03Z" transform="translate(714.162 -16719.158)" fill="#182a74"/><path d="M157.3,278.358a6.824,6.824,0,0,0,0,13.622,6.555,6.555,0,0,0,6.45-6.789,6.658,6.658,0,0,0-6.45-6.833m.043,18.237a11.028,11.028,0,0,1-7.929-3.362,11.542,11.542,0,0,1,0-16.086,10.979,10.979,0,0,1,15.814,0,11.54,11.54,0,0,1-.006,16.093,10.973,10.973,0,0,1-7.879,3.355" transform="translate(714.162 -16719.158)" fill="#182a74"/><path d="M176.042,296.043a3.179,3.179,0,0,1,0-6.357,3.179,3.179,0,1,1,0,6.357" transform="translate(714.162 -16719.158)" fill="#182a74"/><path d="M194.749,278.4a6.756,6.756,0,0,0-6.662,6.831,6.656,6.656,0,0,0,6.662,6.791,6.813,6.813,0,0,0,0-13.622m0,18.194c-6.589,0-11.191-5.126-11.191-12.467,0-.45,0-.943.045-1.437l0-18.683h4.573v11.916a11.173,11.173,0,0,1,14.462,1.223,11.428,11.428,0,0,1,3.265,8.044,11.284,11.284,0,0,1-3.271,8.049,10.968,10.968,0,0,1-7.879,3.355" transform="translate(714.162 -16719.158)" fill="#182a74"/><path d="M212.158,271.179a2.936,2.936,0,0,1-2.946-2.989,2.88,2.88,0,0,1,2.946-2.944,2.934,2.934,0,0,1,2.987,2.944,2.991,2.991,0,0,1-2.987,2.989m2.307,24.864h-4.614v-21.7h4.614Z" transform="translate(714.162 -16719.158)" fill="#182a74"/><path d="M231.732,296.693l-1.026-.2c-6.8-1.316-9.329-4.576-9.329-12.027v-5.429h-2v-4.4h2v-4.8h4.658v4.8h5.7v4.4h-5.7v6.152c0,4.065,1.528,6.1,4.957,6.585l.74.107Z" transform="translate(714.162 -16719.158)" fill="#182a74"/><g transform="translate(768 -16722.01)"><g transform="translate(86.958 198.698)"><path d="M204.944,207.653c0,1.506-1.874,1.416-1.874,1.416H201.2v-2.721h1.874c1.929-.011,1.874,1.3,1.874,1.3M201.2,202.2h1.428c1.483.078,1.428,1.182,1.428,1.182,0,1.372-1.639,1.394-1.639,1.394H201.2Zm3.4,3.112a2.212,2.212,0,0,0,1.271-2s.2-2.375-2.953-2.665h-3.494v9.959h4s3.346.011,3.346-2.811a2.584,2.584,0,0,0-2.175-2.487m-9.04-6.613h14.705v13.857H195.559Z" transform="translate(-195.559 -198.698)" fill="#182a74"/></g><g transform="translate(70 198.698)"><path d="M79.385,207.653c0,1.506-1.874,1.416-1.874,1.416H75.638v-2.721h1.874c1.929-.011,1.874,1.3,1.874,1.3M75.638,202.2h1.428c1.483.078,1.427,1.182,1.427,1.182,0,1.372-1.639,1.394-1.639,1.394H75.638Zm3.4,3.112a2.212,2.212,0,0,0,1.271-2s.2-2.375-2.953-2.665H73.865v9.959h4s3.346.011,3.346-2.811a2.584,2.584,0,0,0-2.175-2.487M70,198.7H84.705v13.857H70Z" transform="translate(-70 -198.698)" fill="#182a74"/></g><g transform="translate(103.916 198.698)"><path d="M332.824,201.363v1.84a8.391,8.391,0,0,0-3.781-1.126s-3.7-.072-3.87,3.549c0,0-.134,3.332,3.825,3.521a6.511,6.511,0,0,0,3.914-1.238v1.907a7.941,7.941,0,0,1-6.524.413,4.982,4.982,0,0,1,.747-9.435,7.052,7.052,0,0,1,2.933-.223,10.659,10.659,0,0,1,2.755.792m-11.705,11.192h14.705V198.7H321.119Z" transform="translate(-321.119 -198.698)" fill="#182a74"/></g></g></g></svg>