<svg xmlns="http://www.w3.org/2000/svg" xmlns:xlink="http://www.w3.org/1999/xlink" width="143.263" height="48.256" viewBox="0 0 143.263 48.256"><defs><clipPath id="a"><path d="M0,32.263H143.263V-15.993H0Z" transform="translate(0 15.993)" fill="#182a74"/></clipPath></defs><g transform="translate(0 15.992)"><g transform="translate(0 -15.993)" clip-path="url(#a)"><g transform="translate(0.001 -0.001)"><path d="M4.862,4.817h20.8V-2.388H-2.41V45.189H4.862V24.8h20.8V17.6H4.862ZM38.321-2.388H31.185V4.884h7.136Zm0,12.507H31.185v35.07h7.136Zm28.517,35.07h7.884L62.831,27.179l11.348-17.06H66.295L58.616,21.808,50.936,10.119H43.052L54.4,27.179,42.506,45.189H50.39l8.225-12.573ZM86.1,4.817h20.8V-2.388H78.829V45.189H106.9V37.984H86.1V24.8h20.8V17.6H86.1Zm32.663,19.03c0-5.3,3.06-7.749,7.477-7.749s7.477,2.447,7.477,7.749v7.341c0,5.3-3.533,7.749-7.954,7.749-3.941,0-7-2.447-7-7.749Zm-7.136,7.477c0,10.805,7.884,14.544,13.934,14.544,3.669,0,7.136-1.97,8.156-4.01v3.331h7.136V-2.388h-7.136V13.178c-1.02-2.04-4.487-4.01-8.156-4.01-6.05,0-13.934,3.738-13.934,14.544Z" transform="translate(2.41 2.388)" fill="#182a74"/></g></g></g></svg>