<svg xmlns="http://www.w3.org/2000/svg" width="211.204" height="39.705" viewBox="0 0 211.204 39.705"><g transform="translate(-682 16496)"><g transform="translate(682 -16496)"><path d="M67.5,276.878l103.414,2.664,103.416-2.664V275.66l-103.416-2.667L67.5,275.66Z" transform="translate(-67.5 -239.835)" fill="#182a74"/><path d="M129.359,218.343h9.875V236.7H151.65v5.335h-22.29Z" transform="translate(-93.565 -216.808)" fill="#182a74"/><path d="M335.308,242.989c-7.694,0-14.167-2.29-14.167-8.6V218.343H330.7V233.66c0,2.964,2.19,4.318,4.611,4.318s4.611-1.354,4.611-4.318V218.343h9.555v16.049c0,6.307-6.469,8.6-14.166,8.6Z" transform="translate(-174.374 -216.808)" fill="#182a74"/><path d="M390.955,224.085h10.1c-.529-5.442-8.191-7.068-14.127-7.068s-13.663,1.941-13.663,7.878c0,4.338,4.243,5.725,7.221,6.328,2.113.426,5.634,1.027,7.4,1.414,2.451.536,3.72,1.035,3.72,2.479,0,1.545-1.425,2.335-4.351,2.335-2.773,0-4.431-.863-4.892-2.818H372.067c.6,6.455,8.875,7.867,15.4,7.867,6.568,0,14.417-1.563,14.417-7.96,0-3.474-2.238-5.785-7.745-6.886-2.882-.576-6.878-1.327-8.415-1.591-2.035-.355-2.761-1.088-2.761-2.089,0-1.031.988-2.114,3.842-2.114,2.412,0,3.717.7,4.147,2.224Z" transform="translate(-195.832 -216.249)" fill="#182a74"/><path d="M288.7,233.315c7.11,0,8.92-4.522,8.92-7.412,0-2.659-1.53-7.56-8.911-7.56H269.6v23.7h9.383v-8.724Zm-9.723-5.174V223.52h6.264c1.561,0,2.9.729,2.9,2.235,0,1.327-.767,2.387-2.908,2.387Z" transform="translate(-152.654 -216.808)" fill="#182a74"/><path d="M174.006,218.92l.269-.577h9.907l-10.309,15.718v7.978H164.5v-7.978l-10.274-15.718H164.1l.275.577,4.467,7.845c.294.5.383.5.708,0l4.458-7.845Z" transform="translate(-104.043 -216.808)" fill="#182a74"/><path d="M226.457,242.038l.174-.472,5.034-11.706c.13-.308.434-.226.438.045v12.134h8.082v-23.7h-9.769l-.179.51-6.021,13.592c-.222.516-.429.513-.65,0l-6.018-13.592-.18-.51H207.6v23.7h8.087V229.9c0-.27.3-.352.436-.045l5.029,11.706.178.472Z" transform="translate(-126.531 -216.808)" fill="#182a74"/><path d="M101.425,229.532c0,7.96-6.9,12.754-16.534,12.754s-16.534-4.793-16.534-12.754,6.9-12.756,16.534-12.756S101.425,221.567,101.425,229.532Zm-9.94,0c0-4.794-2.481-7.753-6.594-7.753s-6.592,2.959-6.592,7.753,2.478,7.749,6.592,7.749S91.484,234.324,91.484,229.532Z" transform="translate(-67.861 -216.148)" fill="#182a74"/><path d="M427.428,217.739a.879.879,0,0,1,.81.914,1.037,1.037,0,0,1-.7.9l.635,1.364h-.561l-.668-1.395h-.756v1.395h-.584v-3.176Zm-1.237,1.342h1.134a.41.41,0,0,0,.348-.461.446.446,0,0,0-.387-.438H426.19Z" transform="translate(-218.391 -216.553)" fill="#182a74"/><path d="M425.663,221.255a2.782,2.782,0,1,0-2.782-2.782A2.782,2.782,0,0,0,425.663,221.255Zm-2.329-2.8a2.33,2.33,0,1,1,2.329,2.33A2.329,2.329,0,0,1,423.333,218.451Z" transform="translate(-217.243 -215.69)" fill="#182a74"/></g></g></svg>