<svg xmlns="http://www.w3.org/2000/svg" width="131.128" height="109.326" viewBox="0 0 131.128 109.326"><g transform="translate(-240.24 -342.119)"><path d="M323.93,451.445V422.357h47.438V342.12h-80.2V367.8H240.24v54.559h50.927v29.088Zm-80.1-79.972h47.337v47.208H243.83Zm76.51,76.3H294.757V422.356H320.34Zm47.352-29.088H294.756V345.794h72.936Z" fill="#182a74"/><path d="M257.491,391.482a7.243,7.243,0,0,1-2.8-.531,6.9,6.9,0,0,1-2.219-1.446,6.648,6.648,0,0,1-1.462-2.145,6.512,6.512,0,0,1-.533-2.627V384.7a6.669,6.669,0,0,1,2.015-4.8,6.965,6.965,0,0,1,2.237-1.453,7.656,7.656,0,0,1,5.593,0,6.889,6.889,0,0,1,2.217,1.445A6.7,6.7,0,0,1,264,382.029a6.57,6.57,0,0,1,.532,2.63v.038a6.663,6.663,0,0,1-2.014,4.8,7.047,7.047,0,0,1-2.238,1.455,7.218,7.218,0,0,1-2.793.531m.027-3.263a3.289,3.289,0,0,0,1.363-.279,3.143,3.143,0,0,0,1.049-.756,3.508,3.508,0,0,0,.672-1.11,3.7,3.7,0,0,0,.244-1.341V384.7a3.726,3.726,0,0,0-.244-1.344,3.464,3.464,0,0,0-.691-1.118,3.412,3.412,0,0,0-1.068-.774,3.183,3.183,0,0,0-1.362-.288,3.227,3.227,0,0,0-1.358.279,3.254,3.254,0,0,0-1.718,1.865,3.885,3.885,0,0,0-.235,1.342v.038a3.767,3.767,0,0,0,.244,1.342,3.534,3.534,0,0,0,.683,1.117,3.307,3.307,0,0,0,1.056.775,3.183,3.183,0,0,0,1.365.288" fill="#182a74"/><path d="M278.085,391.482a6.882,6.882,0,0,1-2.628-.505,6.447,6.447,0,0,1-2.135-1.406,6.82,6.82,0,0,1-1.968-4.838V384.7a6.809,6.809,0,0,1,1.959-4.819,6.529,6.529,0,0,1,2.172-1.444,7.111,7.111,0,0,1,2.749-.521,7.731,7.731,0,0,1,1.827.2,6.046,6.046,0,0,1,2.731,1.423,7.278,7.278,0,0,1,.979,1.1l-2.722,2.109a4.733,4.733,0,0,0-1.229-1.121,3.088,3.088,0,0,0-1.622-.41,2.872,2.872,0,0,0-1.257.27,2.977,2.977,0,0,0-.981.737,3.525,3.525,0,0,0-.644,1.1,3.917,3.917,0,0,0-.233,1.343v.037a4.036,4.036,0,0,0,.233,1.369,3.508,3.508,0,0,0,.644,1.109,2.994,2.994,0,0,0,.981.738,2.886,2.886,0,0,0,1.257.27,3.558,3.558,0,0,0,.922-.111,2.834,2.834,0,0,0,.763-.328,3.955,3.955,0,0,0,.654-.5,7.381,7.381,0,0,0,.606-.643l2.721,1.94a9.635,9.635,0,0,1-1.017,1.175,5.906,5.906,0,0,1-1.247.93,6.446,6.446,0,0,1-1.567.615,7.849,7.849,0,0,1-1.948.225" fill="#182a74"/><path d="M272.019,398.6h5.031a9.506,9.506,0,0,1,3.124.476,6.587,6.587,0,0,1,2.311,1.332,5.721,5.721,0,0,1,1.436,2.041,6.752,6.752,0,0,1,.492,2.6v.038a6.747,6.747,0,0,1-.5,2.618,5.869,5.869,0,0,1-1.456,2.076,6.722,6.722,0,0,1-2.339,1.374,9.332,9.332,0,0,1-3.141.493h-4.957Zm5.093,9.844a3.856,3.856,0,0,0,2.618-.86,3.039,3.039,0,0,0,.994-2.439v-.038a3.049,3.049,0,0,0-.994-2.432,3.83,3.83,0,0,0-2.618-.869h-1.478v6.638Z" fill="#182a74"/><path d="M307.513,441.62a7.794,7.794,0,0,1-2.378-.335,4.6,4.6,0,0,1-1.8-1.029,4.53,4.53,0,0,1-1.135-1.762,7.17,7.17,0,0,1-.4-2.51v-6.92h3.486v6.85a2.781,2.781,0,0,0,.613,1.981,2.158,2.158,0,0,0,1.645.644,2.214,2.214,0,0,0,1.641-.617A2.631,2.631,0,0,0,309.8,436v-6.94h3.486V435.9a7.212,7.212,0,0,1-.414,2.577,4.46,4.46,0,0,1-2.977,2.809,7.872,7.872,0,0,1-2.385.335" fill="#182a74"/><path d="M304.727,358.981a3.48,3.48,0,0,1-1.342-.256,3.286,3.286,0,0,1-1.065-.693,3.2,3.2,0,0,1-.7-1.029,3.145,3.145,0,0,1-.256-1.261v-.018a3.2,3.2,0,0,1,.967-2.3,3.378,3.378,0,0,1,1.073-.7,3.662,3.662,0,0,1,2.685,0,3.309,3.309,0,0,1,1.064.693,3.186,3.186,0,0,1,.7,1.029,3.153,3.153,0,0,1,.255,1.262v.018a3.194,3.194,0,0,1-.966,2.3,3.375,3.375,0,0,1-1.074.7,3.484,3.484,0,0,1-1.342.256m.013-1.566a1.56,1.56,0,0,0,.655-.135,1.474,1.474,0,0,0,.5-.362,1.657,1.657,0,0,0,.323-.532,1.777,1.777,0,0,0,.117-.644v-.018a1.774,1.774,0,0,0-.117-.644,1.633,1.633,0,0,0-.843-.908,1.514,1.514,0,0,0-.655-.139,1.55,1.55,0,0,0-.651.134,1.558,1.558,0,0,0-.825.9,1.836,1.836,0,0,0-.112.644v.018a1.777,1.777,0,0,0,.117.644,1.687,1.687,0,0,0,.327.537,1.584,1.584,0,0,0,.507.371,1.514,1.514,0,0,0,.655.139" fill="#182a74"/><path d="M312.389,358.98a3.305,3.305,0,0,1-1.262-.242,3.086,3.086,0,0,1-1.024-.675,3.255,3.255,0,0,1-.944-2.322v-.018a3.264,3.264,0,0,1,.939-2.313,3.152,3.152,0,0,1,1.043-.693,3.406,3.406,0,0,1,1.319-.251,3.816,3.816,0,0,1,.877.094,3,3,0,0,1,.72.268,2.912,2.912,0,0,1,.591.417,3.444,3.444,0,0,1,.47.527l-1.307,1.012a2.228,2.228,0,0,0-.59-.537,1.467,1.467,0,0,0-.778-.2,1.4,1.4,0,0,0-.6.129,1.455,1.455,0,0,0-.47.354,1.628,1.628,0,0,0-.309.528,1.84,1.84,0,0,0-.112.644v.018a1.907,1.907,0,0,0,.112.658,1.626,1.626,0,0,0,.309.532,1.454,1.454,0,0,0,.47.354,1.4,1.4,0,0,0,.6.129,1.7,1.7,0,0,0,.442-.054,1.328,1.328,0,0,0,.367-.156,2.05,2.05,0,0,0,.314-.241,3.64,3.64,0,0,0,.29-.31l1.307.931a4.723,4.723,0,0,1-.488.564,2.79,2.79,0,0,1-.6.447,3.111,3.111,0,0,1-.751.3,3.778,3.778,0,0,1-.935.107" fill="#182a74"/><path d="M318.392,352.547h1.673l2.666,6.309H320.87l-.456-1.119H318l-.447,1.119h-1.825Zm1.521,3.848-.7-1.781-.707,1.781Z" fill="#182a74"/><path d="M323.716,352.592h2.416a4.533,4.533,0,0,1,1.5.228,3.156,3.156,0,0,1,1.11.64,2.739,2.739,0,0,1,.689.979,3.213,3.213,0,0,1,.237,1.249v.018a3.218,3.218,0,0,1-.242,1.256,2.817,2.817,0,0,1-.7,1,3.213,3.213,0,0,1-1.123.658,4.48,4.48,0,0,1-1.507.237h-2.38Zm2.445,4.724a1.85,1.85,0,0,0,1.257-.412,1.466,1.466,0,0,0,.476-1.172v-.018a1.471,1.471,0,0,0-.476-1.168,1.842,1.842,0,0,0-1.257-.416h-.71v3.186Z" fill="#182a74"/><path d="M304.4,368.861a4.007,4.007,0,0,1-1.208-.17,2.338,2.338,0,0,1-.913-.524,2.305,2.305,0,0,1-.577-.894,3.662,3.662,0,0,1-.2-1.275v-3.516h1.772v3.48a1.417,1.417,0,0,0,.31,1.007,1.1,1.1,0,0,0,.835.326,1.121,1.121,0,0,0,.834-.313,1.338,1.338,0,0,0,.311-.975v-3.525h1.772v3.471a3.656,3.656,0,0,1-.211,1.311,2.272,2.272,0,0,1-1.512,1.427,4.048,4.048,0,0,1-1.212.17" fill="#182a74"/><path d="M308.9,362.481h1.623l2.582,3.311v-3.311h1.709v6.263h-1.524l-2.681-3.436v3.436H308.9Z" fill="#182a74"/><rect width="1.745" height="6.263" transform="translate(316.47 362.481)" fill="#182a74"/><path d="M319.212,362.481h1.941l1.423,3.964L324,362.481h1.906l-2.541,6.308h-1.611Z" fill="#182a74"/><path d="M326.884,362.481h5.029v1.476h-3.32v.949H331.6v1.369h-3.006v.992h3.364v1.477h-5.073Z" fill="#182a74"/><path d="M333.421,362.481h2.962a3.677,3.677,0,0,1,1.226.179,2.092,2.092,0,0,1,.814.5,1.939,1.939,0,0,1,.555,1.459v.017a1.974,1.974,0,0,1-.349,1.2,2.217,2.217,0,0,1-.94.725l1.495,2.183h-2.005l-1.261-1.9h-.761v1.9h-1.736Zm2.881,3.006a1.048,1.048,0,0,0,.689-.2.669.669,0,0,0,.242-.542v-.017a.65.65,0,0,0-.251-.56,1.153,1.153,0,0,0-.689-.183h-1.136v1.5Z" fill="#182a74"/><path d="M342.779,368.852a4.868,4.868,0,0,1-1.6-.261,3.888,3.888,0,0,1-1.337-.783l.966-1.157a3.2,3.2,0,0,0,2.032.752,1.038,1.038,0,0,0,.532-.112.351.351,0,0,0,.183-.317v-.018a.353.353,0,0,0-.044-.175.472.472,0,0,0-.166-.147,1.718,1.718,0,0,0-.322-.138c-.135-.045-.309-.091-.524-.139q-.5-.115-.93-.254a2.8,2.8,0,0,1-.747-.358,1.62,1.62,0,0,1-.5-.544,1.645,1.645,0,0,1-.182-.808v-.018a1.918,1.918,0,0,1,.165-.8,1.783,1.783,0,0,1,.483-.635,2.267,2.267,0,0,1,.765-.414,3.2,3.2,0,0,1,1.011-.148,4.505,4.505,0,0,1,1.436.211,3.621,3.621,0,0,1,1.141.627l-.868,1.229a3.5,3.5,0,0,0-.881-.461,2.674,2.674,0,0,0-.873-.157.785.785,0,0,0-.469.116.346.346,0,0,0-.157.286v.018a.363.363,0,0,0,.049.188.46.46,0,0,0,.17.147,1.934,1.934,0,0,0,.331.134c.141.044.318.091.533.139a7.578,7.578,0,0,1,.97.272,2.893,2.893,0,0,1,.739.38,1.528,1.528,0,0,1,.465.54,1.655,1.655,0,0,1,.161.755v.018a1.945,1.945,0,0,1-.183.857,1.839,1.839,0,0,1-.515.638,2.327,2.327,0,0,1-.8.4,3.6,3.6,0,0,1-1.037.139" fill="#182a74"/><rect width="1.745" height="6.263" transform="translate(346.663 362.481)" fill="#182a74"/><path d="M351.359,364H349.48v-1.521h5.494V364h-1.879v4.742h-1.736Z" fill="#182a74"/><path d="M358.126,366.4l-2.38-3.919h1.977l1.288,2.281,1.3-2.281h1.941l-2.38,3.892v2.371h-1.745Z" fill="#182a74"/><path d="M259.251,398.556h-3.485L250.209,411.7h3.805l.836-2.092h5.225l.854,2.092h3.878ZM255.9,406.8l1.574-3.945,1.562,3.945Z" fill="#182a74"/></g></svg>