<svg xmlns="http://www.w3.org/2000/svg" width="85.141" height="112.178" viewBox="0 0 85.141 112.178"><path d="M5.132,28.5h6.841V10.121H17.1L16.42,4H.685L0,10.121H5.132Z" transform="translate(0 -3.381)" fill="#182a74" fill-rule="evenodd"/><path d="M147.409,22.372h-8.56v-3.4h7.531V13.185h-7.531V10.121h8.56L146.725,4H132V28.5h14.725Z" transform="translate(-111.66 -3.381)" fill="#182a74" fill-rule="evenodd"/><path d="M265.9,25.936c3.8,0,7.19-1.366,8.9-3.754l-3.767-5.46a6.165,6.165,0,0,1-5.134,3.071c-3.424,0-6.163-2.73-6.163-6.825s2.739-6.825,6.163-6.825c1.917,0,3.456.682,5.134,2.724l3.424-5.8A11.954,11.954,0,0,0,265.9,0a12.57,12.57,0,0,0-13.009,12.967A12.57,12.57,0,0,0,265.9,25.936Z" transform="translate(-213.924)" fill="#182a74" fill-rule="evenodd"/><path d="M252.892,84.148h0Z" transform="translate(-213.924 -71.181)" fill="#182a74" fill-rule="evenodd"/><path d="M421.993,19.442h6.686V29h6.848V4.427H428.68V13.3h-6.686V4.427h-6.846V29h6.846Z" transform="translate(-351.177 -3.745)" fill="#182a74" fill-rule="evenodd"/><path d="M14.9,215.561l3.047-12.966h.069l3.047,12.966h6.5l7.875-24.57H28.254l-4.072,13.991h-.069l-3.732-13.991H15.588l-3.732,13.991h-.069L7.713,190.991H.525L8.4,215.561Z" transform="translate(-0.444 -161.561)" fill="#182a74" fill-rule="evenodd"/><path d="M340.621,190.991h-6.846v24.57h14.036l.685-6.142h-7.875Z" transform="translate(-282.343 -161.561)" fill="#182a74" fill-rule="evenodd"/><path d="M453.745,190.991v24.57h14.037l.684-6.142h-7.875V190.991Z" transform="translate(-383.827 -161.561)" fill="#182a74" fill-rule="evenodd"/><path d="M5.542,523.7h0l0,0Z" transform="translate(-4.685 -443.004)" fill="#182a74" fill-rule="evenodd"/><path d="M22.337,391.55c0-8.53-9.588-8.188-9.588-10.918a2.044,2.044,0,0,1,2.293-1.91,6.679,6.679,0,0,1,4.28,2.047l2.327-5.393a10.236,10.236,0,0,0-7.188-2.252c-4.451,0-8.216,2.73-8.216,7.507,0,7.848,9.243,7.507,9.243,10.921,0,1.092-.861,1.6-1.986,1.6a5.325,5.325,0,0,1-2.636-.784L8.709,391.11,5.56,396.33a14.1,14.1,0,0,0,8.9,2.728C19.255,399.058,22.337,396.328,22.337,391.55Z" transform="translate(-4.703 -315.63)" fill="#182a74" fill-rule="evenodd"/><path d="M139.642,377.556l-8.561,24.567h7.19l1.163-3.754h7.257l1.163,3.754h7.191l-8.556-24.567Zm1.4,15.356,1.985-6.825h.069l1.986,6.825Z" transform="translate(-110.883 -319.378)" fill="#182a74" fill-rule="evenodd"/><path d="M299.639,391.884h-.068L296.08,377.55h-7.258l6.915,24.571h7.669l6.88-24.571h-7.257Z" transform="translate(-244.316 -319.373)" fill="#182a74" fill-rule="evenodd"/><path d="M459.41,392.565h7.531v-5.8H459.41v-3.071h8.558l-.685-6.143h-14.72v24.571h14.72l.685-6.143H459.41Z" transform="translate(-382.828 -319.373)" fill="#182a74" fill-rule="evenodd"/><path d="M24.039,579.811a3.271,3.271,0,0,1-3.6,3.413,3.268,3.268,0,0,1-3.594-3.413v-15.7H10V579.47c0,6.142,4.452,9.9,10.443,9.9s10.442-3.754,10.442-9.9V564.113H24.039Z" transform="translate(-8.461 -477.188)" fill="#182a74" fill-rule="evenodd"/><path d="M178.3,567.192a2.045,2.045,0,0,1,2.293-1.911,6.675,6.675,0,0,1,4.281,2.049l2.328-5.393a10.241,10.241,0,0,0-7.19-2.252c-4.451,0-8.217,2.73-8.217,7.507,0,7.848,9.243,7.507,9.243,10.921,0,1.092-.86,1.6-1.986,1.6a5.315,5.315,0,0,1-2.635-.784l-2.158-1.262-3.15,5.22h0a14.1,14.1,0,0,0,8.9,2.73c4.8,0,7.879-2.73,7.879-7.507C187.891,569.581,178.3,569.922,178.3,567.192Z" transform="translate(-144.743 -473.442)" fill="#182a74" fill-rule="evenodd"/><path d="M232.744,201.028l2.508.013h.029a.394.394,0,0,1,.36.423l-.821,9.415a.391.391,0,0,0,.741.2l8.155-16.81h0a.39.39,0,0,0-.456-.546l-3.047.841a.469.469,0,0,1-.1.014.393.393,0,0,1-.4-.388l-.134-8.988a.392.392,0,0,0-.75-.146l-6.445,15.427a.406.406,0,0,0-.031.147A.393.393,0,0,0,232.744,201.028Z" transform="translate(-196.55 -156.347)" fill="#182a74" fill-rule="evenodd"/></svg>