<svg xmlns="http://www.w3.org/2000/svg" width="156" height="64.602" viewBox="0 0 156 64.602"><g transform="translate(2.625 -81.525)"><path d="M-2.626,94.026l10.1,48.5,32.4-28.5Z" fill="#182a74"/><path d="M74.874,114.426l-15.2-14.4-17.2,15.2-32.9,28.9,48-21.8Z" fill="#182a74"/><path d="M124.774,135.226h-1.3v2.5h1.3c.9,0,1.3-.3,1.3-1.2C125.974,135.526,125.674,135.226,124.774,135.226Z" fill="#182a74"/><path d="M115.774,135.026l-.2,1-.9,3.1h2.3l-.9-3.1Z" fill="#182a74"/><path d="M76.974,116.326l-16.3,7.4-49,22.4h128.7l13-64.6Zm50.7-7.5h6l.1,1.8h-4v1.9h3.3v1.6h-3.3v2.1h4.2l-.1,1.8h-6.2Zm-7.4,0h6v1.8h-4v1.9h3.4v1.6h-3.4v2.1h4.2v1.8h-6.2Zm2.3,16.3v1.6h-3.3v2.1h4.2l-.1,1.8h-6.2v-9.2h6.1v1.8h-4v1.9Zm-11-16.3h2v5.9a1.39,1.39,0,0,0,1.14,1.6,1.42,1.42,0,0,0,.46,0c1.2,0,1.6-.5,1.6-1.6v-5.9h2a57.8,57.8,0,0,1,.2,5.9c0,2.3-1.3,3.4-3.7,3.4s-3.7-1.1-3.7-3.4Zm4.5,19.2c0,1.6-1,2.6-3.3,2.6h-3.8v-9.1h3.7c2,0,3,.9,3,2.3a2.058,2.058,0,0,1-1.2,2A2.09,2.09,0,0,1,116.074,128.026Zm-9.7-19.3c2.8,0,4,1.4,4,4.7,0,2.8-.9,4.2-2.9,4.6,0,.1.1.1.2.2a2.58,2.58,0,0,0,1.2.5,1.7,1.7,0,0,0,1.2-.4l.8,1.2a3.057,3.057,0,0,1-2,.8,2.818,2.818,0,0,1-1.9-.7,2.073,2.073,0,0,0-1.2-.5,1.6,1.6,0,0,0-1.1.4l-.1.1-1-1.1a10.427,10.427,0,0,1,1-.7c-1.5-.5-2.2-2-2.2-4.4C102.374,110.226,103.474,108.726,106.374,108.726Zm-15.1,20.5,3.5-5.1.6-.8h-4v-1.9h6.5v1.5l-3.5,5-.5.8h4v1.9h-6.6Zm-10.3-7.8h2.1v7.3h3.8l-.1,1.9h-5.8Zm-7.4,0h6.1v1.8h-4v1.9h3.3v1.6h-3.3v2.1h4.2l-.1,1.8h-6.2Zm-20.8,21.4c-2.8,0-4-1.5-4-4.8s1.2-4.7,4-4.7c2.9,0,4,1.5,4,4.7C56.874,141.426,55.674,142.826,52.774,142.826Zm11.2-.1h-5.8v-9.2h2.1v7.3h3.7Zm4.3-3v3h-2.1v-3l-3.1-6.2h2.3l1.5,3.5.4.9.4-.9,1.5-3.5h2.2Zm13.5,3h-1.9v-5.7l-.3.9-1.9,4.8h-1.4l-1.8-4.8-.4-.9v5.7h-1.8v-9.2h2.2l2.2,5.3.3,1h.1l.3-1,2.1-5.3h2.3Zm4.6-3h-1.2v3h-2.1v-9.1h3.3c2.5,0,3.6,1,3.6,3.1C89.874,138.626,88.874,139.726,86.374,139.726Zm3.7-9.1h-2.1v-9.2h2.1Zm3.1,12h-2.1v-9.1h2.1Zm5.6-1.6a4.863,4.863,0,0,0,1.8-.3l.2,1.7a5.562,5.562,0,0,1-2.3.5c-2.8,0-4.1-1.5-4.1-4.8,0-3,1.3-4.7,4.3-4.7a6.517,6.517,0,0,1,2.1.4l-.2,1.7a4.822,4.822,0,0,0-1.8-.3c-1.7,0-2.2.7-2.2,2.8C96.574,140.326,97.174,141.026,98.774,141.026Zm2.5-10.4h-2.2l3.2-9.2h2.5l3.2,9.2h-2.3l-.6-1.8h-3.3Zm7.1,9.1h-1.2v3h-2.1v-9.1h3.3c2.5,0,3.6,1,3.6,3.1C111.974,138.626,110.974,139.726,108.374,139.726Zm9.7,3-.6-1.8h-3.3l-.5,1.8h-2.2l3.2-9.1h2.5l3.2,9.1Zm8.3-.1-1.6-3.4h-1.3v3.4h-2.1v-9.1h3.3c2.3,0,3.4.9,3.4,2.8a2.25,2.25,0,0,1-1.4,2.5l2.1,3.8Zm2.7-12h-2.1v-7.3h-2.5l.1-1.9h6.9v1.9h-2.4Zm6,12.1-2.2-3.9h-1v3.9h-2.1v-9.2h2.1v3.6h1l2.2-3.6h2.3l-2.7,4.4,2.9,4.8Zm4.9-12.1h-2v-3.8h-3.2v3.8h-2v-9.2h2v3.6h3.2v-3.6h2Zm1.1-12.6-3.5-5-.6-.8v5.8h-1.8v-9.2h1.8l3.2,4.7.6.9v-5.6h1.8v9.2Z" fill="#182a74"/><path d="M106.474,116.326c1.3,0,1.8-.6,1.8-2.9s-.5-2.9-1.9-2.9-1.9.6-1.8,2.9C104.574,115.726,105.074,116.326,106.474,116.326Z" fill="#182a74"/><path d="M112.774,126.726h-1.8v2.2h1.8c.8,0,1.2-.3,1.2-1.1S113.674,126.726,112.774,126.726Z" fill="#182a74"/><path d="M108.374,135.226h-1.2v2.8h1.2c1,0,1.4-.3,1.4-1.4C109.874,135.526,109.474,135.226,108.374,135.226Z" fill="#182a74"/><path d="M52.774,135.226c-1.4,0-1.9.6-1.9,2.9s.5,2.9,1.9,2.9,1.9-.6,1.9-2.9S54.174,135.226,52.774,135.226Z" fill="#182a74"/><path d="M103.374,122.926l-.3,1-.9,3.1h2.3l-.9-3.1Z" fill="#182a74"/><path d="M86.374,135.226h-1.2v2.8h1.2c1,0,1.5-.3,1.5-1.4C87.774,135.526,87.374,135.226,86.374,135.226Z" fill="#182a74"/><path d="M113.774,124.226c0-.8-.3-1-1.1-1h-1.7v2h1.7C113.374,125.226,113.774,124.926,113.774,124.226Z" fill="#182a74"/></g></svg>