<svg xmlns="http://www.w3.org/2000/svg" width="74.646" height="98.09" viewBox="0 0 74.646 98.09"><g transform="translate(-84.2 -52.4)"><path d="M217.8,144.549a4.074,4.074,0,0,0,2,.361,3.039,3.039,0,0,0,2.193-1.253C220.017,143.224,218.932,143.465,217.8,144.549Z" transform="translate(-101.409 -69.115)" fill="#182a74"/><path d="M216.9,178.7c-1.9-.024-5.132.843-6.7,1.084.7.482,3.18,2.048,4.867,3.132l5.542-3.325A8.19,8.19,0,0,0,216.9,178.7Z" transform="translate(-95.641 -95.867)" fill="#182a74"/><path d="M84.2,52.4v86.091c0,3.253,1.325,5.132,3.927,6.12a97.788,97.788,0,0,0,66.791,0c2.6-1.012,3.927-2.891,3.927-6.12V52.4Zm4.241,39.323a8.761,8.761,0,0,1,1.277-4.385l.964.651a10.114,10.114,0,0,0-.506,3.349c.289,4.241,3.711,7.084,14.023,13.541,10.963,6.843,14.023,11.011,14.939,16.433h-.53c-2.385-5.229-7.2-8.144-12.674-11.252v4.217h-.578a25.674,25.674,0,0,0-8.409-10.313c-3.759-2.819-5.277-4.217-6.747-6.457A10.353,10.353,0,0,1,88.441,91.723ZM105.693,141.7l-6.072-8.24H98.054v8.24H93.79V127.19a4.418,4.418,0,0,0-.94-3.277,3.1,3.1,0,0,0-1.084-.651v-.169H102.1c5.012,0,6.915,1.687,6.915,4.891,0,2.723-2.048,4.217-4.795,4.964l6.843,8.746Zm17.541,0h-8.216V126.853a4.1,4.1,0,0,0-.916-2.94,3.085,3.085,0,0,0-1.084-.651v-.169h9.9c5.879,0,6.722,2.193,6.722,4.192a4.148,4.148,0,0,1-3.686,3.976c2.554.169,5.06,1.542,5.06,4.747C131.04,139.985,127.763,141.7,123.234,141.7Zm27.829-1.108s-1.735,1.4-6.168,1.4c-4.747,0-10.144-1.952-10.144-9.445,0-6.674,4.53-9.71,10.553-9.71,4,0,5.662,1.2,5.662,1.2l-.94,3.181s-.12.024-.169-.048a3.561,3.561,0,0,0-1.494-1.518,6.288,6.288,0,0,0-3.421-.8c-3.325,0-5.807,1.855-5.735,7.566.1,6.168,4.144,7.421,6.915,7.421a7.486,7.486,0,0,0,4.915-1.446v2.193Zm2.1-23.9-1.349,4.626h-.7c0-3.855-3.542-4.915-7.228-4.915H132.317a19.035,19.035,0,0,1,.265,6.216H132c-1.06-8.674-5.976-12.963-12.818-17.541v3.952h-.578c-1.807-4.072-5.807-7.879-9.614-10.6h0c-1.012-.723-2.048-1.47-3.084-2.193v4.241h-.578c-1.614-4.217-4.53-7.373-8.674-11.108-4.482-4.048-6.289-6.457-7.349-9.228a13.312,13.312,0,0,1-.843-4.891c-.048-3.3,1.638-6.289,3.711-7.421v1.59a8.1,8.1,0,0,0-1.566,4.867,11.125,11.125,0,0,0,1.181,4.964c2.53,4.819,11.035,10.722,16.433,14.336,16.794,11.276,20.167,13.252,22.938,19.228a13.645,13.645,0,0,1,.867,2.6c2.434-.386,11.228-1.711,12.867-1.976.313-.048.964-.12,1.3-.145a12.745,12.745,0,0,0,3.735-3.711l-6.433-.506c-.337.747-.675,1.349-.964,1.855H142c.169-.651.337-1.3.458-1.928l-1.638-.12v-.337l1.783-.217a30.96,30.96,0,0,0,.53-5.156l-8.12-.458c-.048.819-.048,1.614-.024,2.337h-.53c-.169-.819-.313-1.614-.41-2.409l-1.783-.1v-.554l1.687-.1a38.215,38.215,0,0,1-.169-5.879l-4.747-.217a10.815,10.815,0,0,1,.626,1.3,15.768,15.768,0,0,1,.434,7.759h-.578a17.292,17.292,0,0,0-1.253-5.3c-1.3-3.084-4.265-5.831-9.2-8.987v3.952h-.458c-1.638-5.2-5.735-8.072-11.806-11.2-5.012-2.578-6.578-5.662-6.289-10.481l1.687,1.012a7.479,7.479,0,0,0,7.493,7.06,32.5,32.5,0,0,0,6.048-.675c2.771-.554,5.349-1.036,7.493-.289V77.29h-1.687a5.662,5.662,0,0,1-3.614,1.157c-1.976.048-5.71-1.108-5.71-5.277,0-3.638,3.084-4.217,5.566-4.217,1.349,0,3.566-.048,4.313-.1a1.852,1.852,0,0,0,1.253-.386,1.614,1.614,0,0,0,.434-.94,10.9,10.9,0,0,0,.072-1.687v-2.65H112.27v4.6l-4.385-1.663V65.026h2.1V63.194h-7.831V59.363H99.476A3.125,3.125,0,0,0,96.3,62.3c-.12,1.855.723,3.421,2.626,3.421h.337v2.217h-.337a5.733,5.733,0,0,1-5.879-5.855,6.309,6.309,0,0,1,6.554-6.12h5.662v3.807h22v5.638a30.18,30.18,0,0,1-.145,3.036,3.473,3.473,0,0,1-1.373,2.482,5.473,5.473,0,0,1-3.325.723c-.53,0-2.1-.024-3.976-.145-2.506-.169-3.229.819-3.325,1.711a2.131,2.131,0,0,0,0,.554,5.115,5.115,0,0,1,4.723-.964c3.325,1.036,4.265,1.132,6-.217l.169.386a4.453,4.453,0,0,1-1.012,1.06h1.614v8.674l4.988-2.988h14s5.927,3.084,6.891,3.614a2.2,2.2,0,0,1,1.325,1.807,3.386,3.386,0,0,1-.386,2.072c-.217.337-1.807,2.988-2.675,4.385a15.054,15.054,0,0,1-1.711,22.023A7.681,7.681,0,0,1,153.159,116.685Z" fill="#182a74"/><path d="M338.32,240.523l6.481-.337a12.675,12.675,0,0,0-1.2-4.144l-5.4-.241A26.21,26.21,0,0,1,338.32,240.523Z" transform="translate(-192.799 -139.21)" fill="#182a74"/><path d="M144.691,353.2H141.8v6.891h2.289c2.626,0,4.289-1.349,4.289-3.638C148.354,353.9,147.1,353.2,144.691,353.2Z" transform="translate(-43.721 -228.323)" fill="#182a74"/><path d="M235.951,355.9c0-2.241-1.422-2.7-3.518-2.7H230v5.759h1.879C234.024,358.959,235.951,358.308,235.951,355.9Z" transform="translate(-110.67 -228.323)" fill="#182a74"/><path d="M232.43,384.2H229.9v7.59h2.65c2.94,0,4.7-1.132,4.7-3.952C237.249,385.236,235.9,384.2,232.43,384.2Z" transform="translate(-110.594 -251.854)" fill="#182a74"/><path d="M265.5,182.573l-1.181-1.59.193-.361,3.349,1.807-.723,2.217a12.85,12.85,0,0,1,1.687,1.036L271,182.115l-5.59-2.915H253.048L243,185.248a26.357,26.357,0,0,1,4.843,4.144,15.034,15.034,0,0,1,12.1-6.409,15.487,15.487,0,0,1,4.795.675Z" transform="translate(-120.537 -96.248)" fill="#182a74"/><path d="M336.984,214.142A12.78,12.78,0,0,0,331.9,210.6a27.6,27.6,0,0,1,1.108,3.783Z" transform="translate(-188.017 -120.082)" fill="#182a74"/><path d="M340.2,263.986l-6.747-.386a24.476,24.476,0,0,1-1.349,4.891l7.253-.916A10.605,10.605,0,0,0,340.2,263.986Z" transform="translate(-188.169 -160.312)" fill="#182a74"/><path d="M271.5,215.961l4.626-.241a33.234,33.234,0,0,1,.578-4.12A12.1,12.1,0,0,0,271.5,215.961Z" transform="translate(-142.17 -120.841)" fill="#182a74"/><path d="M303.688,207.1a12.258,12.258,0,0,0-1.349.1,46.4,46.4,0,0,0-1.638,4.988l5.71-.313a24.6,24.6,0,0,0-1.9-4.747C304.218,207.1,303.953,207.1,303.688,207.1Z" transform="translate(-164.335 -117.425)" fill="#182a74"/><path d="M296.492,233.9a40.883,40.883,0,0,0-.892,5.71l8.048-.434a29.447,29.447,0,0,0-.6-4.988Z" transform="translate(-160.464 -137.768)" fill="#182a74"/></g></svg>