<svg xmlns="http://www.w3.org/2000/svg" width="299.482" height="294.204" viewBox="0 0 299.482 294.204"><path d="M307.163,164.912a133.928,133.928,0,0,0-15.141-62.048A290.764,290.764,0,0,0,301.455,73.6c11.284-41.384-14.671-66.032-54.495-62.015-24.185,2.44-46.956,9.044-68.971,18.919-1.777-.069-3.561-.115-5.355-.115A134.566,134.566,0,0,0,40.179,141.277c27.674-39.975,68.046-61.159,68.046-61.159-27.56,28.874-51.335,57.286-68.991,87.235-.338.536-.67,1.078-.993,1.634C23.506,194.356,13.195,220.856,8.757,249.7,2.671,289.264,22.55,310.4,65.014,304.331c14.594-2.085,41.029-14.829,48.518-18.548A134.607,134.607,0,0,0,299.5,209.753H226.685a59.921,59.921,0,0,1-111.865-26.9H305.97A135.679,135.679,0,0,0,307.163,164.912ZM65.829,294.547c-22.709,2.392-52.038-22.352-18.61-80.9a134.987,134.987,0,0,0,55.625,66.283C95.9,283.832,78.068,293.259,65.829,294.547ZM115.263,142.9a59.912,59.912,0,0,1,118.822,0ZM223.017,40.145c56.723-26.592,77.334,1.81,71.1,30.766-.859,3.989-3.976,14.6-6.736,23.753A135.011,135.011,0,0,0,223.017,40.145Z" transform="translate(-7.681 -11.154)" fill="#fff"/></svg>