<?xml version="1.0" encoding="utf-8"?><svg id="eyes" image-rendering="optimizeSpeed" baseProfile="basic" version="1.1" preserveAspectRatio="xMidYMid meet" x="0px" y="0px" width="500" height="200" xmlns="http://www.w3.org/2000/svg" viewBox="0 0 500 200" xmlns:xlink="http://www.w3.org/1999/xlink"><defs><g id="worm-eyed35" overflow="visible"><g display="none" id="worm eye_1.15"><path fill="#192D72" stroke="none" d="M5.05 -6.75Q3 -9.55 .05 -9.55 -2.9 -9.55 -5.05 -6.75 -7.15 -3.95 -7.15 -.05 -7.15 3.9 -5.05 6.7 -3 9.5 .05 9.5 3 9.5 5.05 6.7 7.1 3.9 7.1 -.05 7.1 -3.95 5.05 -6.75Z"/><animate attributeName="display" repeatCount="indefinite" dur="1.167s" keyTimes="0;.429;.971;1" values="none;inline;none;none"/></g><g display="none"><use xlink:href="#Tween-2" transform="matrix(1 0 0 .315 0 0)"><animateTransform attributeName="transform" additive="replace" type="scale" repeatCount="indefinite" dur="1.167s" keyTimes="0;.39999;.4;1" values="1,.315;1,.315;1,.657;1,.657" calcMode="discrete"/></use><animate attributeName="display" repeatCount="indefinite" dur="1.167s" keyTimes="0;.371;.429;1" values="none;inline;none;none"/></g><g display="none"><use xlink:href="#Tween-1"><animateTransform attributeName="transform" additive="replace" type="scale" repeatCount="indefinite" dur="1.167s" keyTimes="0;.34299;.343;1" values="1,1;1,1;1,.358;1,.358" calcMode="discrete"/></use><animate attributeName="display" repeatCount="indefinite" dur="1.167s" keyTimes="0;.314;.371;1" values="none;inline;none;none"/></g><g display="none" id="worm eye_1.5"><path fill="#192D72" stroke="none" d="M5.05 -6.7Q3 -9.5 .05 -9.5 -2.9 -9.5 -5.05 -6.7 -7.15 -3.9 -7.15 0 -7.15 3.95 -5.05 6.75 -3 9.55 .05 9.55 3 9.55 5.05 6.75 7.1 3.95 7.1 0 7.1 -3.9 5.05 -6.7Z"/><animate attributeName="display" repeatCount="indefinite" dur="1.167s" keyTimes="0;.143;.314;1" values="none;inline;none;none"/></g><g display="none"><use xlink:href="#Tween-2" transform="matrix(1 0 0 .315 0 0)"><animateTransform attributeName="transform" additive="replace" type="scale" repeatCount="indefinite" dur="1.167s" keyTimes="0;.11399;.114;1" values="1,.315;1,.315;1,.657;1,.657" calcMode="discrete"/></use><animate attributeName="display" repeatCount="indefinite" dur="1.167s" keyTimes="0;.086;.143;1" values="none;inline;none;none"/></g><g><use xlink:href="#Tween-1"><animateTransform attributeName="transform" additive="replace" type="scale" repeatCount="indefinite" dur="1.167s" keyTimes="0;.02899;.029;.05699;.057;.97099;.971;1" values="1,1;1,1;1,.45;1,.45;1,.323;1,.323;1,1;1,1" calcMode="discrete"/></use><animate attributeName="display" repeatCount="indefinite" dur="1.167s" keyTimes="0;.086;.971;1" values="inline;none;inline;inline"/></g></g><g id="Tween-1" overflow="visible"><path fill="#192D72" stroke="none" d="M5.05 -6.75Q3 -9.55 .05 -9.55 -2.9 -9.55 -5.05 -6.75 -7.15 -3.95 -7.15 -.05 -7.15 3.9 -5.05 6.7 -3 9.5 .05 9.5 3 9.5 5.05 6.7 7.1 3.9 7.1 -.05 7.1 -3.95 5.05 -6.75Z"/></g><g id="Tween-2" overflow="visible"><path fill="#192D72" stroke="none" d="M5.05 -6.75Q3 -9.55 .05 -9.55 -2.9 -9.55 -5.05 -6.75 -7.15 -3.95 -7.15 -.05 -7.15 3.9 -5.05 6.7 -3 9.5 .05 9.5 3 9.5 5.05 6.7 7.1 3.9 7.1 -.05 7.1 -3.95 5.05 -6.75Z"/></g></defs><g id="Scene-1" overflow="visible"><use xlink:href="#worm-eyed35" transform="matrix(6.386 0 0 6.386 86.55 129.1)"/><use xlink:href="#worm-eyed35" transform="matrix(6.386 0 0 6.386 412.95 129.1)"/><g transform="translate(-6 0)"><path id="Layer1_0_1_STROKES" stroke="#192D72" stroke-width="5" stroke-linejoin="miter" stroke-linecap="round" stroke-miterlimit="10" fill="none" d="M41.65 48.1Q62.9 26.85 92.7 26.85 121.95 26.85 143.2 47.5"/></g><g transform="translate(320.4 0)"><path id="Layer2_0_1_STROKES" stroke="#192D72" stroke-width="5" stroke-linejoin="miter" stroke-linecap="round" stroke-miterlimit="10" fill="none" d="M41.65 48.1Q62.9 26.85 92.7 26.85 121.95 26.85 143.2 47.5"/></g></g></svg>