<svg xmlns="http://www.w3.org/2000/svg" width="297.074" height="288.94" viewBox="0 0 297.074 288.94"><path d="M416.485,76.227q-1.224-1.208-2.476-2.386Q415.241,75.031,416.485,76.227Z" transform="translate(-168.721 -41.519)" fill="#fff"/><path d="M21.6,208.8s-.42.514-1.052,1.37c-.09.467-.183.934-.269,1.4A12.967,12.967,0,0,1,21.6,208.8Z" transform="translate(-14.895 -94.245)" fill="#fff"/><path d="M88.195,67.871c.271-.275.535-.554.808-.827A137.251,137.251,0,0,1,236.454,36.5c9.381,1.621,21.885,4.742,32.3,10.664a143.194,143.194,0,0,0-184.968,16.5A26.213,26.213,0,0,0,88.195,67.871Z" transform="translate(-39.708 -20.795)" fill="#fff"/><path d="M110.762,188.063a17.494,17.494,0,0,1-2.576-2.643,55.125,55.125,0,0,0-.405,6.556,44.586,44.586,0,0,0,2.008,13.557,36.841,36.841,0,0,0,7.635,13.421A43.33,43.33,0,0,0,127,226.91l-.219.353c7.364.133,19.347-.008,25.419-2.032,9.14-3.047,23.763-14.624,23.763-14.624,3.656-3.656,7.921-1.828,11.577-1.828s4.875-5.484,0-10.968S165.6,186.844,152.8,195.375,121.73,197.2,110.762,188.063Zm8.832-80.413a43.132,43.132,0,0,0-1.52,11.082,32.427,32.427,0,0,0,2.7,13.256,59.216,59.216,0,0,0,4.474,8.338c.963,1.486,1.861,2.714,2.7,3.858a46.823,46.823,0,0,1,5.36-4.255c3.656-2.437,17.67-9.14,19.5-10.968s5.484-11.577,2.437-14.624S132.7,113.118,126.6,111.9C124.037,111.385,121.58,109.574,119.594,107.65Zm3.935,59.62c.019.048.029.076.029.076.024-.047.043-.1.066-.144Zm180.385-27.343c0,4.953-4.473,11.894-5.339,13.19.18-.46.464-1.911.464-6.487,0-6.7,1.828-23.763-6.7-42.652s-21.326-28.028-21.326-28.028v4.265c-1.828-6.093-18.889-17.67-18.889-17.67v6.093c30.466,28.028,33.512,47.526,33.512,47.526-5.484-17.67-21.326-31.075-34.731-43.871s-41.433-19.5-41.433-19.5a126.311,126.311,0,0,1,44.48,43.871c-15.233-14.624-27.419-13.4-27.419-13.4,9.14,6.7,13.4,14.014,21.935,27.419s7.921,45.089,7.921,45.089a29.957,29.957,0,0,0-12.8-14.624s1.828,18.279,3.047,28.638-4.265,29.856-4.265,29.856c0-7.312-4.265-9.14-4.265-9.14s1.219,4.265-4.875,23.763-17.67,26.2-19.5,25.591,0-3.656,0-3.656-3.047-2.437-7.312,4.265c-3.6,5.653-9.8,8.705-11.648,9.522,1.987-1.128,2.508-5.257,2.508-5.257s-4.265,2.437-23.763,5.484-28.638-5.484-28.638-5.484c1.828-1.828,10.358,0,10.358,0,0-1.828-9.749-4.875-19.5-6.093-7.926-.991-11.769-4.667-13.608-7.615a48.6,48.6,0,0,1-9.265-8.02,42.873,42.873,0,0,1-6.8-10.294,48.584,48.584,0,0,1-4.383-20.732,64.577,64.577,0,0,1,1.882-15.206,50.29,50.29,0,0,1,1.928-6.3h0l.13.052c1.144-3.521,3.391-6.352,6.05-7.506a26.689,26.689,0,0,0-2.574-1.565,20.341,20.341,0,0,0-12.922-2.276,28.309,28.309,0,0,0-12.476,5.795A27.953,27.953,0,0,0,75.3,176.029a35.111,35.111,0,0,0-2.862,14.02,39.994,39.994,0,0,0,2.705,14.294,49.008,49.008,0,0,0,7.369,12.793,65.5,65.5,0,0,0,10.579,10.533,65.934,65.934,0,0,1-11.22-10,50.254,50.254,0,0,1-8.27-12.688,42.075,42.075,0,0,1-3.666-14.862A38.023,38.023,0,0,1,72.2,174.783a31.661,31.661,0,0,1,8.9-13.072,38.287,38.287,0,0,1,6.557-4.467,28.391,28.391,0,0,1,7.647-2.8,24.576,24.576,0,0,1,8.3-.276,27.073,27.073,0,0,1,7.925,2.4,34.363,34.363,0,0,1,6.88,4.377,39.2,39.2,0,0,1,3.012,2.713q.719.717,1.4,1.479c.38.428.732.833,1.112,1.315,2.171-5.628.649-15.036.292-17.011-1.149-1.627-2.78-3.679-4.617-6.609a66.272,66.272,0,0,1-4.416-8.373,38.519,38.519,0,0,1-3.224-15.731,49.853,49.853,0,0,1,2.223-14.4c.342-1.12.684-2.106,1-2.939,3.443-14.978,19.935-29.711,19.935-29.711-23.154-3.047-39,18.279-39,18.279-.064-.04-.13-.075-.194-.114-1.642,1.82-7.208,8.33-7.727,13.519,0,0,.193-9.325,2.524-15.845-8.834-2.815-19.232-1.344-24.565-.239l.035.194a44.413,44.413,0,0,0-14.889,5.73,63.041,63.041,0,0,0-11.475,8.919A70.373,70.373,0,0,0,29.879,114.1h0v0L29.708,114C18.493,130.254,11.444,164.91,11.444,164.91c1.219-5.484,6.7-12.186,6.7-12.186-6.093,9.14-4.875,51.182-4.875,51.182,0-6.7,3.656-14.624,3.656-14.624,1.219,14.014,7.312,59.1,46.917,93.225s73.118,37.168,73.118,37.168c-7.921-2.437-9.749-6.093-9.749-6.093,25.591,10.358,41.433,8.53,41.433,8.53-4.265-2.437-4.875-4.265-4.875-4.265,27.419,1.219,63.978-8.53,72.508-14.624s15.842-18.279,15.842-18.279c21.935-10.358,37.168-31.684,41.433-42.652s0-22.545,0-22.545,0-.609,10.358-23.763S303.914,139.927,303.914,139.927ZM48.083,88.046a54.528,54.528,0,0,1,8.3-4.084,28.938,28.938,0,0,1-10.82-22.637c-11.738,11.333-14.6,30.461-15.2,42.028.166-.194.331-.389.5-.587A73.25,73.25,0,0,1,48.083,88.046Z" transform="translate(-11.444 -33.297)" fill="#fff"/></svg>