<svg xmlns="http://www.w3.org/2000/svg" width="433.663" height="76.281" viewBox="0 0 433.663 76.281"><g transform="translate(-1184 -5092)"><g transform="translate(1184 5092)"><g transform="translate(0 0)"><g transform="translate(0 0)"><rect width="433.663" height="76.281" rx="38.14" fill="#182a74"/><g transform="translate(0 0)"><rect width="319.461" height="76.281" rx="38.14" fill="#ff6d00"/></g></g></g></g><g transform="translate(663.918 4746.758)" style="isolation:isolate"><g style="isolation:isolate"><path d="M579.855,385.664v-3.023h8.459v12.706h-2.7l-.324-3.455a7.943,7.943,0,0,1-7.091,3.743,10.771,10.771,0,0,1-7.955-3.348c-2.2-2.231-3.275-5.4-3.275-9.539s1.115-7.307,3.311-9.539a10.9,10.9,0,0,1,8.063-3.347c5.183,0,8.747,2.915,9.9,7.631l-3.06.9c-1.187-3.671-3.491-5.507-6.839-5.507a7.5,7.5,0,0,0-5.867,2.555c-1.476,1.692-2.232,4.14-2.232,7.307s.756,5.615,2.232,7.308a7.5,7.5,0,0,0,5.867,2.555c4.212,0,6.659-2.771,6.947-6.947Z" fill="#fff"/><path d="M610.634,386.924H597.315c.18,3.563,1.98,5.975,5.112,5.975,2.555,0,3.995-1.116,5.039-3.456l2.663,1.153c-1.691,3.563-3.959,5.039-7.7,5.039a7.334,7.334,0,0,1-6.084-2.7,10.6,10.6,0,0,1-2.123-6.66,10.428,10.428,0,0,1,2.123-6.623,7.258,7.258,0,0,1,6.084-2.735,7.472,7.472,0,0,1,6.011,2.52,8.779,8.779,0,0,1,2.2,6.083Zm-13.139-2.736h9.971c-.576-2.736-2.268-4.536-5.039-4.536C599.727,379.652,598.071,381.416,597.495,384.188Z" fill="#fff"/><path d="M614.956,379.94V377.2h3.131V371.77l3.024-1.908V377.2h4.751v2.735h-4.751v9.971c0,1.908.864,2.988,2.411,2.988a3.52,3.52,0,0,0,2.052-.576l.72,2.628a5.689,5.689,0,0,1-2.952.684c-3.2,0-5.255-2.052-5.255-5.976V379.94Z" fill="#fff"/><path d="M644.979,369.862a2.244,2.244,0,0,1,2.267,2.3,2.268,2.268,0,0,1-4.535,0A2.245,2.245,0,0,1,644.979,369.862Zm-1.512,7.343h3.023v18.142h-3.023Z" fill="#fff"/><path d="M667.657,395.347h-3.024V383.36c0-2.483-1.044-3.708-3.132-3.708a4.5,4.5,0,0,0-3.671,2.233,10.276,10.276,0,0,0-1.512,5.867v7.595h-3.024V377.2h3.024v3.348a6.566,6.566,0,0,1,6.012-3.636c3.311,0,5.327,2.052,5.327,5.651Z" fill="#fff"/><path d="M684.11,379.94V377.2h3.132V371.77l3.024-1.908V377.2h4.752v2.735h-4.752v9.971c0,1.908.863,2.988,2.412,2.988a3.524,3.524,0,0,0,2.051-.576l.72,2.628a5.686,5.686,0,0,1-2.952.684c-3.2,0-5.255-2.052-5.255-5.976V379.94Z" fill="#fff"/><path d="M699.843,386.275a9.749,9.749,0,0,1,2.376-6.587,8.03,8.03,0,0,1,6.335-2.771,7.909,7.909,0,0,1,6.3,2.771,10.254,10.254,0,0,1,0,13.211,7.881,7.881,0,0,1-6.3,2.736,8,8,0,0,1-6.335-2.736A9.843,9.843,0,0,1,699.843,386.275Zm3.095,0a7.714,7.714,0,0,0,1.476,4.68,4.944,4.944,0,0,0,4.14,1.944,4.83,4.83,0,0,0,4.1-1.944,7.513,7.513,0,0,0,1.512-4.68,7.335,7.335,0,0,0-1.512-4.642,4.77,4.77,0,0,0-4.1-1.981,4.881,4.881,0,0,0-4.14,1.981A7.529,7.529,0,0,0,702.938,386.275Z" fill="#fff"/><path d="M723.459,377.2h3.023v11.986c0,2.484,1.043,3.708,3.131,3.708a4.391,4.391,0,0,0,3.636-2.232A10.007,10.007,0,0,0,734.8,384.8v-7.6h3.023v18.142H734.8V392a6.564,6.564,0,0,1-6.012,3.636c-3.31,0-5.326-2.052-5.326-5.652Z" fill="#fff"/><path d="M760.033,390.631a7.7,7.7,0,0,1-7.6,5,7.406,7.406,0,0,1-6.119-2.7,10.6,10.6,0,0,1-2.123-6.66,10.428,10.428,0,0,1,2.123-6.623,7.328,7.328,0,0,1,6.119-2.735,7.7,7.7,0,0,1,7.6,5L757.405,383a5.064,5.064,0,0,0-4.968-3.348c-3.347,0-5.146,2.737-5.146,6.623s1.8,6.624,5.146,6.624a5.063,5.063,0,0,0,4.968-3.347Z" fill="#fff"/><path d="M780.877,395.347h-3.023V383.36c0-2.483-1.045-3.708-3.132-3.708a4.824,4.824,0,0,0-3.816,2.233,9.263,9.263,0,0,0-1.656,5.759v7.7h-3.023V369.862h3.023v10.727a6.9,6.9,0,0,1,6.3-3.672c3.347,0,5.328,2.052,5.328,5.831Z" fill="#fff"/></g></g></g></svg>