<svg id="Layer_1" data-name="Layer 1" xmlns="http://www.w3.org/2000/svg" width="1867.18" height="376.69" viewBox="0 0 1867.18 376.69">
  <path d="M.06,292.07C.06,211.55,67.74,146,148.27,146c44.51,0,76.19,17.48,100.09,40.24l-28.14,28.15c-17.08-16-40.25-28.48-72-28.48C89.43,185.9,43.47,233.24,43.47,292s46,106.21,104.73,106.21c38.13,0,59.82-15.3,73.74-29.25,11.4-11.4,18.86-27.77,21.75-50.23H148.27V279H282.58a130.42,130.42,0,0,1,2.15,24.92c0,29.89-8.2,67-34.59,93.37-25.68,26.72-58.43,41-101.9,41C67.68,438.22,0,372.72,0,292.13Zm393.25-42c-52,0-94.47,39.58-94.47,94,0,54.19,42.42,94,94.47,94s94.41-39.91,94.41-94.07C487.72,289.58,445.32,250,393.31,250Zm0,151.1c-28.48,0-53.09-23.51-53.09-57,0-33.86,24.58-57,53.09-57s53.06,23.13,53.06,57C446.37,377.6,421.82,401.14,393.31,401.14ZM599.3,250c-52,0-94.41,39.58-94.41,94,0,54.19,42.4,94,94.41,94s94.41-39.91,94.41-94.07c0-54.48-42.37-94.05-94.41-94Zm0,151.1c-28.48,0-53.09-23.51-53.09-57,0-33.86,24.58-57,53.09-57s53.09,23.13,53.09,57c0,33.48-24.61,57-53.09,57ZM852.12,255.76v15.3H850.7C841.45,260,823.64,250,801.21,250c-47,0-90.2,41.36-90.2,94.48,0,52.68,43.13,93.7,90.2,93.7,22.43,0,40.24-10,49.49-21.35h1.42v13.51c0,36-19.24,55.24-50.24,55.24-25.31,0-41-18.18-47.4-33.45l-36,15c10.33,24.91,37.79,55.57,83.38,55.57,48.42,0,89.41-28.54,89.41-98V255.73ZM804.74,401.14c-28.48,0-52.41-23.9-52.41-56.65,0-33.12,23.9-57.36,52.41-57.36,28.14,0,50.23,24.21,50.23,57.36C855,377.24,832.91,401.14,804.74,401.14ZM919.8,156h41.35v276.5H919.8Zm154.68,245.17c-21,0-36-9.65-45.56-28.48l125.78-52.08-4.33-10.69c-7.81-21-31.71-59.85-80.53-59.85-48.44,0-88.72,38.13-88.72,94.08,0,52.69,39.91,94,93.36,94,43.14,0,68.08-26.33,78.41-41.69l-32.08-21.35c-10.72,15.69-25.34,26.05-46.33,26Zm-3.22-114.75c16.37,0,30.26,8.2,34.9,19.94L1022,341.26c-1-36.35,28.17-54.87,49.22-54.87ZM1336.15,156h-98.87v276.5h41.26V327.74h57.64c45.74,0,90.72-33.12,90.72-85.9S1382,156,1336.24,156Zm1.07,133.28h-58.68V194.44h58.68c30.85,0,48.42,25.59,48.42,47.4C1385.64,263.29,1368.07,289.25,1337.22,289.25Zm153.67,143.22V156h-41.26v276.5Zm185.35-.49V326c0-49.09-36.68-76.47-84-76.47-29.84,0-60.77,13.18-73.58,42.34l36.62,15.27c7.83-15.27,22.39-20.28,37.72-20.28,21.33,0,43,12.81,43.35,35.61v2.85c-7.46-4.27-23.44-10.69-43-10.69-39.48,0-79.66,21.69-79.66,62.25,0,37,32.38,60.83,68.66,60.83,27.78,0,43-12.45,52.63-27h1.41V432h39.88Zm-88.94-30.9c-13.52,0-32.38-6.76-32.38-23.45,0-21.35,23.5-29.58,43.78-29.58,18.16,0,26.67,3.9,37.73,9.25a50.15,50.15,0,0,1-49.13,43.78Zm234-145.51L1774,375.42h-1.41l-49.1-119.85h-44.45l73.61,167.56-42,93.19h43l113.46-260.75Z" transform="translate(0 -145.99)" fill="#182a74" fill-rule="evenodd"/>
</svg>
