<svg xmlns="http://www.w3.org/2000/svg" width="442.865" height="104" viewBox="0 0 442.865 104"><g transform="translate(0 -13.328)"><path d="M407.594,313.254,387.5,324.666l.359.359,19.69-11.189c2.819-1.611,4.207-3.712,4.207-5.818-.179,1.926-1.611,3.761-4.163,5.236Z" transform="translate(-318.857 -242.487)" fill="#fff" fill-rule="evenodd" opacity="0.12" style="isolation:isolate"/><g transform="translate(112.101 36.828)"><path d="M632.83,171.866c0-14.264,11.99-25.878,26.254-25.878a24.689,24.689,0,0,1,17.731,7.129L671.83,158.1a18.012,18.012,0,0,0-12.752-5.045,18.81,18.81,0,0,0-.005,37.617c6.754,0,10.6-2.71,13.062-5.181,2.019-2.019,3.341-4.92,3.853-8.9h-16.9v-7.053h23.794a23.2,23.2,0,0,1,.381,4.414c0,5.3-1.453,11.864-6.128,16.539-4.55,4.735-10.351,7.26-18.052,7.26-14.27,0-26.259-11.6-26.259-25.878Zm69.662-7.445a16.659,16.659,0,1,0,16.724,16.654A16.434,16.434,0,0,0,702.492,164.421Zm0,26.765c-5.045,0-9.4-4.163-9.4-10.1,0-6,4.354-10.1,9.4-10.1s9.4,4.1,9.4,10.1C711.891,187.018,707.542,191.187,702.492,191.187Zm36.491-26.765a16.659,16.659,0,1,0,16.724,16.654,16.425,16.425,0,0,0-16.724-16.654Zm0,26.765c-5.045,0-9.4-4.163-9.4-10.1,0-6,4.354-10.1,9.4-10.1s9.4,4.1,9.4,10.1c0,5.932-4.359,10.1-9.4,10.1Zm44.785-25.753v2.71h-.25a11.507,11.507,0,0,0-8.767-3.728c-8.332,0-15.979,7.325-15.979,16.735,0,9.334,7.641,16.6,15.979,16.6a11.347,11.347,0,0,0,8.767-3.782h.25v2.395c0,6.373-3.407,9.785-8.9,9.785a9.231,9.231,0,0,1-8.4-5.927l-6.378,2.65a15.888,15.888,0,0,0,14.77,9.845c8.577,0,15.837-5.056,15.837-17.361V165.428Zm-8.392,25.753c-5.045,0-9.285-4.234-9.285-10.036,0-5.867,4.234-10.161,9.285-10.161,4.985,0,8.9,4.289,8.9,10.161C784.279,186.953,780.366,191.187,775.376,191.187Zm20.382-43.43h7.325v48.981h-7.325Zm27.4,43.43a8.465,8.465,0,0,1-8.071-5.045l22.281-9.225-.767-1.894c-1.382-3.717-5.616-10.6-14.264-10.6-8.583,0-15.717,6.754-15.717,16.664a16.308,16.308,0,0,0,16.539,16.659,16.556,16.556,0,0,0,13.889-7.385l-5.682-3.782a9.517,9.517,0,0,1-8.207,4.61Zm-.571-20.327c2.9,0,5.361,1.453,6.183,3.532l-14.9,6.188a9.146,9.146,0,0,1,8.719-9.72Zm46.924-23.1H852v48.981h7.309V178.185h10.21c8.1,0,16.071-5.867,16.071-15.217,0-9.334-7.962-15.206-16.06-15.206Zm.191,23.609H859.308v-16.8H869.7a8.4,8.4,0,1,1,0,16.8Zm27.223,25.372V147.757h-7.309v48.981Zm32.834-.087V177.875c0-8.7-6.5-13.546-14.885-13.546-5.284,0-10.765,2.335-13.034,7.5l6.487,2.7c1.388-2.7,3.968-3.592,6.683-3.592,3.777,0,7.619,2.269,7.679,6.308v.506a16.137,16.137,0,0,0-7.625-1.894c-6.993,0-14.112,3.842-14.112,11.026,0,6.558,5.736,10.776,12.164,10.776,4.92,0,7.625-2.2,9.323-4.784h.25v3.782h7.064ZM914,191.176c-2.394,0-5.736-1.2-5.736-4.152,0-3.782,4.163-5.241,7.755-5.241a13.03,13.03,0,0,1,6.683,1.638,8.881,8.881,0,0,1-8.7,7.755Zm41.46-25.775-8.381,21.231h-.25l-8.7-21.231h-7.875l13.04,29.682-7.44,16.507h7.625l20.1-46.189Z" transform="translate(-632.819 -145.988)" fill="#fff" fill-rule="evenodd"/></g><path d="M2.474,115.871l45.634-45.5L64.193,86.405,9.945,116.482a6.772,6.772,0,0,1-6.639-.048ZM43.506,65.779,0,109.159V22.4ZM70.693,47.852,91.948,59.634a6.482,6.482,0,0,1,0,11.388l-21.835,12.1-17.4-17.346ZM1.993,15.2a6.583,6.583,0,0,1,1.313-.984,6.771,6.771,0,0,1,6.639-.048l54.829,30.4L48.108,61.19Z" fill="#fff" fill-rule="evenodd"/></g></svg>