<svg xmlns="http://www.w3.org/2000/svg" width="144.937" height="81.021" viewBox="0 0 144.937 81.021"><g transform="translate(0)"><g transform="translate(0 0)"><path d="M465.492-185.158" transform="translate(-325.207 208.287)" fill="#fff"/><path d="M465.492-174.966" transform="translate(-325.207 213.64)" fill="#fff"/><path d="M511.259-162.528H476.7s-19.952-37.794-58.011-37.794l-23.323.807s-21.854,1.832-21.854,25.984,21.854,24.814,21.854,24.814h9.891c11.572,0,18.2,10.524,30.044,21.048,7.4,6.578,14.421,9.485,17.691,7.979,7.031-3.241,2.566-8.744-.787-12.048-7.384-7.272-12.031-10.637-1.971-14.583,8.515-3.34,61.019-1.82,61.019-1.82a7.193,7.193,0,0,0,7.195-7.193A7.2,7.2,0,0,0,511.259-162.528Z" transform="translate(-373.517 200.322)" fill="#fff"/></g><path d="M442.982-168s-11.546-21.872-33.572-21.872" transform="translate(-354.664 205.81)" fill="none" stroke="#182a74" stroke-linecap="round" stroke-linejoin="round" stroke-width="2"/><path d="M426.2-171.768S420.424-182.7,409.41-182.7" transform="translate(-354.664 209.576)" fill="none" stroke="#000" stroke-linecap="round" stroke-linejoin="round" stroke-width="2"/></g></svg>