<svg xmlns="http://www.w3.org/2000/svg" width="561.226" height="586.453" viewBox="0 0 561.226 586.453"><g transform="translate(-33.523 -252.946)"><g transform="translate(425.232 730.474) rotate(90)"><g transform="translate(0 0)"><g transform="translate(0)"><path d="M68.051,147.17c-12.454,0-22.551,9.02-22.551,20.149,0,13.911,12.62,25.187,28.188,25.187,19.461,0,35.236-14.1,35.236-31.484,0-21.735-19.72-39.355-44.044-39.355H0V70.839H64.88c24.325,0,44.045-17.62,44.045-39.355C108.926,14.1,93.15,0,73.69,0,58.122,0,45.5,11.277,45.5,25.187c0,11.129,10.1,20.15,22.551,20.15" fill="#182a74"/><path d="M26.419,96.341c-12.454,0-22.55,9.021-22.551,20.15,0,13.91,12.62,25.187,28.189,25.187,19.461,0,35.236-14.1,35.236-31.484,0-21.735-19.719-39.355-44.044-39.355,24.325,0,44.044-17.619,44.045-39.355C67.294,14.1,51.518,0,32.058,0,16.489,0,3.869,11.277,3.869,25.187c0,11.129,10.1,20.15,22.551,20.15L0,70.839Z" transform="translate(41.632 25.414)" fill="#182a74"/></g></g></g><g transform="translate(308.913 280.088)"><g transform="translate(0 0)"><path d="M445.838,114.108h0a20.2,20.2,0,0,1,20.195,20.2v43.359H425.64V134.306A20.2,20.2,0,0,1,445.838,114.108Z" transform="translate(-425.64 -114.108)" fill="none" stroke="#182a74" stroke-linecap="round" stroke-miterlimit="10" stroke-width="1"/><path d="M438.489,206.506V312.983a7.9,7.9,0,0,1-7.9,7.9h0" transform="translate(-426.415 -128.588)" fill="none" stroke="#182a74" stroke-linecap="round" stroke-miterlimit="10" stroke-width="1"/><path d="M457.141,206.507v35.719a7.9,7.9,0,0,0,7.9,7.9h0" transform="translate(-430.577 -128.589)" fill="none" stroke="#182a74" stroke-linecap="round" stroke-miterlimit="10" stroke-width="1"/><rect width="40.396" height="14.361" transform="translate(0 63.557)" fill="none" stroke="#182a74" stroke-linecap="round" stroke-miterlimit="10" stroke-width="1"/></g><g transform="translate(8.463 17.11)"><path d="M457.907,144.7a5.272,5.272,0,0,1,5.272,5.272" transform="translate(-439.16 -136.012)" fill="none" stroke="#182a74" stroke-linecap="round" stroke-miterlimit="10" stroke-width="1"/><path d="M435.676,135.943a5.269,5.269,0,0,1,7.455,0" transform="translate(-435.676 -134.398)" fill="none" stroke="#182a74" stroke-linecap="round" stroke-miterlimit="10" stroke-width="1"/><path d="M460.088,150.948" transform="translate(-439.502 -136.992)" fill="none" stroke="#182a74" stroke-linecap="round" stroke-miterlimit="10" stroke-width="1"/><ellipse cx="3.137" cy="4.205" rx="3.137" ry="4.205" transform="translate(15.61 20.925)" fill="#182a74"/><ellipse cx="3.137" cy="4.205" rx="3.137" ry="4.205" transform="translate(0.921 20.925)" fill="#182a74"/></g></g><g transform="translate(148.073 376.29)"><ellipse cx="182.626" cy="183.07" rx="182.626" ry="183.07" transform="translate(0 0)" fill="#96d5ef"/><g transform="translate(71.452 77.987)"><g transform="translate(82.642 77.952)"><g transform="translate(0)"><path d="M489.812,768.984V742.109h-.005a26.874,26.874,0,0,0-26.869,26.875h26.874Z" transform="translate(-462.938 -742.109)"/><path d="M521.68,773.978H494.806v26.874A26.874,26.874,0,0,0,521.68,773.978Z" transform="translate(-467.932 -747.103)"/></g><g transform="translate(0.001 0.001)"><path d="M494.807,768.984H521.68v0a26.873,26.873,0,0,0-26.874-26.869h0Z" transform="translate(-467.933 -742.11)" fill="#fff"/><path d="M489.813,800.852V773.978H462.939A26.874,26.874,0,0,0,489.813,800.852Z" transform="translate(-462.939 -747.104)" fill="#fff"/></g></g><g transform="translate(43.961 0)"><path d="M532.346,382.768c-16.289,0-26.045-8.28-26.045-18.494s9.755-18.494,26.045-18.494h0c16.289,0,26.045,8.28,26.045,18.494s-9.755,18.494-26.045,18.494Z" transform="translate(-506.301 -345.78)" fill="#fff"/><circle cx="10.603" cy="10.603" r="10.603" transform="translate(15.442 7.891)"/><g transform="translate(79.701)"><path d="M637.9,382.768c-16.289,0-26.044-8.28-26.044-18.494s9.755-18.494,26.044-18.494h0c16.29,0,26.044,8.28,26.044,18.494s-9.754,18.494-26.044,18.494Z" transform="translate(-611.858 -345.78)" fill="#fff"/><circle cx="10.603" cy="10.603" r="10.603" transform="translate(15.442 7.891)"/></g></g><g transform="translate(0 164.81)"><g transform="translate(0 0)"><path d="M34.731,0A34.731,34.731,0,1,1,0,34.731,34.731,34.731,0,0,1,34.731,0Z" fill="#fff"/><line x2="18.552" transform="translate(25.72 34.996)" fill="none" stroke="#182a74" stroke-width="1"/><g transform="translate(149.586)"><circle cx="34.731" cy="34.731" r="34.731" fill="#fff"/><line x2="18.552" transform="translate(25.395 34.996)" fill="none" stroke="#182a74" stroke-width="1"/><line x2="18.552" transform="translate(34.671 25.72) rotate(90)" fill="none" stroke="#182a74" stroke-width="1"/></g><g transform="translate(81.092 30.484)"><path d="M465.631,242.756a5.1,5.1,0,0,1,7.214,0" transform="translate(-415.981 -241.262)" fill="rgba(0,0,0,0)" stroke="#182a74" stroke-linecap="round" stroke-miterlimit="10" stroke-width="1"/><path d="M406.754,242.756a5.1,5.1,0,0,1,7.215,0" transform="translate(-406.754 -241.262)" fill="rgba(0,0,0,0)" stroke="#182a74" stroke-linecap="round" stroke-miterlimit="10" stroke-width="1"/><path d="M460.764,242.149c0,7.073-8.244,19.289-24.866,19.289s-24.866-12.217-24.866-19.289" transform="translate(-407.425 -241.401)" fill="rgba(0,0,0,0)" stroke="#182a74" stroke-linecap="round" stroke-miterlimit="10" stroke-width="1"/></g></g></g></g></g><g transform="translate(46.633 295.938) rotate(-45)"><line y2="55.133" transform="translate(42.753 80.708)" fill="none" stroke="#182a74" stroke-miterlimit="10" stroke-width="1"/><line y2="55.133" transform="translate(17.047 80.708)" fill="none" stroke="#182a74" stroke-miterlimit="10" stroke-width="1"/><rect width="58.113" height="110.756" rx="29.056" transform="translate(0.843 0.843)" fill="none" stroke="#182a74" stroke-width="1"/><circle cx="29.9" cy="29.9" r="29.9" transform="translate(0 0)" fill="#fff" stroke="rgba(0,0,0,0)" stroke-width="1"/><circle cx="12.853" cy="12.853" r="12.853" transform="translate(17.047 17.046)" fill="#182a74" stroke="rgba(0,0,0,0)" stroke-width="1"/></g><g transform="translate(495.194 279.74)"><path d="M524.6,118.833a15.975,15.975,0,1,1-31.95,0c0-.092.006-.184.007-.275a15.964,15.964,0,0,1-10.642-18.751,15.968,15.968,0,0,1-3.342-19.651A15.969,15.969,0,0,1,482.018,60.5a15.963,15.963,0,0,1,10.642-18.75c0-.092-.007-.184-.007-.276a15.975,15.975,0,0,1,31.95,0h-.326a15.975,15.975,0,0,1,31.949,0c0,.092-.006.184-.007.276A15.962,15.962,0,0,1,566.859,60.5,15.969,15.969,0,0,1,570.2,80.155a15.968,15.968,0,0,1-3.342,19.651,15.963,15.963,0,0,1-10.642,18.751c0,.091.007.183.007.275a15.975,15.975,0,1,1-31.949,0Z" transform="translate(-476.678 -25.502)" fill="#fff"/><g transform="translate(19.227 29.182)"><line y2="41.73" transform="translate(29.582 4.606)" fill="none" stroke="#000" stroke-linecap="round" stroke-linejoin="round" stroke-width="2"/><path d="M495.816,67.046a12.5,12.5,0,0,1,12.5-12.5" transform="translate(-495.816 -54.548)" fill="none" stroke="#000" stroke-linecap="round" stroke-linejoin="round" stroke-width="2"/><path d="M542.265,54.548a12.5,12.5,0,0,1,12.5,12.5" transform="translate(-495.599 -54.548)" fill="none" stroke="#000" stroke-linecap="round" stroke-linejoin="round" stroke-width="2"/><path d="M554.762,92.814a12.5,12.5,0,0,1-12.5,12.5" transform="translate(-495.599 -54.369)" fill="none" stroke="#000" stroke-linecap="round" stroke-linejoin="round" stroke-width="2"/><path d="M508.314,105.312a12.5,12.5,0,0,1-12.5-12.5" transform="translate(-495.816 -54.369)" fill="none" stroke="#000" stroke-linecap="round" stroke-linejoin="round" stroke-width="2"/></g></g><g transform="translate(64.941 701.82)"><path d="M580.4,178.031" transform="translate(-560.577 -172.605)" fill="#fff"/><path d="M590.588,178.031" transform="translate(-559.935 -172.605)" fill="#fff"/><path d="M571.333,189.27l.182-5.164a5.014,5.014,0,1,1,10.027,0v1.766l.11-7.932a5.013,5.013,0,1,1,10.027,0l.11,2.183a5.014,5.014,0,0,1,10.028,0s-1.06,36.591,1.268,42.525c2.75,7.011,5.095,3.772,10.163-1.372,2.3-2.336,6.138-5.45,8.4-.55,1.05,2.279-.976,7.173-5.559,12.331-7.335,8.251-14.669,12.872-14.669,20.937v6.893s-.46,15.229-17.293,15.229-18.108-15.229-18.108-15.229c0-32.061-4.264-22.188-4.264-44.737,0-9.167.567-20.073.567-20.073a4.5,4.5,0,0,1,4.427-4.426,4.426,4.426,0,0,1,4.426,4.426l.162,1.57Z" transform="translate(-561.751 -172.926)" fill="#fff"/><line y2="37.238" transform="translate(30.084 16.056)" fill="none" stroke="#000" stroke-linecap="round" stroke-linejoin="round" stroke-width="2"/><line y2="34.59" transform="translate(19.819 20.308)" fill="none" stroke="#000" stroke-linecap="round" stroke-linejoin="round" stroke-width="2"/><line y2="25.82" transform="translate(9.582 32.289)" fill="none" stroke="#000" stroke-linecap="round" stroke-linejoin="round" stroke-width="2"/></g><path d="M-23543.391-22313.594c-60.152,37.547,46.18,134.813-53.668,166.59" transform="translate(23701.85 22939.77)" fill="none" stroke="#182a74" stroke-width="1"/><path d="M-17253.477-13089.936s-1.488,112.9-20.432,96.911,63.939-36.73,32.744,15.058-98.492,94.515-98.492,94.515" transform="translate(17814.984 13553.064)" fill="none" stroke="#000" stroke-width="1"/><path d="M2882.93-2279.388c18.763,0,18.763,24.041,37.527,24.041s18.763-24.041,37.527-24.041,18.764,24.041,37.527,24.041,18.764-24.041,37.528-24.041,18.764,24.041,37.529,24.041,18.763-24.041,37.528-24.041,18.764,24.041,37.529,24.041,18.765-24.041,37.53-24.041" transform="translate(-2703.891 2692.499)" fill="none" stroke="#182a74" stroke-miterlimit="10" stroke-width="1"/><line y2="64.608" transform="translate(81.38 554.318) rotate(-90)" fill="none" stroke="#182a74" stroke-miterlimit="10" stroke-width="1"/><g transform="translate(543.319 437.514)"><g transform="translate(0 0)"><path d="M-2501.482,6005.148h0a16.344,16.344,0,0,1-16.344,16.341h-35.086V5988.8h35.086A16.347,16.347,0,0,1-2501.482,6005.148Z" transform="translate(2552.912 -5988.803)" fill="#ffdc20"/></g></g><g transform="translate(34.022 506.273)"><path d="M77.02,92.822,48.2,64.005q-.079-.079-.156-.159-.077.08-.155.158L19.076,92.822a11.174,11.174,0,0,1-15.8-15.8L32.09,48.2c.052-.052.1-.1.157-.154q-.08-.077-.158-.155L3.273,19.077a11.175,11.175,0,0,1,15.8-15.8L47.894,32.09l.157.159c.05-.053.1-.105.154-.158L77.022,3.273a11.174,11.174,0,0,1,15.8,15.8L64.006,47.893q-.077.078-.157.154l.158.155L92.823,77.018a11.175,11.175,0,1,1-15.8,15.8ZM47.893,48.2q.078.078.155.158c.051-.054.1-.107.157-.16s.1-.1.157-.154l-.157-.155-.155-.158c-.051.053-.1.106-.156.158s-.105.1-.158.155C47.788,48.1,47.84,48.151,47.893,48.2Z" transform="translate(0 96.096) rotate(-90)" fill="#ffafa6" stroke="rgba(0,0,0,0)" stroke-miterlimit="10" stroke-width="1"/><g transform="translate(26.999 26.831)"><g transform="translate(0 0)"><path d="M483.876,763.047V742.109h0a20.938,20.938,0,0,0-20.934,20.938h20.938Z" transform="translate(-462.938 -742.109)"/><path d="M515.744,773.978H494.806v20.938A20.938,20.938,0,0,0,515.744,773.978Z" transform="translate(-473.868 -753.039)"/></g><g transform="translate(0.001 0.001)"><path d="M494.807,763.048h20.937v0a20.937,20.937,0,0,0-20.938-20.934h0Z" transform="translate(-473.869 -742.11)" fill="#fff"/><path d="M483.877,794.916V773.978H462.939A20.937,20.937,0,0,0,483.877,794.916Z" transform="translate(-462.939 -753.04)" fill="#fff"/></g></g></g><g transform="translate(109.742 388.721) rotate(90)"><path d="M53.711,13.549a6.022,6.022,0,0,1-6.022-6.022A7.527,7.527,0,0,1,55.216,0a9.409,9.409,0,0,1,9.409,9.409A11.761,11.761,0,0,1,52.864,21.171H0" transform="translate(12.971)" fill="none" stroke="#182a74" stroke-linecap="round" stroke-width="1"/><path d="M66.681,13.549a6.022,6.022,0,0,1-6.022-6.022A7.527,7.527,0,0,1,68.187,0,9.409,9.409,0,0,1,77.6,9.409,11.761,11.761,0,0,1,65.834,21.17H0" transform="translate(0 7.595)" fill="none" stroke="#182a74" stroke-linecap="round" stroke-width="1"/><g transform="translate(0 28.766)"><path d="M39.092,7.622a6.022,6.022,0,0,0-6.022,6.022A7.527,7.527,0,0,0,40.6,21.171a9.409,9.409,0,0,0,9.409-9.409A11.761,11.761,0,0,0,38.245,0H0" transform="translate(27.59 7.595)" fill="none" stroke="#182a74" stroke-linecap="round" stroke-width="1"/><path d="M66.681,7.621a6.022,6.022,0,0,0-6.022,6.022,7.527,7.527,0,0,0,7.527,7.527A9.409,9.409,0,0,0,77.6,11.761,11.761,11.761,0,0,0,65.834,0H0" fill="none" stroke="#182a74" stroke-linecap="round" stroke-width="1"/></g></g><g transform="translate(222.808 509.27)"><ellipse cx="47.43" cy="46.543" rx="47.43" ry="46.543" transform="translate(52.041 0)" fill="#ffdc20"/><g transform="translate(0 13.652)"><g transform="translate(0 0)"><rect width="133.695" height="66.285" rx="33.142" fill="#182a74"/><circle cx="33.297" cy="33.297" r="33.297" fill="#ff6d00"/><text transform="translate(13.919 33.583)" fill="#fff" font-size="11" font-family="Apercu-Regular, Apercu" letter-spacing="0.04em"><tspan x="0" y="0">Start</tspan></text></g></g></g></g></svg>