<svg xmlns="http://www.w3.org/2000/svg" width="1769.909" height="58.466" viewBox="0 0 1769.909 58.466"><g transform="translate(-75 -890.747)"><g transform="translate(75 892.527)"><path d="M172,204v21.363a4.285,4.285,0,0,0,4.273,4.273H177.7v7.121a3.561,3.561,0,1,0,7.121,0v-7.121h4.273v7.121a3.561,3.561,0,1,0,7.121,0v-7.121h1.424a4.285,4.285,0,0,0,4.273-4.273V204H172Z" transform="translate(-163.455 -185.44)" fill="#182a74"/><path d="M127.561,200A3.56,3.56,0,0,0,124,203.561V217.8a3.561,3.561,0,1,0,7.121,0V203.561A3.56,3.56,0,0,0,127.561,200Z" transform="translate(-124 -182.152)" fill="#182a74"/><path d="M195.048,104.319l1.922-3.519a.712.712,0,0,0-1.25-.683l-1.9,3.486a14.88,14.88,0,0,0-13.722,0l-1.9-3.486a.712.712,0,1,0-1.25.683l1.922,3.519A14.932,14.932,0,0,0,172,116.882h29.908A14.932,14.932,0,0,0,195.048,104.319Zm-14.5,7.578a1.424,1.424,0,1,1,1.424-1.424A1.425,1.425,0,0,1,180.545,111.9Zm12.818,0a1.424,1.424,0,1,1,1.424-1.424A1.425,1.425,0,0,1,193.363,111.9Z" transform="translate(-163.455 -99.746)" fill="#182a74"/><path d="M351.561,200A3.56,3.56,0,0,0,348,203.561V217.8a3.561,3.561,0,0,0,7.121,0V203.561A3.56,3.56,0,0,0,351.561,200Z" transform="translate(-308.122 -182.152)" fill="#182a74"/></g><g transform="translate(642 890.747)"><path d="M148.246,178.591c-9.594-10.161-17.734-2.906-21.729-2.906s-15.929-8.741-23.185,6.9c-4.862,10.478,4.156,25.146,5.989,27.591,7.138,9.512,12.669,2.906,17.656,2.906,6.605,0,12.515,10.088,22.918-12.269-5.949-3.559-8.1-7.193-8.1-11.767S144.715,181.063,148.246,178.591Z" transform="translate(-101.91 -156.888)" fill="#182a74"/><path d="M259.19,74c-5.068.444-11.953,5.21-11.633,13.023C253.435,87.715,260.418,80.535,259.19,74Z" transform="translate(-223.628 -74)" fill="#182a74"/></g><g transform="translate(359 893.418)"><path d="M139.939,150.358V129.532c-7.121,1.126-12.913,2.247-19.939,3.373V150.61C127.026,150.528,132.818,150.441,139.939,150.358Z" transform="translate(-120 -125.613)" fill="#182a74"/><path d="M248,132.224c7.121-.085,15.762-.167,22.787-.253V107.52c-7.026,1.126-15.666,2.247-22.787,3.373Z" transform="translate(-225.213 -107.52)" fill="#182a74"/><path d="M249.594,265.72q0,10.664,0,21.33c7.025,1.126,15.475,2.247,22.5,3.373V265.972C265.071,265.889,256.621,265.8,249.594,265.72Z" transform="translate(-226.522 -237.556)" fill="#182a74"/><path d="M139.939,264.317c-7.121-.085-12.913-.168-19.939-.253V281.77c7.026,1.127,12.818,2.247,19.939,3.372Z" transform="translate(-120 -236.195)" fill="#182a74"/></g><g transform="translate(927 893.418)"><ellipse cx="9.885" cy="9.885" rx="9.885" ry="9.885" transform="translate(16.691 16.691)" fill="#182a74"/><path d="M36.517,26.8H60.4a26.58,26.58,0,0,0-44.687-4.69L24.83,37.692A11.779,11.779,0,0,1,36.517,26.8Zm.059,23.557A11.783,11.783,0,0,1,25.5,42.586l-11-18.809a26.581,26.581,0,0,0,18.248,41.1l9.169-15.8A11.731,11.731,0,0,1,36.576,50.355ZM61.252,28.691H42.983A11.786,11.786,0,0,1,46.928,44.2l.007,0L34.812,65.092c.583.038,1.171.06,1.764.06A26.589,26.589,0,0,0,61.252,28.691Z" transform="translate(-10 -12)" fill="#182a74"/></g><g transform="translate(1797 893.24)"><path d="M54.287,17.315a24.2,24.2,0,0,0-2.9.176,1.877,1.877,0,0,0-.313-.642,2.765,2.765,0,0,0,.81-1.94,3.191,3.191,0,0,0-6.357,0,2.947,2.947,0,0,0,2.182,2.762,1.729,1.729,0,0,0-.008.562,23.973,23.973,0,1,0,6.589-.918Zm-8.009-2.406a2.434,2.434,0,0,1,4.848,0,2.1,2.1,0,0,1-.595,1.455,1.879,1.879,0,0,0-2.587.653A2.248,2.248,0,0,1,46.278,14.909Zm8.009,46.544A20.184,20.184,0,1,1,74.47,41.27,20.184,20.184,0,0,1,54.287,61.453Z" transform="translate(-30.332 -12)" fill="#182a74"/><g transform="translate(5.926 11.241)"><path d="M117.077,142.19l1.317.838a18.074,18.074,0,0,0,2.277-12.906l-1.427.318a.323.323,0,1,1-.14-.631l1.43-.318a18.05,18.05,0,0,0-7.45-10.774l-.93,1.463a.323.323,0,1,1-.546-.347l.933-1.468a18.061,18.061,0,0,0-12.927-2.42l.372,1.668a.323.323,0,1,1-.631.14l-.374-1.678a18.046,18.046,0,0,0-10.922,7.473l1.478.94a.323.323,0,1,1-.347.545l-1.484-.943a18.065,18.065,0,0,0-2.4,13.077l1.72-.383a.323.323,0,1,1,.141.631l-1.724.384A18.05,18.05,0,0,0,93.059,148.7l1.055-1.66a.323.323,0,1,1,.545.347L93.6,149.051a18.081,18.081,0,0,0,13.056,2.259l-.379-1.7a.323.323,0,1,1,.631-.14l.378,1.7a18.052,18.052,0,0,0,10.757-7.595l-1.317-.837a.323.323,0,1,1,.347-.545ZM95.735,128.6l3.294,1.2a5.542,5.542,0,0,1,1.662-1.172v-6.678l2.89,6.209a5.542,5.542,0,0,1,.667.113l-.484.454a4.992,4.992,0,0,0-5.5,6.557l-.351.583-.008-.018H91.318l6.186-2.88A5.494,5.494,0,0,1,98.138,131Zm-3.555,18.24L101,132.178l.071-.118.063-.059,12.393-11.623-8.819,14.658-.071.118-.063.059Zm18.362-8.5-3.228-1.235a5.557,5.557,0,0,1-1.567,1.347l.084-.014-.107,6.892-2.743-6.142a5.539,5.539,0,0,1-1.377-.176l.476-.446a4.99,4.99,0,0,0,5.9-4.908,4.973,4.973,0,0,0-.486-2.15l.325-.541.018.031,6.75.105-6.073,2.713a5.51,5.51,0,0,1-.43,1.992Zm-7.608-6.227a1.544,1.544,0,1,0,1.612,1.474A1.544,1.544,0,0,0,102.934,132.111Z" transform="translate(-84.961 -115.627)" fill="#182a74"/></g></g><g transform="translate(1217 894.13)"><path d="M414.45,74.266q-.218-.215-.441-.425Z" transform="translate(-370.341 -68.087)" fill="#182a74"/><path d="M20.512,208.8s-.075.091-.187.244c-.016.083-.033.166-.048.25A2.309,2.309,0,0,1,20.512,208.8Z" transform="translate(-19.319 -188.403)" fill="#182a74"/><path d="M84.573,29.176c.048-.049.1-.1.144-.147a24.434,24.434,0,0,1,26.25-5.438,18.343,18.343,0,0,1,5.751,1.9,25.492,25.492,0,0,0-32.929,2.938A4.667,4.667,0,0,0,84.573,29.176Z" transform="translate(-75.941 -20.795)" fill="#182a74"/><path d="M29.125,76.876a3.115,3.115,0,0,1-.459-.471,9.814,9.814,0,0,0-.072,1.167,7.938,7.938,0,0,0,.358,2.413,6.559,6.559,0,0,0,1.359,2.389,7.714,7.714,0,0,0,1.7,1.417l-.039.063a17.179,17.179,0,0,0,4.525-.362,19.789,19.789,0,0,0,4.23-2.6c.651-.651,1.41-.325,2.061-.325s.868-.976,0-1.953a5.344,5.344,0,0,0-6.183-.434C34.332,79.7,31.078,78.5,29.125,76.876ZM30.7,62.561a7.679,7.679,0,0,0-.271,1.973,5.773,5.773,0,0,0,.48,2.36,10.543,10.543,0,0,0,.8,1.484c.171.264.331.483.481.687a8.335,8.335,0,0,1,.954-.758c.651-.434,3.146-1.627,3.471-1.953s.976-2.061.434-2.6-4.014-.217-5.1-.434A2.7,2.7,0,0,1,30.7,62.561Zm.7,10.614.005.014.012-.026Zm32.113-4.868a5.457,5.457,0,0,1-.95,2.348,4.144,4.144,0,0,0,.083-1.155,16.257,16.257,0,0,0-1.193-7.593,13.129,13.129,0,0,0-3.8-4.99v.759c-.325-1.085-3.363-3.146-3.363-3.146v1.085c5.424,4.99,5.966,8.461,5.966,8.461-.976-3.146-3.8-5.532-6.183-7.81S46.7,52.8,46.7,52.8a22.487,22.487,0,0,1,7.919,7.81c-2.712-2.6-4.881-2.386-4.881-2.386,1.627,1.193,2.386,2.495,3.905,4.881s1.41,8.027,1.41,8.027a5.333,5.333,0,0,0-2.278-2.6s.325,3.254.542,5.1a19.037,19.037,0,0,1-.759,5.315c0-1.3-.759-1.627-.759-1.627s.217.759-.868,4.23S47.783,86.2,47.457,86.1s0-.651,0-.651-.542-.434-1.3.759a4.94,4.94,0,0,1-2.074,1.7c.354-.2.446-.936.446-.936a15.9,15.9,0,0,1-4.23.976c-3.471.542-5.1-.976-5.1-.976.325-.325,1.844,0,1.844,0,0-.325-1.736-.868-3.471-1.085a3.117,3.117,0,0,1-2.423-1.356A8.651,8.651,0,0,1,29.5,83.1a7.632,7.632,0,0,1-1.211-1.833,8.649,8.649,0,0,1-.78-3.691,11.5,11.5,0,0,1,.335-2.707,8.952,8.952,0,0,1,.343-1.121h0l.023.009a2.149,2.149,0,0,1,1.077-1.336,4.752,4.752,0,0,0-.458-.279,3.621,3.621,0,0,0-2.3-.405,5.04,5.04,0,0,0-2.221,1.032,4.976,4.976,0,0,0-1.5,1.968,6.251,6.251,0,0,0-.51,2.5,7.12,7.12,0,0,0,.482,2.545A8.725,8.725,0,0,0,24.1,82.052a11.662,11.662,0,0,0,1.883,1.875,11.738,11.738,0,0,1-2-1.78,8.947,8.947,0,0,1-1.472-2.259,7.491,7.491,0,0,1-.653-2.646,6.769,6.769,0,0,1,.4-2.73,5.636,5.636,0,0,1,1.585-2.327,6.816,6.816,0,0,1,1.167-.8,5.055,5.055,0,0,1,1.361-.5,4.375,4.375,0,0,1,1.478-.049,4.82,4.82,0,0,1,1.411.428,6.118,6.118,0,0,1,1.225.779,6.979,6.979,0,0,1,.536.483q.128.128.25.263c.068.076.13.148.2.234A6.872,6.872,0,0,0,31.524,70c-.2-.29-.495-.655-.822-1.177a11.8,11.8,0,0,1-.786-1.491,6.857,6.857,0,0,1-.574-2.8,8.875,8.875,0,0,1,.4-2.563c.061-.2.122-.375.177-.523.613-2.666,3.549-5.289,3.549-5.289-4.122-.542-6.942,3.254-6.942,3.254l-.035-.02A5.455,5.455,0,0,0,25.111,61.8a10.8,10.8,0,0,1,.449-2.821,9.241,9.241,0,0,0-4.373-.043l.006.034a7.907,7.907,0,0,0-2.651,1.02A11.223,11.223,0,0,0,16.5,61.577a12.529,12.529,0,0,0-1.774,2.132h0l-.031-.019c-2,2.893-3.251,9.063-3.251,9.063a6.734,6.734,0,0,1,1.193-2.169c-1.085,1.627-.868,9.112-.868,9.112a7.493,7.493,0,0,1,.651-2.6,24.913,24.913,0,0,0,8.352,16.6c7.051,6.075,13.017,6.617,13.017,6.617-1.41-.434-1.736-1.085-1.736-1.085,4.556,1.844,7.376,1.519,7.376,1.519-.759-.434-.868-.759-.868-.759,4.881.217,11.39-1.519,12.908-2.6a12.827,12.827,0,0,0,2.82-3.254,16.116,16.116,0,0,0,7.376-7.593,6.315,6.315,0,0,0,0-4.014s0-.108,1.844-4.23S63.511,68.307,63.511,68.307ZM17.967,59.071a9.707,9.707,0,0,1,1.478-.727,5.152,5.152,0,0,1-1.926-4.03c-2.09,2.018-2.6,5.423-2.707,7.482l.09-.1A13.04,13.04,0,0,1,17.967,59.071Z" transform="translate(-11.444 -49.324)" fill="#182a74"/></g><path d="M61,38.527a23.843,23.843,0,0,0-2.7-11.046,51.764,51.764,0,0,0,1.679-5.211c2.009-7.367-2.612-11.756-9.7-11.04A39.453,39.453,0,0,0,38,14.6c-.316-.012-.634-.021-.953-.021A23.956,23.956,0,0,0,13.467,34.319,38.082,38.082,0,0,1,25.581,23.431,87.18,87.18,0,0,0,13.3,38.962c-.06.1-.119.192-.177.291a40.691,40.691,0,0,0-5.249,14.37c-1.083,7.043,2.456,10.8,10.015,9.725,2.6-.371,7.3-2.64,8.638-3.3A23.964,23.964,0,0,0,59.632,46.51H46.67a10.668,10.668,0,0,1-19.915-4.79h34.03A24.155,24.155,0,0,0,61,38.527ZM18.033,61.605c-4.043.426-9.264-3.979-3.313-14.4a24.031,24.031,0,0,0,9.9,11.8C23.386,59.7,20.212,61.376,18.033,61.605Zm8.8-27a10.666,10.666,0,0,1,21.153,0ZM46.017,16.315c10.1-4.734,13.767.322,12.658,5.477-.153.71-.708,2.6-1.2,4.229A24.036,24.036,0,0,0,46.017,16.315Z" transform="translate(1499.319 882.619)" fill="#182a74"/></g></svg>