<svg xmlns="http://www.w3.org/2000/svg" width="1747.236" height="64.431" viewBox="0 0 1747.236 64.431"><g transform="translate(-86.5 -794.599)"><g transform="translate(1795 805.58)"><path d="M496.112,63.35a6.478,6.478,0,1,1-12.956,0c0-.037,0-.075,0-.112a6.474,6.474,0,0,1-4.315-7.6,6.475,6.475,0,0,1-1.355-7.969,6.476,6.476,0,0,1,1.355-7.97,6.473,6.473,0,0,1,4.315-7.6c0-.037,0-.075,0-.112a6.478,6.478,0,0,1,12.956,0h-.132a6.478,6.478,0,0,1,12.956,0c0,.037,0,.075,0,.112a6.473,6.473,0,0,1,4.315,7.6,6.476,6.476,0,0,1,1.355,7.97,6.475,6.475,0,0,1-1.355,7.969,6.474,6.474,0,0,1-4.315,7.6c0,.037,0,.074,0,.112a6.478,6.478,0,1,1-12.956,0Z" transform="translate(-476.678 -25.502)" fill="#fff"/><g transform="translate(7.797 11.834)"><line y2="16.923" transform="translate(11.996 1.868)" fill="none" stroke="#182a74" stroke-linecap="round" stroke-linejoin="round" stroke-width="1"/><path d="M495.816,59.616a5.068,5.068,0,0,1,5.068-5.068" transform="translate(-495.816 -54.548)" fill="none" stroke="#182a74" stroke-linecap="round" stroke-linejoin="round" stroke-width="1"/><path d="M542.265,54.548a5.068,5.068,0,0,1,5.068,5.068" transform="translate(-523.341 -54.548)" fill="none" stroke="#182a74" stroke-linecap="round" stroke-linejoin="round" stroke-width="1"/><path d="M547.332,92.814a5.068,5.068,0,0,1-5.068,5.068" transform="translate(-523.34 -77.224)" fill="none" stroke="#182a74" stroke-linecap="round" stroke-linejoin="round" stroke-width="1"/><path d="M500.884,97.882a5.069,5.069,0,0,1-5.068-5.068" transform="translate(-495.816 -77.224)" fill="none" stroke="#182a74" stroke-linecap="round" stroke-linejoin="round" stroke-width="1"/></g></g><g transform="translate(447 815.075) rotate(-45)"><line y2="25.775" transform="translate(19.988 37.732)" fill="none" stroke="#182a74" stroke-miterlimit="10" stroke-width="1"/><line y2="25.775" transform="translate(7.97 37.732)" fill="none" stroke="#182a74" stroke-miterlimit="10" stroke-width="1"/><rect width="27.169" height="51.78" rx="13.584" transform="translate(0.394 0.394)" fill="none" stroke="#182a74" stroke-width="1"/><path d="M13.979,0A13.979,13.979,0,1,1,0,13.979,13.979,13.979,0,0,1,13.979,0Z" fill="#fff" stroke="#fff" stroke-width="1"/><circle cx="6.009" cy="6.009" r="6.009" transform="translate(7.97 7.97)" fill="#182a74" stroke="rgba(0,0,0,0)" stroke-width="1"/></g><g transform="translate(662 803.358)"><path d="M1.642,46.543a5.6,5.6,0,0,1,0-7.924L16.09,24.17l.08-.078-.08-.078L1.641,9.565A5.6,5.6,0,0,1,9.565,1.641L24.014,16.09l.079.081.077-.08L38.62,1.642a5.6,5.6,0,1,1,7.924,7.924l-14.45,14.45-.078.077.078.076L46.543,38.617a5.6,5.6,0,1,1-7.924,7.924L24.17,32.093l-.078-.08-.078.08L9.564,46.543a5.6,5.6,0,0,1-7.923,0ZM24.014,24.17l.077.079.078-.08.079-.077-.078-.076c-.027-.026-.053-.053-.078-.08l-.078.079-.08.078Z" transform="translate(0 48.184) rotate(-90)" fill="#182a74" stroke="rgba(0,0,0,0)" stroke-miterlimit="10" stroke-width="1"/><g transform="translate(13.538 13.454)"><g transform="translate(0 0)"><path d="M473.436,752.608v-10.5h0a10.5,10.5,0,0,0-10.5,10.5h10.5Z" transform="translate(-462.938 -742.109)" fill="#182a74"/><path d="M505.3,773.978h-10.5v10.5A10.5,10.5,0,0,0,505.3,773.978Z" transform="translate(-484.308 -763.479)" fill="#182a74"/></g><g transform="translate(0 0)"><path d="M494.806,752.608h10.5v0a10.5,10.5,0,0,0-10.5-10.5h0Z" transform="translate(-484.308 -742.11)" fill="#fff"/><path d="M473.437,784.477v-10.5h-10.5A10.5,10.5,0,0,0,473.437,784.477Z" transform="translate(-462.939 -763.48)" fill="#fff"/></g></g></g><g transform="translate(1576 805.734)"><circle cx="22.086" cy="22.086" r="22.086" transform="translate(25.372 0)" fill="#fff"/><g transform="translate(0 6.737)"><g transform="translate(0 0)"><rect width="62.561" height="31.017" rx="15.509" fill="#182a74"/><circle cx="15.581" cy="15.581" r="15.581" fill="#fff"/><text transform="translate(4.928 18.38)" fill="#182a74" font-size="8" font-family="Apercu-Regular, Apercu" letter-spacing="0.04em"><tspan x="0" y="0">Start</tspan></text></g></g></g><g transform="translate(261 796.807)"><path d="M580.4,178.031" transform="translate(-568.445 -174.759)" fill="#fff"/><path d="M590.588,178.031" transform="translate(-572.105 -174.759)" fill="#fff"/><path d="M567.529,182.781l.11-3.114a3.023,3.023,0,1,1,6.046,0v1.065l.067-4.783a3.023,3.023,0,1,1,6.046,0l.067,1.317a3.023,3.023,0,0,1,6.047,0s-.639,22.064.765,25.642c1.658,4.228,3.072,2.275,6.128-.828,1.388-1.409,3.7-3.286,5.062-.331.633,1.374-.589,4.325-3.352,7.435-4.423,4.975-8.845,7.762-8.845,12.625v4.157s-.278,9.183-10.428,9.183-10.919-9.183-10.919-9.183c0-19.333-2.571-13.379-2.571-26.976,0-5.528.342-12.1.342-12.1a2.71,2.71,0,0,1,2.67-2.669,2.669,2.669,0,0,1,2.669,2.669l.1.947Z" transform="translate(-561.751 -172.926)" fill="#fff"/><line y2="22.454" transform="translate(18.14 9.682)" fill="none" stroke="#182a74" stroke-linecap="round" stroke-linejoin="round" stroke-width="1"/><line y2="20.858" transform="translate(11.951 12.245)" fill="none" stroke="#182a74" stroke-linecap="round" stroke-linejoin="round" stroke-width="1"/><line y2="15.569" transform="translate(5.778 19.47)" fill="none" stroke="#182a74" stroke-linecap="round" stroke-linejoin="round" stroke-width="1"/></g><g transform="translate(87 804.049)"><g transform="translate(0 0)"><path d="M437.819,114.108h0A12.179,12.179,0,0,1,450,126.287v26.145H425.64V126.287A12.179,12.179,0,0,1,437.819,114.108Z" transform="translate(-425.64 -114.108)" fill="none" stroke="#182a74" stroke-linecap="round" stroke-miterlimit="10" stroke-width="1"/><rect width="24.358" height="8.66" transform="translate(0 38.324)" fill="none" stroke="#182a74" stroke-linecap="round" stroke-miterlimit="10" stroke-width="1"/></g><g transform="translate(5.103 10.317)"><path d="M457.907,144.7a3.179,3.179,0,0,1,3.179,3.179" transform="translate(-446.603 -139.46)" fill="none" stroke="#182a74" stroke-linecap="round" stroke-miterlimit="10" stroke-width="1"/><path d="M435.676,135.33a3.177,3.177,0,0,1,4.5,0" transform="translate(-435.676 -134.398)" fill="none" stroke="#182a74" stroke-linecap="round" stroke-miterlimit="10" stroke-width="1"/><path d="M460.088,150.948" transform="translate(-447.675 -142.532)" fill="none" stroke="#182a74" stroke-linecap="round" stroke-miterlimit="10" stroke-width="1"/><ellipse cx="1.892" cy="2.536" rx="1.892" ry="2.536" transform="translate(9.413 12.617)" fill="#182a74"/><ellipse cx="1.892" cy="2.536" rx="1.892" ry="2.536" transform="translate(0.555 12.617)" fill="#182a74"/></g></g><path d="M2882.931-2279.389c9.42,0,9.42,12.071,18.841,12.071s9.421-12.071,18.842-12.071,9.42,12.071,18.841,12.071,9.421-12.071,18.842-12.071,9.421,12.071,18.842,12.071,9.421-12.071,18.842-12.071,9.421,12.071,18.842,12.071,9.422-12.071,18.843-12.071" transform="translate(-1821.431 3100.984)" fill="none" stroke="#182a74" stroke-miterlimit="10" stroke-width="1"/><g transform="translate(1362 805.734)"><g transform="translate(0 0)"><path d="M5110.067,2417.624h0a25,25,0,0,0-22.007,13.118h-5.969a10.831,10.831,0,0,0-10.832,10.831h0a10.831,10.831,0,0,0,10.832,10.831h52.985v-9.771A25.009,25.009,0,0,0,5110.067,2417.624Z" transform="translate(-5071.26 -2417.624)" fill="none" stroke="#182a74" stroke-miterlimit="10" stroke-width="1"/><g transform="translate(40.003 26.037)"><g transform="translate(0.002)"><path d="M5254.376,2539.864v-8.746h0a8.746,8.746,0,0,0-8.743,8.746h8.743Z" transform="translate(-5245.634 -2531.118)" fill="#182a74" stroke="#182a74" stroke-miterlimit="10" stroke-width="1"/><path d="M5292.489,2569.236h-8.745v8.741A8.745,8.745,0,0,0,5292.489,2569.236Z" transform="translate(-5275.001 -2560.491)" fill="#182a74" stroke="#182a74" stroke-miterlimit="10" stroke-width="1"/></g><g transform="translate(0 0.002)"><path d="M5283.744,2539.869h8.745a8.746,8.746,0,0,0-8.745-8.743h0Z" transform="translate(-5275 -2531.126)" fill="#fff"/><path d="M5254.372,2577.977v-8.741h-8.745A8.745,8.745,0,0,0,5254.372,2577.977Z" transform="translate(-5245.627 -2560.493)" fill="#fff"/></g></g><g transform="translate(11.471 26.037)"><g transform="translate(0.002)"><path d="M5254.376,2539.864v-8.746h0a8.746,8.746,0,0,0-8.743,8.746h8.743Z" transform="translate(-5245.634 -2531.118)" fill="#182a74" stroke="#182a74" stroke-miterlimit="10" stroke-width="1"/><path d="M5292.489,2569.236h-8.745v8.741A8.745,8.745,0,0,0,5292.489,2569.236Z" transform="translate(-5275.001 -2560.491)" fill="#182a74" stroke="#182a74" stroke-miterlimit="10" stroke-width="1"/></g><g transform="translate(0 0.002)"><path d="M5283.744,2539.869h8.745a8.746,8.746,0,0,0-8.745-8.743h0Z" transform="translate(-5275 -2531.126)" fill="#fff"/><path d="M5254.372,2577.977v-8.741h-8.745A8.745,8.745,0,0,0,5254.372,2577.977Z" transform="translate(-5245.627 -2560.493)" fill="#fff"/></g></g></g><g transform="translate(21.541 10.654)"><g transform="translate(19.284 0)"><path d="M0,13.718Z" transform="translate(0 -8.697)" fill="#ffafa6"/><g transform="translate(5.105)"><path d="M4617.163,2991.914a3.725,3.725,0,0,1,5.269,0l0,0" transform="translate(-4617.163 -2990.822)" fill="none" stroke="#182a74" stroke-linecap="round" stroke-miterlimit="10" stroke-width="1"/><ellipse cx="2.218" cy="2.973" rx="2.218" ry="2.973" transform="translate(0.417 3.054)" fill="#182a74"/></g></g><g transform="translate(0 0)"><path d="M0,13.718Z" transform="translate(0 -8.697)" fill="#ffafa6"/><g transform="translate(5.105)"><path d="M4617.163,2991.914a3.725,3.725,0,0,1,5.269,0l0,0" transform="translate(-4617.163 -2990.822)" fill="none" stroke="#182a74" stroke-linecap="round" stroke-miterlimit="10" stroke-width="1"/><ellipse cx="2.218" cy="2.973" rx="2.218" ry="2.973" transform="translate(0.417 3.054)" fill="#182a74"/></g></g></g></g><g transform="translate(860 803.045)"><g transform="translate(12 5.93)"><g transform="translate(0 0)"><path d="M0,0H5.526A4.022,4.022,0,0,1,9.548,4.022v0A4.022,4.022,0,0,1,5.526,8.044H0a0,0,0,0,1,0,0V0A0,0,0,0,1,0,0Z" transform="translate(9.862 9.548) rotate(-90)"/><path d="M178.086,770.3c0,3.159.163,5.26,3.583,7.922,3.53,2.748,6.279,6.36,6.279,11.614a13.884,13.884,0,1,1-27.767,0c0-5.253,2.749-8.866,6.279-11.614,3.42-2.662,3.583-4.763,3.583-7.922Z" transform="translate(-160.181 -760.75)" fill="#fff"/><line y2="13.409" transform="translate(12.066 9.548)" fill="none" stroke="#000" stroke-miterlimit="10" stroke-width="3.091"/><line y2="13.409" transform="translate(15.203 9.548)" fill="none" stroke="#000" stroke-miterlimit="10" stroke-width="3.091"/></g></g><path d="M173.006,753.348H121.239l8.468-22.863a15.957,15.957,0,0,1,14.964-10.415h4.9a15.957,15.957,0,0,1,14.964,10.415Z" transform="translate(-121.239 -720.07)" fill="#182a74"/></g></g></svg>