<?xml version="1.0" encoding="utf-8"?>
<!-- Generator: Adobe Illustrator 24.3.0, SVG Export Plug-In . SVG Version: 6.00 Build 0)  -->
<svg version="1.1" id="Layer_1" focusable="false" xmlns="http://www.w3.org/2000/svg" xmlns:xlink="http://www.w3.org/1999/xlink"
	 x="0px" y="0px" viewBox="0 0 448 448" style="enable-background:new 0 0 448 448;" xml:space="preserve">
<style type="text/css">
	.st0{fill:#182A74;}
</style>
<path class="st0" d="M224,0C100.3,0,0,100.3,0,224s100.3,224,224,224s224-100.3,224-224S347.7,0,224,0z M158.9,340.2h-51.3V175h51.3
	V340.2z M133.2,152.4c-16.4,0-29.7-13.6-29.7-30c0-16.4,13.3-29.7,29.7-29.7c16.4,0,29.7,13.3,29.7,29.7
	C163,138.9,149.6,152.4,133.2,152.4z M351,340.2L351,340.2h-51.2v-80.4c0-19.2-0.4-43.7-26.7-43.7c-26.7,0-30.8,20.8-30.8,42.4v81.8
	h-51.2V175h49.2v22.5h0.7c6.8-13,23.6-26.7,48.5-26.7c51.9,0,61.5,34.2,61.5,78.6V340.2z"/>
</svg>
