<svg xmlns="http://www.w3.org/2000/svg" width="47.374" height="42.484" viewBox="0 0 47.374 42.484"><path d="M623.435,809.649h-.09c-11.481.014-23.642,2.843-23.642,13.064s12.161,13.049,23.642,13.064h.09c11.481-.015,23.642-2.843,23.642-13.064S634.917,809.663,623.435,809.649Zm0,20.554a7.49,7.49,0,1,1,7.49-7.49A7.49,7.49,0,0,1,623.435,830.2Z" transform="translate(-599.703 -793.294)" fill="#182a74"/><g transform="translate(3.992)"><path d="M645.511,788.838a1.065,1.065,0,0,1-.754-.312,25.277,25.277,0,0,0-35.748,0,1.067,1.067,0,0,1-1.508-1.509,27.412,27.412,0,0,1,38.766,0,1.067,1.067,0,0,1-.755,1.822Z" transform="translate(-607.187 -778.988)" fill="#182a74"/></g><path d="M642.042,814.931" transform="translate(-619.459 -795.759)" fill="#182a74" stroke="#000" stroke-linecap="round" stroke-linejoin="round" stroke-width="2"/></svg>