<?xml version="1.0" encoding="utf-8"?><svg id="mission" image-rendering="optimizeSpeed" baseProfile="basic" version="1.1" preserveAspectRatio="xMidYMid meet" x="0px" y="0px" width="449" height="166" xmlns="http://www.w3.org/2000/svg" viewBox="0 0 449 166" xmlns:xlink="http://www.w3.org/1999/xlink"><g id="Scene-1" overflow="visible"><g id="Symbol-2" transform="translate(265.15 83)"><g id="Symbol-3"><animateTransform attributeName="transform" additive="replace" type="rotate" repeatCount="indefinite" dur="1.167s" keyTimes="0;.14299;.143;.17099;.171;.19999;.2;.22899;.229;.25699;.257;.28599;.286;.31399;.314;.34299;.343;.37099;.371;.39999;.4;.42799;.428;.45699;.457;.48599;.486;.51399;.514;.54299;.543;.57099;.571;.59999;.6;.62799;.628;.65699;.657;.68599;.686;.71399;.714;.74299;.743;.77099;.771;.79999;.8;.82799;.828;.85699;.857;.88499;.885;.91399;.914;.94299;.943;.97099;.971;1" values="0,0,0;0,0,0;-45.648,0,0;-45.648,0,0;-86.819,0,0;-86.819,0,0;-123.799,0,0;-123.799,0,0;-156.896,0,0;-156.896,0,0;173.611,0,0;173.611,0,0;147.458,0,0;147.458,0,0;124.376,0,0;124.376,0,0;104.117,0,0;104.117,0,0;86.441,0,0;86.441,0,0;71.115,0,0;71.115,0,0;57.925,0,0;57.925,0,0;46.66,0,0;46.66,0,0;37.122,0,0;37.122,0,0;29.13,0,0;29.13,0,0;22.499,0,0;22.499,0,0;17.078,0,0;17.078,0,0;12.694,0,0;12.694,0,0;9.217,0,0;9.217,0,0;6.509,0,0;6.509,0,0;4.449,0,0;4.449,0,0;2.916,0,0;2.916,0,0;1.823,0,0;1.823,0,0;1.071,0,0;1.071,0,0;.576,0,0;.576,0,0;.28,0,0;.28,0,0;.115,0,0;.115,0,0;.038,0,0;.038,0,0;.01,0,0;.01,0,0;.005,0,0;.005,0,0;0,0,0;0,0,0" calcMode="discrete"/><animateTransform attributeName="transform" additive="sum" type="scale" repeatCount="indefinite" dur="1.167s" keyTimes="0;.14299;.143;.17099;.171;.19999;.2;.22899;.229;.25699;.257;.28599;.286;.34299;.343;.37099;.371;.39999;.4;.42799;.428;.51399;.514;.65699;.657;1" values="1,1;1,1;.998,.998;.998,.998;1,1;1,1;.998,.998;.998,.998;1,.999;1,.999;1,1;1,1;.998,.998;.998,.998;1,.999;1,.999;1,1;1,1;1,.999;1,.999;.998,.998;.998,.998;1,.999;1,.999;1,1;1,1" calcMode="discrete"/><path fill="#182A74" stroke="none" d="M53.1 -53.1Q49.25 -56.95 43.75 -56.95 38.25 -56.95 34.35 -53.1L.2 -18.9 0 -18.75 -34.35 -53.1Q-38.2 -56.95 -43.7 -56.95 -49.2 -56.95 -53.1 -53.1 -56.95 -49.2 -56.95 -43.7 -56.95 -38.25 -53.1 -34.35L-18.7 0 -53.1 34.35Q-56.95 38.25 -56.95 43.75 -56.95 49.2 -53.1 53.1 -49.2 56.95 -43.7 57 -38.2 57 -34.35 53.1L0 18.75 .2 18.9 34.35 53.1Q38.25 56.95 43.7 56.95 49.1 56.95 53 53.1 56.9 49.25 56.95 43.75 56.95 38.25 53.1 34.35L18.75 0 53.1 -34.35Q57 -38.25 57 -43.7 57 -49.2 53.1 -53.1M0 -.35L.2 -.2 .4 0 .2 .2 0 .35 -.35 0 0 -.35Z"/><path fill="#182A74" stroke="none" d="M-.1 -25.15Q-10.4 -25.15 -17.7 -17.9 -24.95 -10.65 -24.95 -.35L-.1 -.35 -.1 -25.15Z"/><path fill="#182A74" stroke="none" d="M17.5 17.25Q24.75 9.95 24.75 -.35L-.05 -.35 -.05 24.5Q10.25 24.5 17.5 17.25Z"/><path fill="#FFF" stroke="none" d="M24.75 -.35Q24.75 -10.6 17.5 -17.9 10.25 -25.15 -.05 -25.15L-.05 -.35 24.75 -.35Z"/><path fill="#FFF" stroke="none" d="M-.1 -.35L-24.95 -.35Q-24.95 9.95 -17.7 17.25 -10.4 24.5 -.1 24.5L-.1 -.35Z"/></g></g><g id="Symbol-1" transform="translate(98.25 94.3)"><animateTransform attributeName="transform" additive="replace" type="translate" repeatCount="indefinite" dur="1.167s" keyTimes="0;.02899;.029;.05699;.057;.08599;.086;.11399;.114;.14299;.143;.17099;.171;.19999;.2;.22899;.229;1" values="98.25,94.3;98.25,94.3;131.1,65.8;131.1,65.8;143.3,55.2;143.3,55.2;146.1,52.75;146.1,52.75;146.3,52.6;146.3,52.6;113.45,81.1;113.45,81.1;101.25,91.75;101.25,91.75;98.45,94.2;98.45,94.2;97.95,93.95;97.95,93.95" calcMode="discrete"/><g transform="matrix(.79 0 0 .79 0 0)" id="Layer13_0_FILL"><path fill="#FFF" stroke="none" d="M39.95 -3.55Q33.5 -15.75 20.85 -28.05 -4.5 -52.6 -35.4 -52.6L-65.65 -51.55Q-67.4 -51.4 -70.05 -50.7 -75.4 -49.25 -79.8 -46.4 -94.05 -37.4 -94.05 -17.85 -94.05 1.75 -79.8 10.05 -72.75 14.2 -65.65 14.4L-52.8 14.4Q-43.35 14.4 -33.45 22.95 -30.5 25.45 -24.3 31.65 -17.7 38.25 -13.8 41.7 -6.8 48 -.3 50.85 5.9 53.6 9.15 52.1 19.3 47.4 8.15 36.45 2.35 30.7 1.85 30.2 -.95 27.25 -1.65 25.35 -3.25 20.95 5.6 17.55 12.5 14.8 49.35 14.7 67.75 14.7 84.8 15.15 88.65 15.15 91.4 12.45 94.1 9.65 94.1 5.8 94.1 1.95 91.4 -.8 88.65 -3.55 84.8 -3.55L39.95 -3.55Z"/></g><g transform="matrix(.79 0 0 .79 0 0)"><path id="Layer14_0_1_STROKES" stroke="#192D72" stroke-width="4" stroke-linejoin="round" stroke-linecap="round" fill="none" d="M20.6 -3.6Q16.85 -10.65 9.55 -17.75 -5.15 -31.95 -23 -31.95"/></g><g transform="matrix(.79 0 0 .79 0 0)"><path id="Layer15_0_1_STROKES" stroke="#182A74" stroke-width="4" stroke-linejoin="round" stroke-linecap="round" fill="none" d="M-1.2 -3.6Q-3.05 -7.15 -6.75 -10.65 -14.05 -17.75 -23 -17.75"/></g></g><g display="none" id="Layer2_0_FILL"><path fill="#192D72" stroke="none" d="M388.8 81.75L399.8 81.75 396.25 118.8 418.35 74.1 404 74.1 419.55 47.3 395.55 47.3 388.8 81.75Z"/><animate attributeName="display" repeatCount="indefinite" dur="1.167s" keyTimes="0;.286;.314;.343;.4;.429;.457;.486;.543;.571;.629;.657;.686;.743;.771;.8;.829;1" values="none;inline;none;inline;none;inline;none;inline;none;inline;none;inline;none;inline;none;inline;none;none"/></g><g display="none" id="Layer1_0_FILL"><path fill="#192D72" stroke="none" d="M388.8 81.7L399.8 81.7 396.25 118.75 418.35 74.05 404 74.05 419.55 47.25 395.55 47.25 388.8 81.7Z"/><animate attributeName="display" repeatCount="indefinite" dur="1.167s" keyTimes="0;.229;.257;1" values="none;inline;none;none"/></g></g></svg>