<svg xmlns="http://www.w3.org/2000/svg" width="36.021" height="37.67" viewBox="0 0 36.021 37.67"><g transform="translate(192.395 -7081.677)"><path d="M-135.929,7096.146l7.314-7.314.01-.005a4.188,4.188,0,0,0,0-5.923,4.189,4.189,0,0,0-5.923,0l-7.168,7.168A10.106,10.106,0,0,1-135.929,7096.146Z" transform="translate(-28.997)" fill="#182a74"/><path d="M-183.807,7131.925l-7.362,7.361a4.189,4.189,0,0,0,0,5.923,4.189,4.189,0,0,0,5.923,0l7.516-7.517A10.1,10.1,0,0,1-183.807,7131.925Z" transform="translate(0 -28.739)" fill="#182a74"/><path d="M-165.064,7103.085a10.054,10.054,0,0,0,.69-3.664h-10.08v-10.079a10.04,10.04,0,0,0-3.661.689l-7.125-7.125a4.189,4.189,0,0,0-5.923,0,4.189,4.189,0,0,0,0,5.923l7.214,7.214a10.061,10.061,0,0,0-.582,3.378h10.077V7109.5a10.214,10.214,0,0,1-1.313-.095c0,.033-.009.064-.009.1v8.687a1.161,1.161,0,0,0,1.161,1.161,1.162,1.162,0,0,0,1.162-1.161V7109.5c0-.015,0-.028,0-.043-.064,0-.13,0-.195.009a10.014,10.014,0,0,0,2.577-.547l7.553,7.553a4.189,4.189,0,0,0,5.923,0,4.189,4.189,0,0,0,0-5.923Zm-9.39-3.664Zm.072,10.08h-.03l.11,0C-174.328,7109.5-174.354,7109.5-174.382,7109.5Z" transform="translate(-0.003 -0.001)" fill="#182a74"/></g></svg>