<svg xmlns="http://www.w3.org/2000/svg" width="182.3" height="67.78" viewBox="0 0 182.3 67.78"><g transform="translate(-1583.982 7409.694)"><g transform="translate(1583.982 -7409.694)"><g transform="translate(0 0)"><path d="M465.492-185.158" transform="translate(-348.134 204.507)" fill="#fff"/><path d="M465.492-174.966" transform="translate(-348.134 207.319)" fill="#fff"/><path d="M488.748-168.7H459.84s-16.691-31.617-48.53-31.617l-19.511.675s-18.282,1.532-18.282,21.737S391.8-157.151,391.8-157.151h8.275c9.681,0,15.229,8.8,25.134,17.608,6.19,5.5,12.064,7.935,14.8,6.675,5.882-2.711,2.146-7.315-.658-10.079-6.177-6.084-10.065-8.9-1.648-12.2,7.124-2.794,51.047-1.522,51.047-1.522a6.018,6.018,0,0,0,6.019-6.017A6.019,6.019,0,0,0,488.748-168.7Z" transform="translate(-373.517 200.322)" fill="#fff"/></g><path d="M437.5-171.577s-9.659-18.3-28.085-18.3" transform="translate(-363.611 203.205)" fill="none" stroke="#182a74" stroke-linecap="round" stroke-linejoin="round" stroke-width="2"/><path d="M423.453-173.555s-4.83-9.149-14.043-9.149" transform="translate(-363.611 205.184)" fill="none" stroke="#000" stroke-linecap="round" stroke-linejoin="round" stroke-width="2"/></g><g transform="translate(1708 -7406.463)"><path d="M43.908,52.916,27.481,36.489l-.09-.091-.089.09L10.875,52.916a6.37,6.37,0,0,1-9.008-9.008L18.294,27.48l.09-.088-.09-.088L1.867,10.876a6.371,6.371,0,0,1,9.01-9.009L27.3,18.294l.089.091c.029-.031.059-.06.088-.09L43.908,1.867a6.37,6.37,0,1,1,9.009,9.008L36.489,27.3l-.09.087.091.089L52.917,43.907a6.37,6.37,0,1,1-9.009,9.009ZM27.3,27.48l.089.091.089-.091c.03-.03.059-.059.09-.088-.031-.029-.06-.059-.09-.088l-.089-.09-.088.09-.09.089Z" transform="translate(3 57.783) rotate(-90)" fill="#182a74" stroke="rgba(0,0,0,0)" stroke-miterlimit="10" stroke-width="1"/><g transform="translate(17.077 16.971)"><g transform="translate(0 0)"><path d="M476.182,755.354V742.109h0a13.245,13.245,0,0,0-13.242,13.245h13.244Z" transform="translate(-462.938 -742.109)" fill="#182a74"/><path d="M508.05,773.978H494.806v13.244A13.244,13.244,0,0,0,508.05,773.978Z" transform="translate(-481.562 -760.733)" fill="#182a74"/></g><g transform="translate(0 0)"><path d="M494.806,755.354H508.05v0a13.244,13.244,0,0,0-13.244-13.242h0Z" transform="translate(-481.562 -742.11)" fill="#fff"/><path d="M476.183,787.223V773.978H462.939A13.244,13.244,0,0,0,476.183,787.223Z" transform="translate(-462.939 -760.734)" fill="#fff"/></g></g></g></g></svg>