<svg xmlns="http://www.w3.org/2000/svg" width="274.93" height="297.364" viewBox="0 0 274.93 297.364"><g transform="translate(19946.766 16534.924)"><g transform="translate(314)"><g transform="translate(-20393.447 -16534.924)"><g transform="translate(0)"><g transform="translate(132.682 38.261)"><path d="M107.887,0A107.887,107.887,0,1,1,0,107.887,107.887,107.887,0,0,1,107.887,0Z" transform="translate(59.156)" fill="#04bf8a"/><g transform="translate(0 38.003)"><g transform="translate(0)"><rect width="237.503" height="140.717" rx="70.359" fill="#182a74"/><circle cx="70.686" cy="70.686" r="70.686" fill="#ff6d00"/><path d="M32,0,64,55H0Z" transform="translate(97.766 37.661) rotate(90)" fill="#fff"/></g></g></g><g transform="translate(270.065)"><ellipse cx="8.109" cy="10.873" rx="8.109" ry="10.873" transform="translate(55.131)" fill="#182a74"/><ellipse cx="8.109" cy="10.873" rx="8.109" ry="10.873" fill="#182a74"/></g><g transform="translate(229.385 267.098)"><path d="M500.352,913.33a12.394,12.394,0,0,1,17.529,0l0,0" transform="translate(-377.128 -909.698)" fill="none" stroke="#182a74" stroke-linecap="round" stroke-miterlimit="10" stroke-width="1"/><path d="M356.7,913.33a12.4,12.4,0,0,1,17.533,0" transform="translate(-356.702 -909.699)" fill="none" stroke="#182a74" stroke-linecap="round" stroke-miterlimit="10" stroke-width="1"/><path d="M366.523,911.815a83.44,83.44,0,0,0,124.623,0" transform="translate(-358.098 -909.999)" fill="none" stroke="#182a74" stroke-linecap="round" stroke-miterlimit="10" stroke-width="1"/></g></g></g></g></g></svg>