<svg xmlns="http://www.w3.org/2000/svg" width="269.114" height="298.97" viewBox="0 0 269.114 298.97"><path d="M164.889,41.856a135.946,135.946,0,0,0-16.31.986,10.546,10.546,0,0,0-1.758-3.606,15.529,15.529,0,0,0,4.552-10.9c0-9.025-7.994-16.341-17.853-16.341s-17.854,7.316-17.854,16.341c0,7.235,5.14,13.368,12.258,15.517a9.71,9.71,0,0,0-.047,3.155,134.66,134.66,0,1,0,37.013-5.157ZM119.9,28.341c0-6.883,6.1-12.463,13.617-12.463s13.617,5.58,13.617,12.463a11.823,11.823,0,0,1-3.34,8.171,10.553,10.553,0,0,0-14.53,3.669C123.829,38.545,119.9,33.864,119.9,28.341Zm44.987,261.447A113.375,113.375,0,1,1,278.264,176.413,113.375,113.375,0,0,1,164.889,289.788Z" transform="translate(-30.332 -12)" fill="#fff"/><g transform="translate(33.286 63.141)"><path d="M265.363,264.834l7.4,4.7a101.524,101.524,0,0,0,12.79-72.494l-8.014,1.785a1.817,1.817,0,1,1-.788-3.545l8.031-1.788a101.389,101.389,0,0,0-41.846-60.518l-5.225,8.217a1.816,1.816,0,1,1-3.064-1.949L239.887,131a101.449,101.449,0,0,0-72.611-13.6l2.087,9.371a1.816,1.816,0,1,1-3.544.789l-2.1-9.425a101.369,101.369,0,0,0-61.353,41.975l8.3,5.279a1.816,1.816,0,1,1-1.948,3.064l-8.336-5.3a101.475,101.475,0,0,0-13.5,73.458l9.661-2.151a1.816,1.816,0,1,1,.79,3.543l-9.686,2.157a101.388,101.388,0,0,0,42.8,61.257l5.927-9.323a1.815,1.815,0,1,1,3.064,1.947l-5.93,9.328a101.562,101.562,0,0,0,73.34,12.689l-2.126-9.551a1.816,1.816,0,1,1,3.544-.789l2.123,9.535a101.4,101.4,0,0,0,60.422-42.66l-7.4-4.7a1.816,1.816,0,1,1,1.95-3.061ZM145.481,188.477l18.5,6.748a31.128,31.128,0,0,1,9.337-6.582V151.134l16.236,34.876a31.109,31.109,0,0,1,3.748.634l-2.719,2.551a28.042,28.042,0,0,0-30.867,36.832l-1.971,3.277c-.014-.034-.03-.066-.045-.1H120.669l34.745-16.175a30.863,30.863,0,0,1,3.567-11.054ZM125.51,290.935,175.047,208.6l.4-.664.355-.334,69.611-65.289-49.535,82.335-.4.665-.354.333ZM228.649,243.2l-18.133-6.935a31.213,31.213,0,0,1-8.8,7.564l.469-.079-.6,38.714-15.41-34.5a31.11,31.11,0,0,1-7.737-.991l2.674-2.508A28.028,28.028,0,0,0,214.274,216.9a27.933,27.933,0,0,0-2.729-12.078l1.827-3.036c.034.058.069.115.1.173l37.918.592-34.114,15.239a30.951,30.951,0,0,1-2.413,11.188Zm-42.733-34.98a8.675,8.675,0,1,0,9.054,8.279A8.675,8.675,0,0,0,185.916,208.218Z" transform="translate(-84.961 -115.627)" fill="#fff"/></g></svg>