<svg xmlns="http://www.w3.org/2000/svg" width="112.453" height="83.747" viewBox="0 0 112.453 83.747"><path d="M3306.049-343.3c16.775,0,16.775-21.494,33.551-21.494s16.776,21.494,33.551,21.494c6.389,0,10.344-3.117,13.72-6.978a6.718,6.718,0,0,0-4.849-11.148h-8.348a35,35,0,0,0-3.576-8.615l5.07-5.07a10.456,10.456,0,0,0,.752-13.568h0a8.206,8.206,0,0,0-12.816,0h0l-5.821,5.821a35.04,35.04,0,0,0-8.613-3.576v-8.225a9.063,9.063,0,0,0-9.065-9.061h-.006a9.063,9.063,0,0,0-9.063,9.063v8.225a35.026,35.026,0,0,0-8.613,3.576l-5.821-5.822a9.064,9.064,0,0,0-12.817,0,9.062,9.062,0,0,0,0,12.816h0l5.822,5.823a35.049,35.049,0,0,0-3.574,8.613h-8.35a6.718,6.718,0,0,0-4.854,11.147C3295.7-346.414,3299.66-343.3,3306.049-343.3Z" transform="translate(-3290.659 403.717)" fill="#182a74"/><g transform="translate(5.261 41.977)"><g transform="translate(65.421)"><line x2="14.948" y2="14.948" fill="none" stroke="#182a74" stroke-miterlimit="10" stroke-width="2.685"/><line x2="14.948" y2="14.948" transform="translate(25.872 25.872)" fill="none" stroke="#182a74" stroke-miterlimit="10" stroke-width="2.685"/></g><g transform="translate(30.301)"><line x2="14.948" y2="14.948" fill="none" stroke="#182a74" stroke-miterlimit="10" stroke-width="2.685"/><line x2="14.948" y2="14.948" transform="translate(25.872 25.872)" fill="none" stroke="#182a74" stroke-miterlimit="10" stroke-width="2.685"/></g><g transform="translate(0 4.82)"><line x2="10.129" y2="10.129" fill="none" stroke="#182a74" stroke-miterlimit="10" stroke-width="2.685"/><line x2="14.948" y2="14.948" transform="translate(21.053 21.053)" fill="none" stroke="#182a74" stroke-miterlimit="10" stroke-width="2.685"/></g></g></svg>