<?xml version="1.0" encoding="utf-8"?><svg id="spring" image-rendering="optimizeSpeed" baseProfile="basic" version="1.1" preserveAspectRatio="xMidYMid meet" x="0px" y="0px" width="123" height="84" xmlns="http://www.w3.org/2000/svg" viewBox="0 0 123 84" xmlns:xlink="http://www.w3.org/1999/xlink"><g id="Scene-1" overflow="visible"><g id="spring" transform="translate(54.75 42)"><g id="rain" transform="translate(0 9)"><g mask="url(#mask_)"><g id="Symbol-5" transform="translate(-79.75 -79.8)"><animateTransform attributeName="transform" additive="replace" type="translate" repeatCount="indefinite" dur="0.633s" keyTimes="0;.05299;.053;.10499;.105;.15799;.158;.21099;.211;.26299;.263;.31599;.316;.36899;.369;.42099;.421;.47399;.474;.52699;.527;.57899;.579;.63199;.632;.68499;.685;.73699;.737;.78999;.79;.84299;.843;.89499;.895;.94799;.948;1" values="-79.75,-79.8;-79.75,-79.8;-71.35,-71.4;-71.35,-71.4;-62.9,-62.95;-62.9,-62.95;-54.5,-54.55;-54.5,-54.55;-46.05,-46.1;-46.05,-46.1;-37.65,-37.7;-37.65,-37.7;-29.2,-29.25;-29.2,-29.25;-20.8,-20.85;-20.8,-20.85;-12.35,-12.4;-12.35,-12.4;-3.95,-4;-3.95,-4;4.45,4.4;4.45,4.4;12.9,12.85;12.9,12.85;21.3,21.25;21.3,21.25;29.75,29.7;29.75,29.7;38.15,38.1;38.15,38.1;46.6,46.55;46.6,46.55;55,54.95;55,54.95;63.45,63.4;63.45,63.4;71.85,71.8;71.85,71.8" calcMode="discrete"/><path id="Layer3_0_1_STROKES" stroke="#192D72" stroke-width="2.65" stroke-linejoin="miter" stroke-linecap="butt" stroke-miterlimit="10" fill="none" d="M2 -33.2L16.95 -18.25M107.45 72.35L122.4 87.3M81.55 46.5L96.5 61.45M53.75 18.55L68.7 33.45M18.65 18.55L33.6 33.45M37.2 72.35L52.15 87.3M11.3 46.5L26.25 61.45M46.45 46.5L61.4 61.45M63.05 98.25L78 113.15M98.2 98.25L113.15 113.15M72.3 72.35L87.25 87.3M133.3 98.25L148.25 113.15M27.9 -7.35L42.85 7.6M-96.5 -61.45L-81.55 -46.55M-122.35 -87.35L-107.4 -72.4M-68.25 -33.2L-53.3 -18.25M-33.1 -33.2L-18.15 -18.25M-61.35 -61.45L-46.4 -46.55M-26.25 -61.45L-11.3 -46.55M-52.1 -87.35L-37.15 -72.4M-148.25 -113.2L-133.3 -98.25M-87.25 -87.35L-72.3 -72.4M-113.1 -113.2L-98.15 -98.25M-78 -113.2L-63.05 -98.25M-16.5 18.55L-1.55 33.45M-42.35 -7.35L-27.4 7.6M-7.25 -7.35L7.7 7.6"/></g></g><mask id="mask_"><g><g id="rain_0.0"><g><g id="Layer2_0_FILL"><path fill="#FFF" stroke="none" d="M-54.8 32.2Q-54.735 32.628 -54.7 33L-53.95 33Q-54.384 32.582 -54.8 32.2M9.6 -21.25Q7.75 -20.25 4.45 -19.65 .1 -18.85 -.95 -18.5L-2.8 -17.85Q-3.9 -17.45 -4.7 -17.3 -7 -16.9 -9.25 -17.85 -10.812 -18.509 -11.9 -19.65 -12.210 -19.722 -12.55 -19.8 -15.793 -20.476 -19.6 -20.55 -20.763 -19.413 -22.6 -18.35 -27.3 -15.55 -27.4 -15.5 -29.75 -13.8 -31.4 -11.2 -31.85 -10.45 -32.8 -8.6 -33.65 -6.9 -34.25 -6.05 -35.6 -4.1 -38.35 -2 -39.9 -.8 -43.05 1.6 -45.5 3.7 -47.2 6.15 -48.15 7.45 -50.15 10.95 -51.330 12.959 -52.3 14.35 -50.927 15.272 -48.9 16.5 -45.5 18.6 -43.9 20 -42.4 21.35 -39.55 24.9 -36.9 28.2 -35.1 29.65 -33.35 31 -30.3 32.5 -29.773 32.763 -29.3 33L68 33 68 2.1Q67.639 1.908 67.25 1.7 64.35 .15 63.9 -.1 61.95 -1.2 58.55 -3.6 54.95 -6.15 53.2 -7.2 51.2 -8.35 47.95 -9.9 43.3 -12.1 42.55 -12.5 38.1 -14.65 31.5 -18.7L22.2 -24.3Q21.600 -24.489 21.15 -24.65 18.7 -25.55 16.9 -25.95 15.947 -26.077 15.1 -26.2 15.089 -26.145 15.05 -26.1 11.95 -22.5 9.6 -21.25Z" fill-opacity="1"/></g></g></g></g></mask></g><path fill="#192D72" stroke="none" d="M32.25 -27Q30.1 -29.65 26.75 -30 23.35 -30.4 20.7 -28.25 20.1 -27.75 19.4 -27L13.6 -21.15Q9.6 -23.5 5 -24.75L5 -32.95Q5 -36.7 2.35 -39.35 -.3 -42.05 -4.1 -42 -7.85 -42 -10.5 -39.35 -13.15 -36.7 -13.15 -32.95L-13.15 -24.75Q-17.75 -23.5 -21.75 -21.15L-27.6 -27Q-30.2 -29.6 -34 -29.6 -37.75 -29.6 -40.4 -27 -43.05 -24.35 -43.05 -20.55 -43.05 -16.8 -40.4 -14.15L-34.6 -8.35Q-36.95 -4.25 -38.15 .25L-46.5 .25Q-49.3 .35 -51.15 2.4 -53.05 4.4 -53 7.2 -53 9.6 -51.35 11.4 -48.5 14.75 -45.6 16.35 -42.05 18.4 -37.65 18.4 -32.05 18.4 -27.7 15.05 -25.05 13 -20.85 7.65 -16.65 2.25 -14.05 .25 -9.7 -3.1 -4.1 -3.1 1.5 -3.1 5.85 .25 8.5 2.3 12.7 7.65 16.9 13.05 19.5 15.05 23.85 18.4 29.45 18.4 33.9 18.4 37.45 16.35 40.3 14.75 43.2 11.4 45.05 9.35 44.85 6.55 44.65 3.8 42.55 1.95 40.8 .35 38.35 .25L30 .25Q28.8 -4.35 26.4 -8.35L31.5 -13.4Q34.15 -16.2 34.35 -20.05 34.6 -23.9 32.25 -27Z"/></g></g></svg>