<?xml version="1.0" encoding="utf-8"?><svg id="sun" image-rendering="optimizeSpeed" baseProfile="basic" version="1.1" preserveAspectRatio="xMidYMid meet" x="0px" y="0px" width="103" height="103" xmlns="http://www.w3.org/2000/svg" viewBox="0 0 103 103" xmlns:xlink="http://www.w3.org/1999/xlink"><g id="Scene-1" overflow="visible"><g id="asdasd" transform="translate(51.5 51.5)"><animateTransform attributeName="transform" additive="replace" type="translate" repeatCount="indefinite" dur="1.333s" keyTimes="0;.02499;.025;.04999;.05;.07499;.075;.09999;.1;.12499;.125;.14999;.15;.17499;.175;.19999;.2;.22499;.225;.24999;.25;.27499;.275;.29999;.3;.32499;.325;.34999;.35;.37499;.375;.39999;.4;.42499;.425;.44999;.45;.47499;.475;.49999;.5;.52499;.525;.54999;.55;.57499;.575;.59999;.6;.62499;.625;.64999;.65;.67499;.675;.69999;.7;.72499;.725;.74999;.75;.77499;.775;.79999;.8;.82499;.825;.84999;.85;.87499;.875;.89999;.9;.92499;.925;.94999;.95;.97499;.975;1" values="51.5,51.5;51.5,51.5;51.583,51.614;51.583,51.614;51.577,51.595;51.577,51.595;51.515,51.541;51.515,51.541;51.5,51.5;51.5,51.5;51.554,51.558;51.554,51.558;51.469,51.563;51.469,51.563;51.554,51.543;51.554,51.543;51.587,51.566;51.587,51.566;51.511,51.537;51.511,51.537;51.498,51.554;51.498,51.554;51.538,51.519;51.538,51.519;51.54,51.553;51.54,51.553;51.487,51.586;51.487,51.586;51.496,51.602;51.496,51.602;51.487,51.417;51.487,51.417;51.519,51.466;51.519,51.466;51.47,51.446;51.47,51.446;51.462,51.499;51.462,51.499;51.504,51.446;51.504,51.446;51.446,51.504;51.446,51.504;51.499,51.462;51.499,51.462;51.446,51.47;51.446,51.47;51.466,51.519;51.466,51.519;51.417,51.487;51.417,51.487;51.602,51.496;51.602,51.496;51.586,51.487;51.586,51.487;51.553,51.54;51.553,51.54;51.519,51.538;51.519,51.538;51.554,51.498;51.554,51.498;51.537,51.511;51.537,51.511;51.566,51.587;51.566,51.587;51.543,51.554;51.543,51.554;51.563,51.469;51.563,51.469;51.558,51.554;51.558,51.554;51.5,51.5;51.5,51.5;51.541,51.515;51.541,51.515;51.595,51.577;51.595,51.577;51.614,51.583;51.614,51.583;51.5,51.5;51.5,51.5" calcMode="discrete"/><animateTransform attributeName="transform" additive="sum" type="rotate" repeatCount="indefinite" dur="1.333s" keyTimes="0;.02499;.025;.04999;.05;.07499;.075;.09999;.1;.12499;.125;.14999;.15;.17499;.175;.19999;.2;.22499;.225;.24999;.25;.27499;.275;.29999;.3;.32499;.325;.34999;.35;.37499;.375;.39999;.4;.42499;.425;.44999;.45;.47499;.475;.49999;.5;.52499;.525;.54999;.55;.57499;.575;.59999;.6;.62499;.625;.64999;.65;.67499;.675;.69999;.7;.72499;.725;.74999;.75;.77499;.775;.79999;.8;.82499;.825;.84999;.85;.87499;.875;.89999;.9;.92499;.925;.94999;.95;.97499;.975;1" values="0,0,0;0,0,0;9.229,0,0;9.229,0,0;18.462,0,0;18.462,0,0;27.691,0,0;27.691,0,0;36.925,0,0;36.925,0,0;46.154,0,0;46.154,0,0;55.382,0,0;55.382,0,0;64.616,0,0;64.616,0,0;73.845,0,0;73.845,0,0;83.079,0,0;83.079,0,0;92.307,0,0;92.307,0,0;101.541,0,0;101.541,0,0;110.769,0,0;110.769,0,0;119,0,0;119,0,0;129.232,0,0;129.232,0,0;138.461,0,0;138.461,0,0;147.694,0,0;147.694,0,0;156.923,0,0;156.923,0,0;166.152,0,0;166.152,0,0;175.386,0,0;175.386,0,0;-175.386,0,0;-175.386,0,0;-166.152,0,0;-166.152,0,0;-156.923,0,0;-156.923,0,0;-147.694,0,0;-147.694,0,0;-138.461,0,0;-138.461,0,0;-129.232,0,0;-129.232,0,0;-119,0,0;-119,0,0;-110.769,0,0;-110.769,0,0;-101.541,0,0;-101.541,0,0;-92.307,0,0;-92.307,0,0;-83.079,0,0;-83.079,0,0;-73.845,0,0;-73.845,0,0;-64.616,0,0;-64.616,0,0;-55.382,0,0;-55.382,0,0;-46.154,0,0;-46.154,0,0;-36.925,0,0;-36.925,0,0;-27.691,0,0;-27.691,0,0;-18.462,0,0;-18.462,0,0;-9.229,0,0;-9.229,0,0;0,0,0;0,0,0" calcMode="discrete"/><animateTransform attributeName="transform" additive="sum" type="scale" repeatCount="indefinite" dur="1.333s" keyTimes="0;.02499;.025;.09999;.1;.17499;.175;.22499;.225;.27499;.275;.34999;.35;.42499;.425;.47499;.475;.52499;.525;.57499;.575;.64999;.65;.72499;.725;.77499;.775;.82499;.825;.89999;.9;.97499;.975;1" values="1,1;1,1;1,.999;1,.999;.998,.998;.998,.998;1,.999;1,.999;1,1;1,1;1,.999;1,.999;.998,.998;.998,.998;1,.999;1,.999;1,1;1,1;1,.999;1,.999;.998,.998;.998,.998;1,.999;1,.999;1,1;1,1;1,.999;1,.999;.998,.998;.998,.998;1,.999;1,.999;1,1;1,1" calcMode="discrete"/><animateTransform attributeName="transform" additive="sum" type="translate" repeatCount="indefinite" dur="1.333s" keyTimes="0;.02499;.025;.04999;.05;.07499;.075;.09999;.1;.12499;.125;.14999;.15;.17499;.175;.22499;.225;.24999;.25;.29999;.3;.32499;.325;.34999;.35;.37499;.375;.39999;.4;.42499;.425;.47499;.475;.52499;.525;.57499;.575;.59999;.6;.62499;.625;.64999;.65;.67499;.675;.69999;.7;.74999;.75;.77499;.775;.82499;.825;.84999;.85;.87499;.875;.89999;.9;.92499;.925;.94999;.95;.97499;.975;1" values="0,0;0,0;-.1,-.1;-.1,-.1;-.15,-.05;-.15,-.05;-.1,-.05;-.1,-.05;0,0;0,0;-.15,0;-.15,0;-.05,.05;-.05,.05;-.15,.1;-.15,.1;-.1,.1;-.1,.1;-.05,.1;-.05,.1;0,.15;0,.15;-.1,.1;-.1,.1;-.05,.1;-.05,.1;.05,0;.05,0;.05,.05;.05,.05;0,.05;0,.05;.05,.05;.05,.05;.05,0;.05,0;.05,.05;.05,.05;0,.05;0,.05;.1,-.05;.1,-.05;.1,-.1;.1,-.1;.15,0;.15,0;.1,-.05;.1,-.05;.1,-.1;.1,-.1;.1,-.15;.1,-.15;.05,-.05;.05,-.05;0,-.15;0,-.15;0,0;0,0;-.05,-.1;-.05,-.1;-.05,-.15;-.05,-.15;-.1,-.1;-.1,-.1;0,0;0,0" calcMode="discrete"/><path fill="#192D72" stroke="none" d="M38.95 -29.9Q38.95 -33.65 36.3 -36.3 33.65 -38.95 29.9 -38.95 26.15 -38.95 23.5 -36.3L17.65 -30.5Q13.55 -32.85 9.05 -34.05L9.05 -42.3Q9.05 -46.05 6.4 -48.7 3.75 -51.35 0 -51.35 -3.8 -51.35 -6.45 -48.7 -9.1 -46.05 -9.1 -42.3L-9.1 -34.05Q-13.6 -32.85 -17.7 -30.5L-23.5 -36.3Q-26.15 -38.95 -29.9 -38.95 -33.7 -38.95 -36.35 -36.3 -38.95 -33.65 -38.95 -29.9 -38.95 -26.1 -36.35 -23.5L-30.5 -17.65Q-32.85 -13.65 -34.1 -9.05L-42.3 -9.05Q-46.05 -9.05 -48.7 -6.4 -51.35 -3.75 -51.35 0 -51.35 3.75 -48.7 6.45 -46.05 9.1 -42.3 9.1L-34.1 9.1Q-32.85 13.7 -30.5 17.7L-36.35 23.5Q-38.95 26.15 -38.95 29.95 -38.95 33.7 -36.35 36.35 -33.7 39 -29.9 39 -26.15 39 -23.5 36.35L-17.7 30.5Q-13.7 32.9 -9.1 34.1L-9.1 42.3Q-9.1 46.05 -6.4 48.7 -3.75 51.35 0 51.35 3.75 51.35 6.4 48.7 9.05 46.05 9.05 42.3L9.05 34.1Q13.65 32.9 17.65 30.5L23.5 36.35Q26.15 39 29.9 39 33.65 39 36.3 36.35 38.95 33.7 38.95 29.95 38.95 26.15 36.3 23.5L30.5 17.7Q32.85 13.6 34.05 9.1L42.3 9.1Q46.05 9.1 48.7 6.45 51.35 3.75 51.35 0 51.35 -3.75 48.7 -6.4 46.05 -9.05 42.3 -9.05L34.05 -9.05Q32.85 -13.55 30.5 -17.65L36.3 -23.5Q38.95 -26.1 38.95 -29.9Z"/></g></g></svg>