<svg xmlns="http://www.w3.org/2000/svg" width="102.712" height="102.716" viewBox="0 0 102.712 102.716"><path d="M3741.357-361.423h-8.225a35.032,35.032,0,0,0-3.575-8.615l5.821-5.822a9.062,9.062,0,0,0,0-12.816h0a9.063,9.063,0,0,0-12.817,0h0l-5.821,5.821a35.059,35.059,0,0,0-8.613-3.576v-8.225a9.063,9.063,0,0,0-9.064-9.061h-.006a9.063,9.063,0,0,0-9.063,9.063v8.225a35.023,35.023,0,0,0-8.613,3.576l-5.821-5.822a9.063,9.063,0,0,0-12.816,0,9.062,9.062,0,0,0,0,12.816h0l5.822,5.823a35,35,0,0,0-3.575,8.613h-8.226a9.063,9.063,0,0,0-9.063,9.063,9.063,9.063,0,0,0,9.063,9.063h8.226a35.014,35.014,0,0,0,3.575,8.613l-5.822,5.822a9.062,9.062,0,0,0,0,12.816h0a9.062,9.062,0,0,0,12.816,0h0l5.821-5.822A35.03,35.03,0,0,0,3690-318.29v8.224a9.062,9.062,0,0,0,9.061,9.065,9.062,9.062,0,0,0,9.063-9.063v-8.223a35.031,35.031,0,0,0,8.616-3.575l5.818,5.818a9.062,9.062,0,0,0,12.816,0h0a9.064,9.064,0,0,0,0-12.817h0l-5.817-5.816a34.995,34.995,0,0,0,3.578-8.618h8.22a9.062,9.062,0,0,0,9.063-9.063A9.063,9.063,0,0,0,3741.357-361.423Z" transform="translate(-3647.702 403.717)" fill="#182a74"/></svg>