<svg xmlns="http://www.w3.org/2000/svg" width="275.164" height="215.774" viewBox="0 0 275.164 215.774"><g transform="translate(-731.771 3034.035)"><path d="M899.048-3034.035a107.888,107.888,0,0,1,107.887,107.887,107.887,107.887,0,0,1-107.887,107.887,107.886,107.886,0,0,1-107.887-107.885v0h0A107.887,107.887,0,0,1,899.048-3034.035Z" fill="#ffdc20"/><path d="M802.364-2996.032h96.785a70.359,70.359,0,0,1,70.359,70.359h0a70.358,70.358,0,0,1-70.358,70.358H802.364a70.358,70.358,0,0,1-70.359-70.357h0A70.36,70.36,0,0,1,802.364-2996.032Z" fill="#182a74"/><path d="M802.457-2996.369a70.686,70.686,0,0,1,70.686,70.686A70.686,70.686,0,0,1,802.457-2855a70.687,70.687,0,0,1-70.686-70.686h0A70.686,70.686,0,0,1,802.457-2996.369Z" fill="#ff6d00"/><g style="isolation:isolate"><g style="isolation:isolate"><path d="M755.556-2931.467a3,3,0,0,0-2.6-1.925,1.792,1.792,0,0,0-1.825,1.9c0,1.275,1.175,2.15,2.649,2.85,2.1.925,4.874,2.174,4.849,5.323a5.106,5.106,0,0,1-1.549,3.85,5.463,5.463,0,0,1-3.925,1.474,5.78,5.78,0,0,1-5.773-4.874l2.249-1.425c.625,2.475,1.8,3.7,3.524,3.7a2.547,2.547,0,0,0,2.675-2.624c0-3.425-7.448-2.675-7.448-8.074a4.426,4.426,0,0,1,1.325-3.274,4.447,4.447,0,0,1,3.249-1.324,5.214,5.214,0,0,1,4.823,2.949Z" fill="#fff"/><path d="M762.408-2935.692h2.749v11.322c0,2.4,1.225,3.775,3.549,3.775s3.549-1.375,3.549-3.775v-11.322h2.75v11.2a6.411,6.411,0,0,1-1.775,4.8,6.267,6.267,0,0,1-4.524,1.7,6.245,6.245,0,0,1-4.549-1.724,6.382,6.382,0,0,1-1.749-4.775Z" fill="#fff"/><path d="M782.407-2925.344v7.148h-2.749v-17.5h6.273a5.29,5.29,0,0,1,3.974,1.45,5.008,5.008,0,0,1,1.45,3.724,5.007,5.007,0,0,1-1.45,3.724,5.287,5.287,0,0,1-3.974,1.45Zm3.649-2.6a2.321,2.321,0,0,0,2.5-2.574,2.321,2.321,0,0,0-2.5-2.574h-3.649v5.148Z" fill="#fff"/><path d="M798.082-2925.344v7.148h-2.749v-17.5h6.273a5.29,5.29,0,0,1,3.974,1.45,5.007,5.007,0,0,1,1.449,3.724,5.006,5.006,0,0,1-1.449,3.724,5.287,5.287,0,0,1-3.974,1.45Zm3.649-2.6a2.321,2.321,0,0,0,2.5-2.574,2.321,2.321,0,0,0-2.5-2.574h-3.649v5.148Z" fill="#fff"/><path d="M818.355-2935.891a7.6,7.6,0,0,1,5.7,2.348,8.925,8.925,0,0,1,2.325,6.6,9.025,9.025,0,0,1-2.325,6.624,7.67,7.67,0,0,1-5.7,2.324,7.769,7.769,0,0,1-5.724-2.324,9.119,9.119,0,0,1-2.3-6.624,9.016,9.016,0,0,1,2.3-6.6A7.7,7.7,0,0,1,818.355-2935.891Zm0,2.6a4.916,4.916,0,0,0-3.749,1.625,6.815,6.815,0,0,0-1.475,4.724,6.814,6.814,0,0,0,1.475,4.724,4.916,4.916,0,0,0,3.749,1.625,4.828,4.828,0,0,0,3.724-1.625,6.7,6.7,0,0,0,1.5-4.724,6.7,6.7,0,0,0-1.5-4.724A4.828,4.828,0,0,0,818.355-2933.293Z" fill="#fff"/><path d="M838.255-2926.244l5.049,8.048h-3.25l-4.924-7.848h-2.024v7.848h-2.749v-17.5h6.123c3.274,0,5.174,1.825,5.174,4.824A4.405,4.405,0,0,1,838.255-2926.244Zm-1.7-2.4a2.048,2.048,0,0,0,2.3-2.225,2.048,2.048,0,0,0-2.3-2.224h-3.449v4.449Z" fill="#fff"/><path d="M844.657-2933.092v-2.6H857.2v2.6h-4.9v14.9h-2.749v-14.9Z" fill="#fff"/></g></g></g></svg>