<svg xmlns="http://www.w3.org/2000/svg" width="53.112" height="52.426" viewBox="0 0 53.112 52.426"><path d="M98.181,7001.18a15.227,15.227,0,0,0-30.416,0,15.225,15.225,0,0,0,5.766,29.832v8.126H92.415v-8.126a15.227,15.227,0,0,0,5.766-29.832Zm-24.194,17.653c-1.964,0-3.556-2.135-3.556-4.767s1.592-4.767,3.556-4.767,3.556,2.134,3.556,4.767S75.951,7018.833,73.987,7018.833Zm18.357,0c-1.964,0-3.556-2.135-3.556-4.767s1.592-4.767,3.556-4.767,3.556,2.134,3.556,4.767S94.308,7018.833,92.344,7018.833Z" transform="translate(-56.402 -6986.712)" fill="#182a74"/></svg>