<svg xmlns="http://www.w3.org/2000/svg" width="256" height="296.961" viewBox="0 0 256 296.961"><g transform="translate(-120 -107.52)"><path d="M232,246.516V129.532c-40,6.324-72.536,12.624-112,18.944v99.456C159.464,247.472,192,246.98,232,246.516Z" fill="#fff"/><path d="M248,246.284c40-.48,88.536-.936,128-1.42V107.52c-39.464,6.324-88,12.62-128,18.948Z" fill="#fff"/><path d="M249.6,265.72q-.024,59.9,0,119.816c39.46,6.324,86.928,12.624,126.4,18.944V267.136C336.536,266.668,289.072,266.192,249.6,265.72Z" fill="#fff"/><path d="M232,265.484c-40-.476-72.536-.944-112-1.42V363.52c39.464,6.328,72,12.62,112,18.944Z" fill="#fff"/></g></svg>