<svg xmlns="http://www.w3.org/2000/svg" width="1562" height="1080" viewBox="0 0 1562 1080"><rect width="1562" height="1080" fill="#ffafa6"/><g transform="translate(73.658 30.039)"><path d="M165.768,499.592h-16.33A59.252,59.252,0,0,1,90.186,440.34h0a59.252,59.252,0,0,1,59.252-59.252H547.881a78.869,78.869,0,0,0,78.868-78.868h0" transform="translate(39.261 168.832)" fill="none" stroke="#182a74" stroke-miterlimit="10" stroke-width="1" stroke-dasharray="12"/><path d="M880.159,399.6H393.075a36.358,36.358,0,0,0-36.357,36.357h0" transform="translate(213.836 232.611)" fill="none" stroke="#182a74" stroke-miterlimit="10" stroke-width="1" stroke-dasharray="12"/><path d="M522.857,204.844H901.691a79.527,79.527,0,0,1,79.527,79.527V433.047a91.44,91.44,0,0,1-91.44,91.44l-95.762,2.668" transform="translate(322.654 105.052)" fill="none" stroke="#182a74" stroke-miterlimit="10" stroke-width="1" stroke-dasharray="12"/><g transform="translate(205.029 610.464)"><path d="M193.813,386.463H443.431a57.951,57.951,0,0,1,57.954,57.946v0h0a57.956,57.956,0,0,1-57.954,57.951H193.813a57.954,57.954,0,0,1-57.958-57.951h0A57.952,57.952,0,0,1,193.8,386.458h0Z" transform="translate(-135.855 -386.458)" fill="#ffafa6" stroke="#182a74" stroke-miterlimit="10" stroke-width="1"/><circle cx="57.954" cy="57.954" r="57.954" transform="translate(0 0.005)" fill="none" stroke="#182a74" stroke-miterlimit="10" stroke-width="1"/><g transform="translate(43.342 55.587)"><rect width="30.959" height="5.023" fill="#182a74"/></g><g transform="translate(249.617 0.005)"><circle cx="57.954" cy="57.954" r="57.954" fill="#ffafa6" stroke="#182a74" stroke-miterlimit="10" stroke-width="1"/><g transform="translate(42.473 42.472)"><rect width="5.023" height="30.963" transform="translate(12.972)" fill="#182a74"/><rect width="30.963" height="5.023" transform="translate(0 12.972)" fill="#182a74"/></g></g><g transform="translate(135.322 50.873)"><path d="M267.682,419.453a9.162,9.162,0,0,1,12.04,0" transform="translate(-184.832 -417.197)" fill="none" stroke="#182a74" stroke-linecap="round" stroke-miterlimit="10" stroke-width="1"/><path d="M217.621,419.453a9.162,9.162,0,0,1,12.04,0" transform="translate(-217.621 -417.197)" fill="none" stroke="#182a74" stroke-linecap="round" stroke-miterlimit="10" stroke-width="1"/><path d="M304.241,417.88c0,10.671-13.758,29.152-41.5,29.152s-41.5-18.466-41.5-29.152" transform="translate(-215.249 -416.75)" fill="none" stroke="#182a74" stroke-linecap="round" stroke-miterlimit="10" stroke-width="1"/></g></g><g transform="translate(536.734 163.147)"><line y2="611.322" transform="translate(172.5 172.495)" fill="none" stroke="#182a74" stroke-width="1.178"/><path d="M669.39,184.633,565.985,288.045q-.285.283-.571.561c.2.184.381.369.568.558L669.39,392.579a40.1,40.1,0,0,1-56.7,56.71L509.274,345.87c-.2-.194-.372-.376-.553-.564q-.276.285-.558.566L404.75,449.288a40.107,40.107,0,0,1-56.72-56.72l103.418-103.41c.194-.194.377-.376.568-.559-.194-.182-.377-.367-.564-.554L348.035,184.627a40.1,40.1,0,0,1,56.708-56.706L508.162,231.335c.194.2.369.374.551.563.185-.194.367-.377.558-.568l103.4-103.41a40.106,40.106,0,0,1,56.718,56.718h0ZM509.274,289.164c.2-.2.376-.374.568-.558q-.288-.278-.571-.561c-.2-.2-.374-.377-.556-.566-.182.19-.366.377-.553.564s-.377.374-.569.556q.285.278.569.558c.187.187.374.377.556.568C508.9,289.538,509.087,289.349,509.274,289.164Z" transform="translate(-336.283 -116.173)" fill="#182a74" stroke="#182a74" stroke-miterlimit="10" stroke-width="1.178"/><g transform="translate(25.342 37.032)"><ellipse cx="141.718" cy="142.187" rx="141.718" ry="142.187" fill="#96d5ef"/><g transform="translate(81.957 55.663)"><g transform="translate(77.965)"><path d="M470.2,203.394c-13.745,0-21.976-6.984-21.976-15.6s8.232-15.607,21.976-15.607h0c13.745,0,21.975,6.987,21.975,15.607S483.946,203.394,470.2,203.394Z" transform="translate(-448.226 -172.183)" fill="#fff"/><circle cx="8.946" cy="8.946" r="8.946" transform="translate(13.03 6.657)" fill="#182a74"/></g><path d="M423.094,203.394c-13.745,0-21.977-6.984-21.977-15.6s8.232-15.607,21.977-15.607h0c13.745,0,21.977,6.987,21.977,15.607S436.837,203.394,423.094,203.394Z" transform="translate(-401.117 -172.183)" fill="#fff"/><circle cx="8.946" cy="8.946" r="8.946" transform="translate(13.03 6.657)" fill="#182a74"/></g><g transform="translate(111.174 111.175)"><g transform="translate(0.012)"><path d="M448.99,235.95V205.725h0a30.226,30.226,0,0,0-30.212,30.225H448.99Z" transform="translate(-418.778 -205.725)" fill="#182a74"/><path d="M467.256,223.988H437.033v30.223A30.223,30.223,0,0,0,467.256,223.988Z" transform="translate(-406.821 -193.763)" fill="#182a74"/></g><g transform="translate(0 0.012)"><path d="M437.034,235.944h30.223a30.224,30.224,0,0,0-30.223-30.212h0Z" transform="translate(-406.809 -205.732)" fill="#fff"/><path d="M448.994,254.212V223.987H418.771a30.225,30.225,0,0,0,30.222,30.225Z" transform="translate(-418.771 -193.775)" fill="#fff"/></g></g><g transform="translate(69.369 158.096)"><path d="M469.25,237.849a12.878,12.878,0,0,1,18.211,0h0" transform="translate(-343.903 -234.076)" fill="none" stroke="#182a74" stroke-linecap="round" stroke-miterlimit="10" stroke-width="1.178"/><path d="M393.511,237.849a12.878,12.878,0,0,1,18.213,0l0,0" transform="translate(-393.511 -234.076)" fill="none" stroke="#182a74" stroke-linecap="round" stroke-miterlimit="10" stroke-width="1.178"/><path d="M524.568,235.215c0,17.856-20.813,48.7-62.777,48.7s-62.777-30.842-62.777-48.7" transform="translate(-389.907 -233.33)" fill="none" stroke="#182a74" stroke-linecap="round" stroke-miterlimit="10" stroke-width="1.178"/></g></g></g><g transform="translate(1009.813 355.084)"><g transform="translate(65.288 72.898)"><path d="M693.189,276.2h0a31.611,31.611,0,0,1,31.6,31.61v67.846H661.584V307.806a31.607,31.607,0,0,1,31.6-31.61h0Z" transform="translate(-661.583 -276.196)" fill="none" stroke="#182a74" stroke-width="1.178"/><path d="M673,349.874v82.288" transform="translate(-654.106 -227.938)" fill="none" stroke="#182a74" stroke-width="1.178"/><path d="M686.7,349.875v82.286" transform="translate(-645.131 -227.937)" fill="none" stroke="#182a74" stroke-width="1.178"/><rect width="63.213" height="22.473" transform="translate(0 99.462)" fill="none" stroke="#182a74" stroke-width="1.178"/></g><line y1="42.774" transform="translate(96.893)" fill="none" stroke="#182a74" stroke-width="1.178"/><line x1="30.245" y1="30.245" transform="translate(17.257 33.642)" fill="none" stroke="#182a74" stroke-width="1.178"/><line y1="30.247" x2="30.247" transform="translate(146.284 33.641)" fill="none" stroke="#182a74" stroke-width="1.178"/><line y1="0.001" x2="42.778" transform="translate(151.011 109.435)" fill="none" stroke="#182a74" stroke-width="1.178"/><line y1="0.001" x2="42.778" transform="translate(0 109.435)" fill="none" stroke="#182a74" stroke-width="1.178"/><g transform="translate(81.751 102.281)"><path d="M684.749,295.691a5.945,5.945,0,0,1,8.407,0" transform="translate(-662.873 -293.95)" fill="none" stroke="#182a74" stroke-width="1.178"/><path d="M671.531,295.691a5.945,5.945,0,0,1,8.407,0" transform="translate(-671.531 -293.95)" fill="none" stroke="#182a74" stroke-width="1.178"/><path d="M687.289,303.461" transform="translate(-661.21 -287.72)" fill="none" stroke="#182a74" stroke-width="1.178"/><ellipse cx="3.538" cy="4.743" rx="3.538" ry="4.743" transform="translate(22.541 31.209)" fill="#182a74" stroke="#182a74" stroke-miterlimit="10" stroke-width="1.178"/><ellipse cx="3.538" cy="4.743" rx="3.538" ry="4.743" transform="translate(0.665 31.209)" fill="#182a74" stroke="#182a74" stroke-miterlimit="10" stroke-width="1.178"/></g></g><g transform="translate(109.862 240.34)"><path d="M193.691,202.8a17.768,17.768,0,0,1-17.768-17.768,22.21,22.21,0,0,1,22.2-22.217h.01A27.763,27.763,0,0,1,225.9,190.578h0a34.7,34.7,0,0,1-34.7,34.7H78.352" transform="translate(-78.352 -162.816)" fill="none" stroke="#182a74" stroke-width="1.178"/><path d="M193.691,216.34a17.769,17.769,0,0,1-17.768-17.768,22.21,22.21,0,0,1,22.21-22.21h0A27.764,27.764,0,0,1,225.9,204.126h0a34.7,34.7,0,0,1-34.7,34.7H78.352" transform="translate(-78.352 -153.944)" fill="none" stroke="#182a74" stroke-width="1.178"/><g transform="translate(0 84.883)"><path d="M193.695,250.136A17.768,17.768,0,0,0,175.927,267.9a22.21,22.21,0,0,0,22.21,22.21h0A27.763,27.763,0,0,0,225.9,262.349h0a34.7,34.7,0,0,0-34.7-34.7H78.352" transform="translate(-78.352 -205.236)" fill="none" stroke="#182a74" stroke-width="1.178"/><path d="M155.076,236.593a17.769,17.769,0,0,0-17.768,17.768,22.21,22.21,0,0,0,22.21,22.21h0a27.764,27.764,0,0,0,27.764-27.764h0a34.7,34.7,0,0,0-34.7-34.7h0" transform="translate(-39.737 -214.105)" fill="none" stroke="#182a74" stroke-width="1.178"/></g><line x2="126.639" transform="translate(212.296 62.472)" fill="none" stroke="#182a74" stroke-width="1.178"/><line x2="78.57" transform="translate(173.011 84.883)" fill="none" stroke="#182a74" stroke-width="1.178"/><line x2="126.639" transform="translate(212.296 107.292)" fill="none" stroke="#182a74" stroke-width="1.178"/></g></g></svg>