<svg xmlns="http://www.w3.org/2000/svg" width="177.93" height="304" viewBox="0 0 177.93 304"><g transform="translate(16408.5 20231.5)"><g transform="translate(-16989.002 -22907)"><g transform="translate(19070 15478)"><line y2="215" transform="translate(-18400.5 -12713.5)" fill="none" stroke="#182a74" stroke-width="1"/><g transform="translate(-18489 -12802)"><path d="M141.809,170.9,88.753,117.847q-.146-.146-.288-.293c-.094.1-.189.195-.286.291L35.121,170.9A20.573,20.573,0,0,1,6.026,141.809L59.085,88.751c.1-.1.193-.191.29-.284q-.147-.141-.291-.286L6.026,35.124a20.575,20.575,0,0,1,29.1-29.1L88.181,59.083c.1.1.193.194.287.292.094-.1.189-.194.285-.29L141.812,6.027a20.573,20.573,0,0,1,29.094,29.094L117.848,88.18c-.1.1-.192.19-.289.283.1.095.194.189.292.286L170.906,141.8a20.575,20.575,0,1,1-29.1,29.1ZM88.179,88.751c.1.1.192.193.286.291q.142-.148.288-.293c.1-.1.193-.192.29-.285q-.146-.14-.289-.284c-.1-.1-.192-.193-.286-.292q-.142.147-.286.292t-.291.286C87.987,88.56,88.084,88.655,88.179,88.751Z" transform="translate(0.001 176.933) rotate(-90)" fill="#182a74" stroke="#182a74" stroke-miterlimit="10" stroke-width="1"/></g></g><g transform="translate(-12 2019)"><g transform="translate(602.731 842)"><ellipse cx="72.709" cy="72.95" rx="72.709" ry="72.95" transform="translate(3.269 -166)" fill="#96d5ef"/><g transform="translate(43.285 -137.442)"><g transform="translate(42.033)"><path d="M-2597.246,5946.742c-7.052,0-11.275-3.583-11.275-8.006s4.223-8.007,11.275-8.007h0c7.052,0,11.275,3.585,11.275,8.007S-2590.195,5946.742-2597.246,5946.742Z" transform="translate(2608.521 -5930.729)" fill="#fff"/><circle cx="4.59" cy="4.59" r="4.59" transform="translate(6.685 3.416)" fill="#182a74"/></g><g transform="translate(2.033)"><path d="M-2597.246,5946.742c-7.052,0-11.275-3.583-11.275-8.006s4.223-8.007,11.275-8.007h0c7.052,0,11.275,3.585,11.275,8.007S-2590.195,5946.742-2597.246,5946.742Z" transform="translate(2608.521 -5930.729)" fill="#fff"/><circle cx="4.59" cy="4.59" r="4.59" transform="translate(6.685 3.416)" fill="#182a74"/></g></g></g><g transform="translate(663.039 733.039)"><g transform="translate(0 0)"><path d="M478.444,757.616V742.109h0a15.507,15.507,0,0,0-15.5,15.507h15.506Z" transform="translate(-462.938 -742.109)" fill="#182a74"/><path d="M510.312,773.978H494.806v15.506A15.506,15.506,0,0,0,510.312,773.978Z" transform="translate(-479.3 -758.471)" fill="#182a74"/></g><g transform="translate(0 0)"><path d="M494.807,757.616h15.506v0a15.506,15.506,0,0,0-15.506-15.5h0Z" transform="translate(-479.3 -742.11)" fill="#fff"/><path d="M478.445,789.485V773.978H462.939A15.506,15.506,0,0,0,478.445,789.485Z" transform="translate(-462.939 -758.472)" fill="#fff"/></g></g><g transform="translate(641.59 757.11)"><path d="M465.631,243.2a6.607,6.607,0,0,1,9.344,0" transform="translate(-401.321 -241.262)" fill="rgba(0,0,0,0)" stroke="#182a74" stroke-linecap="round" stroke-miterlimit="10" stroke-width="1"/><path d="M406.754,243.2a6.608,6.608,0,0,1,9.346,0" transform="translate(-406.754 -241.262)" fill="rgba(0,0,0,0)" stroke="#182a74" stroke-linecap="round" stroke-miterlimit="10" stroke-width="1"/><path d="M475.448,242.149c0,9.161-10.678,24.985-32.208,24.985s-32.208-15.824-32.208-24.985" transform="translate(-406.359 -241.18)" fill="rgba(0,0,0,0)" stroke="#182a74" stroke-linecap="round" stroke-miterlimit="10" stroke-width="1"/></g></g></g></g></svg>