<?xml version="1.0" encoding="utf-8"?><svg id="winter" image-rendering="optimizeSpeed" baseProfile="basic" version="1.1" preserveAspectRatio="xMidYMid meet" x="0px" y="0px" width="136" height="66" xmlns="http://www.w3.org/2000/svg" viewBox="0 0 136 66" xmlns:xlink="http://www.w3.org/1999/xlink"><g id="Scene-1" overflow="visible"><g mask="url(#mask_)"><g id="Symbol-5" transform="translate(-11.75 -46.8)"><animateTransform attributeName="transform" additive="replace" type="translate" repeatCount="indefinite" dur="0.633s" keyTimes="0;.05299;.053;.10499;.105;.15799;.158;.21099;.211;.26299;.263;.31599;.316;.36899;.369;.42099;.421;.47399;.474;.52699;.527;.57899;.579;.63199;.632;.68499;.685;.73699;.737;.78999;.79;.84299;.843;.89499;.895;.94799;.948;1" values="-11.75,-46.8;-11.75,-46.8;-3.35,-38.4;-3.35,-38.4;5.1,-29.95;5.1,-29.95;13.5,-21.55;13.5,-21.55;21.95,-13.1;21.95,-13.1;30.35,-4.7;30.35,-4.7;38.8,3.75;38.8,3.75;47.2,12.15;47.2,12.15;55.65,20.6;55.65,20.6;64.05,29;64.05,29;72.45,37.4;72.45,37.4;80.9,45.85;80.9,45.85;89.3,54.25;89.3,54.25;97.75,62.7;97.75,62.7;106.15,71.1;106.15,71.1;114.6,79.55;114.6,79.55;123,87.95;123,87.95;131.45,96.4;131.45,96.4;139.85,104.8;139.85,104.8" calcMode="discrete"/><path id="Layer2_0_1_STROKES" stroke="#192D72" stroke-width="2.65" stroke-linejoin="miter" stroke-linecap="butt" stroke-miterlimit="10" fill="none" d="M2 -33.2L16.95 -18.25M107.45 72.35L122.4 87.3M81.55 46.5L96.5 61.45M53.75 18.55L68.7 33.45M18.65 18.55L33.6 33.45M37.2 72.35L52.15 87.3M11.3 46.5L26.25 61.45M46.45 46.5L61.4 61.45M63.05 98.25L78 113.15M98.2 98.25L113.15 113.15M72.3 72.35L87.25 87.3M133.3 98.25L148.25 113.15M27.9 -7.35L42.85 7.6M-96.5 -61.45L-81.55 -46.55M-122.35 -87.35L-107.4 -72.4M-68.25 -33.2L-53.3 -18.25M-33.1 -33.2L-18.15 -18.25M-61.35 -61.45L-46.4 -46.55M-26.25 -61.45L-11.3 -46.55M-52.1 -87.35L-37.15 -72.4M-148.25 -113.2L-133.3 -98.25M-87.25 -87.35L-72.3 -72.4M-113.1 -113.2L-98.15 -98.25M-78 -113.2L-63.05 -98.25M-16.5 18.55L-1.55 33.45M-42.35 -7.35L-27.4 7.6M-7.25 -7.35L7.7 7.6"/></g></g><mask id="mask_"><g><g transform="translate(350.95 -1.05)"><g id="Layer1_0_FILL"><path fill="#FFF" stroke="none" d="M-214.95 67.05L-214.95 1.05 -350.95 1.05 -350.95 67.05 -214.95 67.05Z" fill-opacity="1"/></g></g></g></mask></g></svg>