<svg xmlns="http://www.w3.org/2000/svg" width="104.031" height="108.347" viewBox="0 0 104.031 108.347"><g transform="translate(-4453.141 -2668.629)"><path d="M4551.443,2891.2l-36.2-36.2a14.264,14.264,0,0,0-20.172,0l-9.982,9.981V2863.7a10.2,10.2,0,0,0-10.2-10.2h0a10.2,10.2,0,0,0-10.2,10.2v21.682l-5.822,5.823a17.851,17.851,0,0,0-5.23,12.624v54.345h103.031v-54.345A17.848,17.848,0,0,0,4551.443,2891.2Z" transform="translate(0 -181.693)" fill="#fff" stroke="#182a74" stroke-miterlimit="10" stroke-width="1"/><circle cx="7.973" cy="7.973" r="7.973" transform="translate(4497.184 2691.961)" fill="#182a74" stroke="#182a74" stroke-miterlimit="10" stroke-width="1"/><g transform="translate(4474.866 2719.332)"><g transform="translate(34.011 0)"><g transform="translate(9.004 4.796)"><path d="M4617.163,2992.749a6.569,6.569,0,0,1,9.292,0l0,0" transform="translate(-4617.163 -2990.822)" fill="none" stroke="#182a74" stroke-linecap="round" stroke-miterlimit="10" stroke-width="1"/><ellipse cx="3.912" cy="5.244" rx="3.912" ry="5.244" transform="translate(0.736 5.386)" fill="#182a74"/></g></g><g transform="translate(0 0)"><g transform="translate(9.004 4.796)"><path d="M4617.163,2992.749a6.569,6.569,0,0,1,9.292,0l0,0" transform="translate(-4617.163 -2990.822)" fill="none" stroke="#182a74" stroke-linecap="round" stroke-miterlimit="10" stroke-width="1"/><ellipse cx="3.912" cy="5.244" rx="3.912" ry="5.244" transform="translate(0.736 5.386)" fill="#182a74"/></g></g></g><path d="M4572.116,3064.844a32.817,32.817,0,0,1-46.41,0" transform="translate(-43.754 -311.637)" fill="none" stroke="#182a74" stroke-miterlimit="10" stroke-width="1"/></g></svg>