<svg xmlns="http://www.w3.org/2000/svg" xmlns:xlink="http://www.w3.org/1999/xlink" width="307.751" height="307.751" viewBox="0 0 307.751 307.751"><defs><clipPath id="a"><path d="M210.788,312.561l36.721-21.34,60.846,35.129-36.721,21.34Z" fill="none"/></clipPath></defs><g transform="translate(-74.46 -190.486)"><path d="M74.46,190.486H382.211V498.237H74.46Z" fill="none"/><path d="M298.843,303.654l-70.509-40.709-70.507,40.707,70.509,40.709Z" fill="#fff"/><path d="M228.337,425.778l33.355-40.707-33.357-40.709" fill="#182a74"/><path d="M228.335,344.362l-70.507,40.707,70.507-40.707-70.509-40.709L87.319,344.361l141.019,81.417" fill="#fff"/><path d="M298.843,303.654l-70.508,40.707,70.51,40.709,70.507-40.707Z" fill="#fff"/><g style="isolation:isolate"><g clip-path="url(#a)"><path d="M298.911,320.9a27.122,27.122,0,0,0-13.306-3.185c-.776,0-1.4.361-1.389.807a.692.692,0,0,0,.407.571,2.019,2.019,0,0,0,.991.237,23.014,23.014,0,0,1,11.331,2.713c2.911,1.68,4.712,3.992,4.733,6.554a.688.688,0,0,0,.407.576,2.027,2.027,0,0,0,.979.238c.763.008,1.391-.35,1.4-.8l.006-.011-.006-.011c-.017-3-2.138-5.725-5.548-7.693" fill="#182a74"/><path d="M281.989,330.992c-4.054-2.341-11.732-1.7-17.136,1.445s-6.493,7.59-2.439,9.931,11.725,1.7,17.136-1.446,6.5-7.586,2.439-9.93" fill="#182a74"/><path d="M257.226,296.832a27.153,27.153,0,0,0-13.313-3.189c-.77,0-1.391.365-1.389.808a.708.708,0,0,0,.412.573,1.988,1.988,0,0,0,.986.234,23.056,23.056,0,0,1,11.337,2.716c2.912,1.681,4.713,3.993,4.727,6.551l.007.011a.689.689,0,0,0,.4.57,2,2,0,0,0,.987.234c.77,0,1.391-.358,1.389-.808v-.007c-.017-3-2.139-5.725-5.548-7.693" fill="#182a74"/><path d="M240.3,306.925c-4.061-2.345-11.732-1.7-17.137,1.445s-6.5,7.586-2.438,9.931,11.725,1.7,17.136-1.446,6.5-7.586,2.439-9.93" fill="#182a74"/></g></g></g></svg>