<svg xmlns="http://www.w3.org/2000/svg" width="82.901" height="143.668" viewBox="0 0 82.901 143.668"><g transform="translate(-4498.716 -2551.062)"><g transform="translate(4531.167 2551.562)"><path d="M4747.717,2657.856h-49.95v-80.6a8.654,8.654,0,0,1,2.535-6.12l17.55-17.55a6.916,6.916,0,0,1,9.78,0l17.55,17.55a8.651,8.651,0,0,1,2.535,6.12Z" transform="translate(-4697.767 -2551.562)" fill="#fff" stroke="#182a74" stroke-miterlimit="10" stroke-width="1"/><g transform="translate(9.542 31.39)"><g transform="translate(0 0)"><g transform="translate(19.257)"><rect width="11.202" height="38.233" rx="5.601" fill="#182a74"/><rect width="11.202" height="38.233" rx="5.601" fill="none" stroke="#182a74" stroke-miterlimit="10" stroke-width="1"/></g><rect width="11.202" height="50.772" rx="5.601" fill="#182a74"/><rect width="11.202" height="50.772" rx="5.601" fill="none" stroke="#182a74" stroke-miterlimit="10" stroke-width="1"/></g></g></g><path d="M4651.553,2795.222a81.9,81.9,0,0,0-81.9,81.9h81.9Z" transform="translate(-70.436 -182.893)" fill="#182a74" stroke="#182a74" stroke-miterlimit="10" stroke-width="1"/><g transform="translate(4543.441 2591.115)"><path d="M4746.985,2711.381a4.17,4.17,0,0,1,5.9,0l0,0" transform="translate(-4746.985 -2710.158)" fill="none" stroke="#fff" stroke-linecap="round" stroke-miterlimit="10" stroke-width="1"/><ellipse cx="2.483" cy="3.329" rx="2.483" ry="3.329" transform="translate(0.467 3.419)" fill="#fff"/></g><g transform="translate(4562.699 2591.115)"><path d="M4746.985,2711.381a4.17,4.17,0,0,1,5.9,0l0,0" transform="translate(-4746.985 -2710.158)" fill="none" stroke="#fff" stroke-linecap="round" stroke-miterlimit="10" stroke-width="1"/><ellipse cx="2.483" cy="3.329" rx="2.483" ry="3.329" transform="translate(0.467 3.419)" fill="#fff"/></g></g></svg>