<svg xmlns="http://www.w3.org/2000/svg" width="307.752" height="307.751" viewBox="0 0 307.752 307.751"><g transform="translate(-1006.433 -46.696)"><path d="M1006.433,46.7h307.752V354.447H1006.433Z" fill="none"/><path d="M1282.5,145.314a85.517,85.517,0,0,1,0,120.937" fill="none" stroke="#182a74" stroke-linecap="round" stroke-miterlimit="10" stroke-width="1.717"/><rect width="102.15" height="102.15" transform="translate(1194.08 131.411) rotate(45)" fill="#fff"/><path d="M1230.654,239.3l35.658,35.658V203.642Z" fill="#182a74"/><path d="M1158.321,240.317l-35.658,35.658h71.315Z" fill="#182a74"/><path d="M1157.507,167.984l-35.658-35.658v71.315Z" fill="#182a74"/><path d="M1229.738,167.068,1265.4,131.41H1194.08Z" fill="#182a74"/><path d="M1213.988,205.783a10.793,10.793,0,0,1,10.8,10.788v.009" fill="none" stroke="#182a74" stroke-linecap="round" stroke-miterlimit="10" stroke-width="1.727"/><ellipse cx="8.615" cy="6.426" rx="8.615" ry="6.426" transform="translate(1194.974 226.779) rotate(-45)" fill="#182a74"/><path d="M1181.142,172.936a10.792,10.792,0,0,1,10.8,10.788v.01" fill="none" stroke="#182a74" stroke-linecap="round" stroke-miterlimit="10" stroke-width="1.727"/><ellipse cx="8.615" cy="6.426" rx="8.615" ry="6.426" transform="translate(1162.128 193.932) rotate(-45)" fill="#182a74"/><path d="M1105.834,125.169" fill="#fff"/><path d="M1115.542,134.877" fill="#fff"/><path d="M1113.405,135.915l-21.579,21.578s-36.061-11.144-59.828,12.622l-14.061,15.068s-12.5,14.789,2.581,29.872,29.142,1.851,29.142,1.851l6.178-6.177c7.226-7.226,17.94-4.795,31.906-5.616,8.729-.512,14.929-3.082,16.03-6.065,2.367-6.415-3.857-7.064-8.015-7.033-9.152.07-14.156.871-10.337-7.876,3.231-7.4,36.969-39.24,36.969-39.24a6.353,6.353,0,0,0-8.986-8.984Z" fill="#fff"/><path d="M1082.549,166.787s-20.869-6.45-34.624,7.3" fill="none" stroke="#182a74" stroke-linecap="round" stroke-linejoin="round" stroke-width="2"/><path d="M1072.067,177.268s-10.433-3.223-17.311,3.654" fill="none" stroke="#182a74" stroke-linecap="round" stroke-linejoin="round" stroke-width="2"/></g></svg>