<svg xmlns="http://www.w3.org/2000/svg" width="307.751" height="307.751" viewBox="0 0 307.751 307.751"><g transform="translate(-558.551 -48.55)"><path d="M558.551,48.55H866.3V356.3H558.551Z" fill="none"/><rect width="102.15" height="102.15" transform="translate(658.869 151.279)" fill="#182a74"/><path d="M761.019,201.706h50.428l-50.428-50.428Z" fill="#182a74"/><path d="M710.591,253.572V304l50.427-50.428Z" fill="#182a74"/><path d="M658.869,203H608.441l50.428,50.428Z" fill="#182a74"/><path d="M709.3,151.279V100.851l-50.427,50.428Z" fill="#182a74"/><path d="M685.2,221.229" fill="#fff"/><path d="M685.2,206.692" fill="#fff"/><path d="M699.849,234.974l-6.931-.244a6.729,6.729,0,1,1,0-13.459h2.37l-10.646-.148a6.729,6.729,0,0,1,0-13.458h0l2.93-.148a6.73,6.73,0,1,1,0-13.46s49.112,1.422,57.077-1.7c9.41-3.691,5.064-6.839-1.842-13.641-3.136-3.09-7.315-8.238-.738-11.269,3.056-1.409,9.628,1.31,16.55,7.463,11.074,9.847,17.278,19.694,28.1,19.694h9.252s20.44.618,20.44,23.211-20.44,24.3-20.44,24.3c-43.033,0-29.782,5.722-60.046,5.722-12.3,0-26.938-.76-26.938-.76a6.032,6.032,0,0,1-5.941-5.942,5.941,5.941,0,0,1,5.941-5.941h0l2.107-.218Z" fill="#fff"/><line x2="49.98" transform="translate(699.462 207.455)" fill="none" stroke="#182a74" stroke-linecap="round" stroke-linejoin="round" stroke-width="2.264"/><line x2="46.427" transform="translate(705.169 221.234)" fill="none" stroke="#182a74" stroke-linecap="round" stroke-linejoin="round" stroke-width="2.264"/><line x2="34.656" transform="translate(721.25 234.974)" fill="none" stroke="#182a74" stroke-linecap="round" stroke-linejoin="round" stroke-width="2.264"/><path d="M779.651,104a10.723,10.723,0,0,1,15.167-.007l.007.007" fill="none" stroke="#182a74" stroke-linecap="round" stroke-miterlimit="10" stroke-width="1.717"/><ellipse cx="6.386" cy="8.56" rx="6.386" ry="8.56" transform="translate(781.044 114.988)" fill="#182a74"/><path d="M743.429,104a10.723,10.723,0,0,1,15.167-.007l.007.007" fill="none" stroke="#182a74" stroke-linecap="round" stroke-miterlimit="10" stroke-width="1.717"/><ellipse cx="6.386" cy="8.56" rx="6.386" ry="8.56" transform="translate(744.822 114.988)" fill="#182a74"/></g></svg>