<svg xmlns="http://www.w3.org/2000/svg" width="34.024" height="64.697" viewBox="0 0 34.024 64.697"><g transform="translate(0.5 0.5)"><g transform="translate(0 0)"><path d="M442.152,114.108h0a16.512,16.512,0,0,1,16.509,16.512v35.446H425.64V130.62A16.512,16.512,0,0,1,442.152,114.108Z" transform="translate(-425.64 -114.108)" fill="none" stroke="#182a74" stroke-linecap="round" stroke-miterlimit="10" stroke-width="1"/><rect width="33.023" height="11.74" transform="translate(0 51.957)" fill="none" stroke="#182a74" stroke-linecap="round" stroke-miterlimit="10" stroke-width="1"/></g><g transform="translate(6.919 13.988)"><path d="M457.907,144.7a4.309,4.309,0,0,1,4.31,4.31" transform="translate(-442.581 -137.597)" fill="none" stroke="#182a74" stroke-linecap="round" stroke-miterlimit="10" stroke-width="1"/><path d="M435.676,135.661a4.307,4.307,0,0,1,6.094,0" transform="translate(-435.676 -134.398)" fill="none" stroke="#182a74" stroke-linecap="round" stroke-miterlimit="10" stroke-width="1"/><path d="M460.088,150.948" transform="translate(-443.259 -139.539)" fill="none" stroke="#182a74" stroke-linecap="round" stroke-miterlimit="10" stroke-width="1"/><ellipse cx="2.565" cy="3.438" rx="2.565" ry="3.438" transform="translate(12.761 17.106)" fill="#182a74"/><ellipse cx="2.565" cy="3.438" rx="2.565" ry="3.438" transform="translate(0.753 17.106)" fill="#182a74"/></g></g></svg>