<svg xmlns="http://www.w3.org/2000/svg" width="212.025" height="374.717" viewBox="0 0 212.025 374.717"><g transform="translate(0 0)"><g transform="translate(0)"><path d="M132.462,286.469c-24.243,0-43.9,17.558-43.9,39.22,0,27.079,24.566,49.028,54.868,49.028,37.88,0,68.588-27.438,68.588-61.285,0-42.307-38.385-76.606-85.733-76.606H0V137.89H126.291c47.348,0,85.735-34.3,85.735-76.606C212.025,27.438,181.318,0,143.439,0c-30.3,0-54.871,21.951-54.871,49.028,0,21.662,19.653,39.223,43.9,39.223" fill="#fff"/><path d="M51.425,187.53c-24.243,0-43.894,17.561-43.9,39.223,0,27.076,24.566,49.028,54.869,49.028,37.88,0,68.588-27.438,68.588-61.285,0-42.307-38.384-76.606-85.732-76.606,47.348,0,85.732-34.3,85.735-76.606C130.988,27.438,100.281,0,62.4,0,32.1,0,7.531,21.951,7.531,49.028c0,21.662,19.653,39.222,43.9,39.222L0,137.89Z" transform="translate(81.037 49.468)" fill="#fff"/></g></g></svg>