<svg xmlns="http://www.w3.org/2000/svg" width="365.253" height="366.139" viewBox="0 0 365.253 366.139"><g transform="translate(16026 14145)"><ellipse cx="182.626" cy="183.07" rx="182.626" ry="183.07" transform="translate(-16026 -14145)" fill="#04bf8a"/><g transform="translate(2.985 -0.311)"><g transform="translate(-15998.985 -14010.689)"><path d="M575.247,443.7c-43.122,0-68.946-21.918-68.946-48.958s25.824-48.958,68.946-48.958h0c43.121,0,68.945,21.919,68.945,48.958S618.368,443.7,575.247,443.7Z" transform="translate(-506.301 -345.78)" fill="#fff"/><circle cx="28.067" cy="28.067" r="28.067" transform="translate(40.878 20.89)"/></g><g transform="translate(-15831.405 -14010.689)"><path d="M680.8,443.7c-43.122,0-68.944-21.918-68.944-48.958S637.68,345.78,680.8,345.78h0c43.124,0,68.945,21.919,68.945,48.958S723.926,443.7,680.8,443.7Z" transform="translate(-611.858 -345.78)" fill="#fff"/><circle cx="28.067" cy="28.067" r="28.067" transform="translate(40.877 20.89)"/></g></g></g></svg>