<svg xmlns="http://www.w3.org/2000/svg" width="70.183" height="66.291" viewBox="0 0 70.183 66.291"><g transform="translate(0 -0.001)"><g transform="translate(16.269 8.039)"><g transform="translate(0 0)"><path d="M0,0H7.492a5.453,5.453,0,0,1,5.453,5.453v0a5.453,5.453,0,0,1-5.453,5.453H0a0,0,0,0,1,0,0V0A0,0,0,0,1,0,0Z" transform="translate(13.37 12.945) rotate(-90)"/><path d="M184.456,770.3c0,4.282.221,7.131,4.857,10.74,4.786,3.725,8.513,8.623,8.513,15.745a18.822,18.822,0,1,1-37.645,0c0-7.122,3.727-12.02,8.513-15.745,4.637-3.608,4.857-6.458,4.857-10.74Z" transform="translate(-160.181 -757.353)" fill="#fff"/><line y2="18.179" transform="translate(16.358 12.945)" fill="none" stroke="#000" stroke-miterlimit="10" stroke-width="3.091"/><line y2="18.179" transform="translate(20.612 12.945)" fill="none" stroke="#000" stroke-miterlimit="10" stroke-width="3.091"/></g></g><path d="M191.422,765.186H121.239l11.481-31a21.634,21.634,0,0,1,20.287-14.12h6.647a21.634,21.634,0,0,1,20.287,14.12Z" transform="translate(-121.239 -720.07)" fill="#182a74"/></g></svg>