<svg xmlns="http://www.w3.org/2000/svg" width="307.751" height="307.751" viewBox="0 0 307.751 307.751"><g transform="translate(-530.534 -496.946)"><path d="M530.534,496.946H838.285V804.7H530.534Z" fill="none"/><rect width="102.15" height="102.15" transform="translate(633.334 599.675)" fill="#fff"/><path d="M735.485,650.1h50.428l-50.428-50.428Z" fill="#182a74"/><path d="M685.057,701.968V752.4l50.427-50.428Z" fill="#182a74"/><path d="M633.334,651.4H582.906l50.428,50.428Z" fill="#182a74"/><path d="M683.762,599.675V549.247l-50.427,50.428Z" fill="#182a74"/><path d="M700,638.186a10.794,10.794,0,0,1,15.264-.007l.007.007" fill="none" stroke="#182a74" stroke-linecap="round" stroke-miterlimit="10" stroke-width="1.727"/><ellipse cx="6.426" cy="8.615" rx="6.426" ry="8.615" transform="translate(701.402 649.248)" fill="#182a74"/><path d="M653.548,638.186a10.793,10.793,0,0,1,15.263-.007l.007.007" fill="none" stroke="#182a74" stroke-linecap="round" stroke-miterlimit="10" stroke-width="1.727"/><ellipse cx="6.426" cy="8.615" rx="6.426" ry="8.615" transform="translate(654.95 649.248)" fill="#182a74"/><path d="M785.912,687.641,771.861,711.93h12.973L764.826,752.4l3.21-33.478h-9.982l6.122-31.276Z" fill="#182a74"/><path d="M610.764,549.247l-14.051,24.289h12.973L589.678,614l3.21-33.478h-9.982l6.122-31.276Z" fill="#182a74"/></g></svg>