<svg xmlns="http://www.w3.org/2000/svg" width="307.751" height="307.752" viewBox="0 0 307.751 307.752"><g transform="translate(-56.305 -547.949)"><path d="M56.305,547.949H364.056V855.7H56.305Z" fill="none"/><path d="M151.03,616.751h0a32.083,32.083,0,0,1,32.077,32.082V717.7h-64.16V648.833A32.082,32.082,0,0,1,151.03,616.751Z" fill="#182a74"/><rect width="64.164" height="22.811" transform="translate(118.947 717.703)" fill="none" stroke="#182a74" stroke-linecap="round" stroke-miterlimit="10" stroke-width="1.339"/><path d="M139.414,740.513V786.9" fill="none" stroke="#182a74" stroke-linecap="round" stroke-miterlimit="10" stroke-width="1.339"/><path d="M162.43,740.515v30.9" fill="none" stroke="#182a74" stroke-linecap="round" stroke-miterlimit="10" stroke-width="1.339"/><path d="M157.361,640.839a10.792,10.792,0,0,1,15.263-.007l.007.007" fill="none" stroke="#fff" stroke-linecap="round" stroke-miterlimit="10" stroke-width="1.727"/><ellipse cx="6.426" cy="8.615" rx="6.426" ry="8.615" transform="translate(158.763 671.901)" fill="#fff"/><path d="M129.427,640.839a10.792,10.792,0,0,1,15.263-.007l.007.007" fill="none" stroke="#fff" stroke-linecap="round" stroke-miterlimit="10" stroke-width="1.727"/><ellipse cx="6.426" cy="8.615" rx="6.426" ry="8.615" transform="translate(130.829 671.901)" fill="#fff"/><path d="M280.984,639.434" fill="#fff"/><path d="M267.255,639.435" fill="#fff"/><path d="M268.032,641.68V672.2s33.38,17.618,33.381,51.232l-.712,20.6s-1.618,19.3-22.948,19.3-21.916-19.3-21.916-19.3v-8.737c0-10.22-9.3-16.076-18.59-26.533-5.811-6.534-8.378-12.736-7.047-15.624,2.862-6.21,7.722-2.268,10.64.694,6.423,6.521,9.395,10.625,12.879,1.74,2.95-7.521,1.6-53.891,1.6-53.891a6.354,6.354,0,0,1,12.707,0Z" fill="#fff"/><path d="M268.021,685.33s19.318,10.2,19.318,29.649" fill="none" stroke="#182a74" stroke-linecap="round" stroke-linejoin="round" stroke-width="2"/><path d="M268.022,700.155s9.657,5.1,9.657,14.825" fill="none" stroke="#182a74" stroke-linecap="round" stroke-linejoin="round" stroke-width="2"/></g></svg>